  0
SECTION
  2
HEADER
  9
$ACADVER
  1
AC1009
  9
$INSBASE
 10
0.0
 20
0.0
 30
0.0
  9
$EXTMIN
 10
0.0
 20
0.0
 30
0.0
  9
$EXTMAX
 10
0.0
 20
0.0
 30
0.0
  0
ENDSEC
  0
SECTION
  2
TABLES
  0
TABLE
  2
VPORT
 70
1
  0
VPORT
  2
*ACTIVE
 70
0
 10
0.0
 20
0.0
 11
1.0
 21
1.0
 12
-5.0
 22
1.0
 13
0.0
 23
0.0
 14
0.1
 24
0.1
 15
0.1
 25
0.1
 16
0.0
 26
0.0
 36
1.0
 17
0.0
 27
0.0
 37
0.0
 40
10.0
 41
1.0
 42
50.0
 43
0.0
 44
0.0
 50
0.0
 51
0.0
 71
0
 72
100
 73
1
 74
1
 75
0
 76
0
 77
0
 78
0
  0
ENDTAB
  0
TABLE
  2
LTYPE
 70
8
  0
LTYPE
  2
CONTINUOUS
 70
0
  3
Solid line
 72
65
 73
0
 40
0.0
  0
LTYPE
  2
DOT
 70
0
  3
. . . . . . .
 72
65
 73
2
 40
0.25
 49
0.0
 49
-0.25
  0
LTYPE
  2
DASHED
 70
0
  3
__ __ __ __ __
 72
65
 73
2
 40
0.8
 49
0.5
 49
-0.3
  0
LTYPE
  2
DASHDOT
 70
0
  3
__ . __ . __ .
 72
65
 73
4
 40
1.0
 49
0.5
 49
-0.25
 49
0.0
 49
-0.25
  0
LTYPE
  2
DIVIDE
 70
0
  3
____ . . ____ . . 
 72
65
 73
6
 40
1.25
 49
0.5
 49
-0.25
 49
0.0
 49
-0.25
 49
0.0
 49
-0.25
  0
LTYPE
  2
BORDER
 70
0
  3
__ __ . __ __ . 
 72
65
 73
6
 40
1.75
 49
0.5
 49
-0.25
 49
0.5
 49
-0.25
 49
0.0
 49
-0.25
  0
LTYPE
  2
HIDDEN
 70
0
  3
__ __ __ __ __
 72
65
 73
2
 40
0.4
 49
0.25
 49
-0.25
  0
LTYPE
  2
CENTER
 70
0
  3
____ _ ____ _ __
 72
65
 73
4
 40
2.0
 49
1.25
 49
-0.25
 49
0.25
 49
-0.25
  0
ENDTAB
  0
TABLE
  2
LAYER
 70
1
  0
LAYER
  2
PYDXF
 70
64
 62
7
  6
continuous
  0
ENDTAB
  0
TABLE
  2
STYLE
 70
1
  0
STYLE
  2
STANDARD
 70
0
 40
0
 41
1.0
 50
0.0
 71
0
 42
1
 3
ARIAL.TTF
 4

  0
ENDTAB
  0
TABLE
  2
VIEW
 70
1
  0
VIEW
  2
BF_TOPVIEW
 70
0
 40
120.0
 10
0.0
 20
0.0
 41
200.0
 11
0.0
 21
0.0
 31
1.0
 12
0.0
 22
0.0
 32
0.0
 42
50.0
 43
0.0
 44
0.0
 50
0.0
 71
0
  0
ENDTAB
  0
ENDSEC
  0
SECTION
  2
BLOCKS
  0
ENDSEC
  0
SECTION
  2
ENTITIES
  0
3DFACE
  8
0
 10
26.387704849243164
 20
5.2301926612854
 30
2.3899316787719727
 11
22.292495727539062
 21
5.2301926612854
 31
1.9878606796264648
 12
18.19728660583496
 22
5.2301926612854
 32
2.3899316787719727
 13
18.19728660583496
 23
5.2301926612854
 33
2.3899316787719727
  0
3DFACE
  8
0
 10
18.19728660583496
 20
5.2301926612854
 30
2.3899316787719727
 11
14.259453773498535
 21
5.2301926612854
 31
3.580693244934082
 12
10.630327224731445
 22
5.2301926612854
 32
5.514386177062988
 13
10.630327224731445
 23
5.2301926612854
 33
5.514386177062988
  0
3DFACE
  8
0
 10
10.630327224731445
 20
5.2301926612854
 30
5.514386177062988
 11
7.449371337890625
 21
5.230192184448242
 31
8.11669635772705
 12
4.838829040527344
 22
5.230192184448242
 32
11.287622451782227
 13
4.838829040527344
 23
5.230192184448242
 33
11.287622451782227
  0
3DFACE
  8
0
 10
4.838829040527344
 20
5.230192184448242
 30
11.287622451782227
 11
2.899019241333008
 21
5.230191707611084
 31
14.905305862426758
 12
1.7044925689697266
 22
5.230191707611084
 32
18.830720901489258
 13
1.7044925689697266
 23
5.230191707611084
 33
18.830720901489258
  0
3DFACE
  8
0
 10
1.7044925689697266
 20
5.230191707611084
 30
18.830720901489258
 11
1.3011493682861328
 21
5.230191230773926
 31
22.91301727294922
 12
1.7044925689697266
 22
5.230190753936768
 32
26.995311737060547
 13
1.7044925689697266
 23
5.230190753936768
 33
26.995311737060547
  0
3DFACE
  8
0
 10
1.7044925689697266
 20
5.230190753936768
 30
26.995311737060547
 11
2.899019241333008
 21
5.230190753936768
 31
30.92072868347168
 12
4.838829040527344
 22
5.230190277099609
 32
34.53841018676758
 13
4.838829040527344
 23
5.230190277099609
 33
34.53841018676758
  0
3DFACE
  8
0
 10
4.838829040527344
 20
5.230190277099609
 30
34.53841018676758
 11
7.449371337890625
 21
5.230190277099609
 31
37.70933532714844
 12
10.630327224731445
 22
5.230189800262451
 32
40.3116455078125
 13
10.630327224731445
 23
5.230189800262451
 33
40.3116455078125
  0
3DFACE
  8
0
 10
10.630327224731445
 20
5.230189800262451
 30
40.3116455078125
 11
14.259453773498535
 21
5.230189800262451
 31
42.245338439941406
 12
18.19728660583496
 22
5.230189800262451
 32
43.436100006103516
 13
18.19728660583496
 23
5.230189800262451
 33
43.436100006103516
  0
3DFACE
  8
0
 10
18.19728660583496
 20
5.230189800262451
 30
43.436100006103516
 11
22.292495727539062
 21
5.230189800262451
 31
43.838172912597656
 12
26.387704849243164
 22
5.230189800262451
 32
43.436100006103516
 13
26.387704849243164
 23
5.230189800262451
 33
43.436100006103516
  0
3DFACE
  8
0
 10
26.387704849243164
 20
5.230189800262451
 30
43.436100006103516
 11
30.325538635253906
 21
5.230189800262451
 31
42.245338439941406
 12
33.95466613769531
 22
5.230189800262451
 32
40.3116455078125
 13
33.95466613769531
 23
5.230189800262451
 33
40.3116455078125
  0
3DFACE
  8
0
 10
33.95466613769531
 20
5.230189800262451
 30
40.3116455078125
 11
37.1356201171875
 21
5.230190277099609
 31
37.70933532714844
 12
39.74616241455078
 22
5.230190277099609
 32
34.53841018676758
 13
39.74616241455078
 23
5.230190277099609
 33
34.53841018676758
  0
3DFACE
  8
0
 10
39.74616241455078
 20
5.230190277099609
 30
34.53841018676758
 11
41.68597412109375
 21
5.230190753936768
 31
30.92072868347168
 12
42.88050079345703
 22
5.230190753936768
 32
26.995311737060547
 13
42.88050079345703
 23
5.230190753936768
 33
26.995311737060547
  0
3DFACE
  8
0
 10
42.88050079345703
 20
5.230190753936768
 30
26.995311737060547
 11
43.283843994140625
 21
5.230191230773926
 31
22.91301727294922
 12
42.88050079345703
 22
5.230191707611084
 32
18.830720901489258
 13
42.88050079345703
 23
5.230191707611084
 33
18.830720901489258
  0
3DFACE
  8
0
 10
42.88050079345703
 20
5.230191707611084
 30
18.830720901489258
 11
41.68597412109375
 21
5.230191707611084
 31
14.905305862426758
 12
39.74616241455078
 22
5.230192184448242
 32
11.287622451782227
 13
39.74616241455078
 23
5.230192184448242
 33
11.287622451782227
  0
3DFACE
  8
0
 10
39.74616241455078
 20
5.230192184448242
 30
11.287622451782227
 11
37.1356201171875
 21
5.230192184448242
 31
8.11669635772705
 12
33.95466613769531
 22
5.2301926612854
 32
5.514386177062988
 13
33.95466613769531
 23
5.2301926612854
 33
5.514386177062988
  0
3DFACE
  8
0
 10
33.95466613769531
 20
5.2301926612854
 30
5.514386177062988
 11
30.325538635253906
 21
5.2301926612854
 31
3.580693244934082
 12
26.387704849243164
 22
5.2301926612854
 32
2.3899316787719727
 13
26.387704849243164
 23
5.2301926612854
 33
2.3899316787719727
  0
3DFACE
  8
0
 10
26.387704849243164
 20
5.2301926612854
 30
2.3899316787719727
 11
18.19728660583496
 21
5.2301926612854
 31
2.3899316787719727
 12
10.630327224731445
 22
5.2301926612854
 32
5.514386177062988
 13
10.630327224731445
 23
5.2301926612854
 33
5.514386177062988
  0
3DFACE
  8
0
 10
10.630327224731445
 20
5.2301926612854
 30
5.514386177062988
 11
4.838829040527344
 21
5.230192184448242
 31
11.287622451782227
 12
1.7044925689697266
 22
5.230191707611084
 32
18.830720901489258
 13
1.7044925689697266
 23
5.230191707611084
 33
18.830720901489258
  0
3DFACE
  8
0
 10
1.7044925689697266
 20
5.230191707611084
 30
18.830720901489258
 11
1.7044925689697266
 21
5.230190753936768
 31
26.995311737060547
 12
4.838829040527344
 22
5.230190277099609
 32
34.53841018676758
 13
4.838829040527344
 23
5.230190277099609
 33
34.53841018676758
  0
3DFACE
  8
0
 10
4.838829040527344
 20
5.230190277099609
 30
34.53841018676758
 11
10.630327224731445
 21
5.230189800262451
 31
40.3116455078125
 12
18.19728660583496
 22
5.230189800262451
 32
43.436100006103516
 13
18.19728660583496
 23
5.230189800262451
 33
43.436100006103516
  0
3DFACE
  8
0
 10
18.19728660583496
 20
5.230189800262451
 30
43.436100006103516
 11
26.387704849243164
 21
5.230189800262451
 31
43.436100006103516
 12
33.95466613769531
 22
5.230189800262451
 32
40.3116455078125
 13
33.95466613769531
 23
5.230189800262451
 33
40.3116455078125
  0
3DFACE
  8
0
 10
33.95466613769531
 20
5.230189800262451
 30
40.3116455078125
 11
39.74616241455078
 21
5.230190277099609
 31
34.53841018676758
 12
42.88050079345703
 22
5.230190753936768
 32
26.995311737060547
 13
42.88050079345703
 23
5.230190753936768
 33
26.995311737060547
  0
3DFACE
  8
0
 10
42.88050079345703
 20
5.230190753936768
 30
26.995311737060547
 11
42.88050079345703
 21
5.230191707611084
 31
18.830720901489258
 12
39.74616241455078
 22
5.230192184448242
 32
11.287622451782227
 13
39.74616241455078
 23
5.230192184448242
 33
11.287622451782227
  0
3DFACE
  8
0
 10
39.74616241455078
 20
5.230192184448242
 30
11.287622451782227
 11
33.95466613769531
 21
5.2301926612854
 31
5.514386177062988
 12
26.387704849243164
 22
5.2301926612854
 32
2.3899316787719727
 13
26.387704849243164
 23
5.2301926612854
 33
2.3899316787719727
  0
3DFACE
  8
0
 10
26.387704849243164
 20
5.2301926612854
 30
2.3899316787719727
 11
10.630327224731445
 21
5.2301926612854
 31
5.514386177062988
 12
1.7044925689697266
 22
5.230191707611084
 32
18.830720901489258
 13
1.7044925689697266
 23
5.230191707611084
 33
18.830720901489258
  0
3DFACE
  8
0
 10
1.7044925689697266
 20
5.230191707611084
 30
18.830720901489258
 11
4.838829040527344
 21
5.230190277099609
 31
34.53841018676758
 12
18.19728660583496
 22
5.230189800262451
 32
43.436100006103516
 13
18.19728660583496
 23
5.230189800262451
 33
43.436100006103516
  0
3DFACE
  8
0
 10
18.19728660583496
 20
5.230189800262451
 30
43.436100006103516
 11
33.95466613769531
 21
5.230189800262451
 31
40.3116455078125
 12
42.88050079345703
 22
5.230190753936768
 32
26.995311737060547
 13
42.88050079345703
 23
5.230190753936768
 33
26.995311737060547
  0
3DFACE
  8
0
 10
42.88050079345703
 20
5.230190753936768
 30
26.995311737060547
 11
39.74616241455078
 21
5.230192184448242
 31
11.287622451782227
 12
26.387704849243164
 22
5.2301926612854
 32
2.3899316787719727
 13
26.387704849243164
 23
5.2301926612854
 33
2.3899316787719727
  0
3DFACE
  8
0
 10
26.387704849243164
 20
5.2301926612854
 30
2.3899316787719727
 11
1.7044925689697266
 21
5.230191707611084
 31
18.830720901489258
 12
18.19728660583496
 22
5.230189800262451
 32
43.436100006103516
 13
18.19728660583496
 23
5.230189800262451
 33
43.436100006103516
  0
3DFACE
  8
0
 10
18.19728660583496
 20
5.230189800262451
 30
43.436100006103516
 11
42.88050079345703
 21
5.230190753936768
 31
26.995311737060547
 12
26.387704849243164
 22
5.2301926612854
 32
2.3899316787719727
 13
26.387704849243164
 23
5.2301926612854
 33
2.3899316787719727
  0
3DFACE
  8
0
 10
34.47303009033203
 20
7.014404296875
 30
10.770889282226562
 11
36.615291595458984
 21
7.014404296875
 31
13.373008728027344
 12
38.207130432128906
 22
7.014403820037842
 32
16.341745376586914
 13
38.207130432128906
 23
7.014403820037842
 33
16.341745376586914
  0
3DFACE
  8
0
 10
38.207130432128906
 20
7.014403820037842
 30
16.341745376586914
 11
39.18738555908203
 21
7.014403820037842
 31
19.563011169433594
 12
39.51837921142578
 22
7.014403343200684
 32
22.91301727294922
 13
39.51837921142578
 23
7.014403343200684
 33
22.91301727294922
  0
3DFACE
  8
0
 10
39.51837921142578
 20
7.014403343200684
 30
22.91301727294922
 11
39.18738555908203
 21
7.014402866363525
 31
26.26302146911621
 12
38.207130432128906
 22
7.014402866363525
 32
29.484289169311523
 13
38.207130432128906
 23
7.014402866363525
 33
29.484289169311523
  0
3DFACE
  8
0
 10
38.207130432128906
 20
7.014402866363525
 30
29.484289169311523
 11
36.615291595458984
 21
7.014402866363525
 31
32.453025817871094
 12
34.47303009033203
 22
7.014402389526367
 32
35.055145263671875
 13
34.47303009033203
 23
7.014402389526367
 33
35.055145263671875
  0
3DFACE
  8
0
 10
34.47303009033203
 20
7.014402389526367
 30
35.055145263671875
 11
31.862682342529297
 21
7.014402389526367
 31
37.19064712524414
 12
28.88455581665039
 22
7.014402389526367
 32
38.777469635009766
 13
28.88455581665039
 23
7.014402389526367
 33
38.777469635009766
  0
3DFACE
  8
0
 10
28.88455581665039
 20
7.014402389526367
 30
38.777469635009766
 11
25.653099060058594
 21
7.014401912689209
 31
39.75463104248047
 12
22.292495727539062
 22
7.014401912689209
 32
40.08457565307617
 13
22.292495727539062
 23
7.014401912689209
 33
40.08457565307617
  0
3DFACE
  8
0
 10
22.292495727539062
 20
7.014401912689209
 30
40.08457565307617
 11
18.931894302368164
 21
7.014401912689209
 31
39.75463104248047
 12
15.700437545776367
 22
7.014402389526367
 32
38.777469635009766
 13
15.700437545776367
 23
7.014402389526367
 33
38.777469635009766
  0
3DFACE
  8
0
 10
15.700437545776367
 20
7.014402389526367
 30
38.777469635009766
 11
12.722310066223145
 21
7.014402389526367
 31
37.19064712524414
 12
10.111959457397461
 22
7.014402389526367
 32
35.055145263671875
 13
10.111959457397461
 23
7.014402389526367
 33
35.055145263671875
  0
3DFACE
  8
0
 10
10.111959457397461
 20
7.014402389526367
 30
35.055145263671875
 11
7.969701766967773
 21
7.014402866363525
 31
32.453025817871094
 12
6.377861022949219
 22
7.014402866363525
 32
29.484289169311523
 13
6.377861022949219
 23
7.014402866363525
 33
29.484289169311523
  0
3DFACE
  8
0
 10
6.377861022949219
 20
7.014402866363525
 30
29.484289169311523
 11
5.397609710693359
 21
7.014402866363525
 31
26.26302146911621
 12
5.066617965698242
 22
7.014403343200684
 32
22.91301727294922
 13
5.066617965698242
 23
7.014403343200684
 33
22.91301727294922
  0
3DFACE
  8
0
 10
5.066617965698242
 20
7.014403343200684
 30
22.91301727294922
 11
5.397609710693359
 21
7.014403820037842
 31
19.563011169433594
 12
6.377861022949219
 22
7.014403820037842
 32
16.341745376586914
 13
6.377861022949219
 23
7.014403820037842
 33
16.341745376586914
  0
3DFACE
  8
0
 10
6.377861022949219
 20
7.014403820037842
 30
16.341745376586914
 11
7.969701766967773
 21
7.014404296875
 31
13.373008728027344
 12
10.111959457397461
 22
7.014404296875
 32
10.770889282226562
 13
10.111959457397461
 23
7.014404296875
 33
10.770889282226562
  0
3DFACE
  8
0
 10
10.111959457397461
 20
7.014404296875
 30
10.770889282226562
 11
12.722310066223145
 21
7.014404296875
 31
8.63538646697998
 12
15.700437545776367
 22
7.014404773712158
 32
7.048562049865723
 13
15.700437545776367
 23
7.014404773712158
 33
7.048562049865723
  0
3DFACE
  8
0
 10
15.700437545776367
 20
7.014404773712158
 30
7.048562049865723
 11
18.931894302368164
 21
7.014404773712158
 31
6.071402549743652
 12
22.292495727539062
 22
7.014404773712158
 32
5.741456031799316
 13
22.292495727539062
 23
7.014404773712158
 33
5.741456031799316
  0
3DFACE
  8
0
 10
22.292495727539062
 20
7.014404773712158
 30
5.741456031799316
 11
25.653099060058594
 21
7.014404773712158
 31
6.071402549743652
 12
28.88455581665039
 22
7.014404773712158
 32
7.048562049865723
 13
28.88455581665039
 23
7.014404773712158
 33
7.048562049865723
  0
3DFACE
  8
0
 10
28.88455581665039
 20
7.014404773712158
 30
7.048562049865723
 11
31.862682342529297
 21
7.014404296875
 31
8.63538646697998
 12
34.47303009033203
 22
7.014404296875
 32
10.770889282226562
 13
34.47303009033203
 23
7.014404296875
 33
10.770889282226562
  0
3DFACE
  8
0
 10
34.47303009033203
 20
7.014404296875
 30
10.770889282226562
 11
38.207130432128906
 21
7.014403820037842
 31
16.341745376586914
 12
39.51837921142578
 22
7.014403343200684
 32
22.91301727294922
 13
39.51837921142578
 23
7.014403343200684
 33
22.91301727294922
  0
3DFACE
  8
0
 10
39.51837921142578
 20
7.014403343200684
 30
22.91301727294922
 11
38.207130432128906
 21
7.014402866363525
 31
29.484289169311523
 12
34.47303009033203
 22
7.014402389526367
 32
35.055145263671875
 13
34.47303009033203
 23
7.014402389526367
 33
35.055145263671875
  0
3DFACE
  8
0
 10
34.47303009033203
 20
7.014402389526367
 30
35.055145263671875
 11
28.88455581665039
 21
7.014402389526367
 31
38.777469635009766
 12
22.292495727539062
 22
7.014401912689209
 32
40.08457565307617
 13
22.292495727539062
 23
7.014401912689209
 33
40.08457565307617
  0
3DFACE
  8
0
 10
22.292495727539062
 20
7.014401912689209
 30
40.08457565307617
 11
15.700437545776367
 21
7.014402389526367
 31
38.777469635009766
 12
10.111959457397461
 22
7.014402389526367
 32
35.055145263671875
 13
10.111959457397461
 23
7.014402389526367
 33
35.055145263671875
  0
3DFACE
  8
0
 10
10.111959457397461
 20
7.014402389526367
 30
35.055145263671875
 11
6.377861022949219
 21
7.014402866363525
 31
29.484289169311523
 12
5.066617965698242
 22
7.014403343200684
 32
22.91301727294922
 13
5.066617965698242
 23
7.014403343200684
 33
22.91301727294922
  0
3DFACE
  8
0
 10
5.066617965698242
 20
7.014403343200684
 30
22.91301727294922
 11
6.377861022949219
 21
7.014403820037842
 31
16.341745376586914
 12
10.111959457397461
 22
7.014404296875
 32
10.770889282226562
 13
10.111959457397461
 23
7.014404296875
 33
10.770889282226562
  0
3DFACE
  8
0
 10
10.111959457397461
 20
7.014404296875
 30
10.770889282226562
 11
15.700437545776367
 21
7.014404773712158
 31
7.048562049865723
 12
22.292495727539062
 22
7.014404773712158
 32
5.741456031799316
 13
22.292495727539062
 23
7.014404773712158
 33
5.741456031799316
  0
3DFACE
  8
0
 10
22.292495727539062
 20
7.014404773712158
 30
5.741456031799316
 11
28.88455581665039
 21
7.014404773712158
 31
7.048562049865723
 12
34.47303009033203
 22
7.014404296875
 32
10.770889282226562
 13
34.47303009033203
 23
7.014404296875
 33
10.770889282226562
  0
3DFACE
  8
0
 10
34.47303009033203
 20
7.014404296875
 30
10.770889282226562
 11
39.51837921142578
 21
7.014403343200684
 31
22.91301727294922
 12
34.47303009033203
 22
7.014402389526367
 32
35.055145263671875
 13
34.47303009033203
 23
7.014402389526367
 33
35.055145263671875
  0
3DFACE
  8
0
 10
34.47303009033203
 20
7.014402389526367
 30
35.055145263671875
 11
22.292495727539062
 21
7.014401912689209
 31
40.08457565307617
 12
10.111959457397461
 22
7.014402389526367
 32
35.055145263671875
 13
10.111959457397461
 23
7.014402389526367
 33
35.055145263671875
  0
3DFACE
  8
0
 10
10.111959457397461
 20
7.014402389526367
 30
35.055145263671875
 11
5.066617965698242
 21
7.014403343200684
 31
22.91301727294922
 12
10.111959457397461
 22
7.014404296875
 32
10.770889282226562
 13
10.111959457397461
 23
7.014404296875
 33
10.770889282226562
  0
3DFACE
  8
0
 10
10.111959457397461
 20
7.014404296875
 30
10.770889282226562
 11
22.292495727539062
 21
7.014404773712158
 31
5.741456031799316
 12
34.47303009033203
 22
7.014404296875
 32
10.770889282226562
 13
34.47303009033203
 23
7.014404296875
 33
10.770889282226562
  0
3DFACE
  8
0
 10
34.47303009033203
 20
7.014404296875
 30
10.770889282226562
 11
34.47303009033203
 21
7.014402389526367
 31
35.055145263671875
 12
10.111959457397461
 22
7.014402389526367
 32
35.055145263671875
 13
10.111959457397461
 23
7.014402389526367
 33
35.055145263671875
  0
3DFACE
  8
0
 10
10.111959457397461
 20
7.014402389526367
 30
35.055145263671875
 11
10.111959457397461
 21
7.014404296875
 31
10.770889282226562
 12
34.47303009033203
 22
7.014404296875
 32
10.770889282226562
 13
34.47303009033203
 23
7.014404296875
 33
10.770889282226562
  0
3DFACE
  8
0
 10
33.95466613769531
 20
30.202470779418945
 30
5.514388084411621
 11
33.95466613769531
 21
5.2301926612854
 31
5.514386177062988
 12
37.1356201171875
 22
5.230192184448242
 32
8.11669635772705
 13
37.1356201171875
 23
5.230192184448242
 33
8.11669635772705
  0
3DFACE
  8
0
 10
33.95466613769531
 20
30.202470779418945
 30
5.514388084411621
 11
37.1356201171875
 21
5.230192184448242
 31
8.11669635772705
 12
37.1356201171875
 22
30.202470779418945
 32
8.116698265075684
 13
37.1356201171875
 23
30.202470779418945
 33
8.116698265075684
  0
3DFACE
  8
0
 10
37.1356201171875
 20
30.202470779418945
 30
8.116698265075684
 11
37.1356201171875
 21
5.230192184448242
 31
8.11669635772705
 12
39.74616241455078
 22
5.230192184448242
 32
11.287622451782227
 13
39.74616241455078
 23
5.230192184448242
 33
11.287622451782227
  0
3DFACE
  8
0
 10
37.1356201171875
 20
30.202470779418945
 30
8.116698265075684
 11
39.74616241455078
 21
5.230192184448242
 31
11.287622451782227
 12
39.74616241455078
 22
30.183937072753906
 32
11.28762435913086
 13
39.74616241455078
 23
30.183937072753906
 33
11.28762435913086
  0
3DFACE
  8
0
 10
39.74616241455078
 20
30.183937072753906
 30
11.28762435913086
 11
39.74616241455078
 21
5.230192184448242
 31
11.287622451782227
 12
41.68597412109375
 22
5.230191707611084
 32
14.905305862426758
 13
41.68597412109375
 23
5.230191707611084
 33
14.905305862426758
  0
3DFACE
  8
0
 10
39.74616241455078
 20
30.183937072753906
 30
11.28762435913086
 11
41.68597412109375
 21
5.230191707611084
 31
14.905305862426758
 12
41.68597412109375
 22
30.183937072753906
 32
14.90530776977539
 13
41.68597412109375
 23
30.183937072753906
 33
14.90530776977539
  0
3DFACE
  8
0
 10
18.19728660583496
 20
30.202470779418945
 30
2.3899335861206055
 11
14.259453773498535
 21
30.202470779418945
 31
3.580695152282715
 12
14.259453773498535
 22
5.2301926612854
 32
3.580693244934082
 13
14.259453773498535
 23
5.2301926612854
 33
3.580693244934082
  0
3DFACE
  8
0
 10
18.19728660583496
 20
30.202470779418945
 30
2.3899335861206055
 11
14.259453773498535
 21
5.2301926612854
 31
3.580693244934082
 12
18.19728660583496
 22
5.2301926612854
 32
2.3899316787719727
 13
18.19728660583496
 23
5.2301926612854
 33
2.3899316787719727
  0
3DFACE
  8
0
 10
14.259453773498535
 20
30.202470779418945
 30
3.580695152282715
 11
10.630327224731445
 21
30.202470779418945
 31
5.514388084411621
 12
10.630327224731445
 22
5.2301926612854
 32
5.514386177062988
 13
10.630327224731445
 23
5.2301926612854
 33
5.514386177062988
  0
3DFACE
  8
0
 10
14.259453773498535
 20
30.202470779418945
 30
3.580695152282715
 11
10.630327224731445
 21
5.2301926612854
 31
5.514386177062988
 12
14.259453773498535
 22
5.2301926612854
 32
3.580693244934082
 13
14.259453773498535
 23
5.2301926612854
 33
3.580693244934082
  0
3DFACE
  8
0
 10
10.630327224731445
 20
30.202470779418945
 30
5.514388084411621
 11
7.449371337890625
 21
30.202470779418945
 31
8.116698265075684
 12
7.449371337890625
 22
5.230192184448242
 32
8.11669635772705
 13
7.449371337890625
 23
5.230192184448242
 33
8.11669635772705
  0
3DFACE
  8
0
 10
10.630327224731445
 20
30.202470779418945
 30
5.514388084411621
 11
7.449371337890625
 21
5.230192184448242
 31
8.11669635772705
 12
10.630327224731445
 22
5.2301926612854
 32
5.514386177062988
 13
10.630327224731445
 23
5.2301926612854
 33
5.514386177062988
  0
3DFACE
  8
0
 10
7.449371337890625
 20
30.202470779418945
 30
8.116698265075684
 11
4.838829040527344
 21
30.183937072753906
 31
11.28762435913086
 12
4.838829040527344
 22
5.230192184448242
 32
11.287622451782227
 13
4.838829040527344
 23
5.230192184448242
 33
11.287622451782227
  0
3DFACE
  8
0
 10
7.449371337890625
 20
30.202470779418945
 30
8.116698265075684
 11
4.838829040527344
 21
5.230192184448242
 31
11.287622451782227
 12
7.449371337890625
 22
5.230192184448242
 32
8.11669635772705
 13
7.449371337890625
 23
5.230192184448242
 33
8.11669635772705
  0
3DFACE
  8
0
 10
4.838829040527344
 20
30.183937072753906
 30
11.28762435913086
 11
2.899019241333008
 21
30.133821487426758
 31
14.90530776977539
 12
2.899019241333008
 22
5.230191707611084
 32
14.905305862426758
 13
2.899019241333008
 23
5.230191707611084
 33
14.905305862426758
  0
3DFACE
  8
0
 10
4.838829040527344
 20
30.183937072753906
 30
11.28762435913086
 11
2.899019241333008
 21
5.230191707611084
 31
14.905305862426758
 12
4.838829040527344
 22
5.230192184448242
 32
11.287622451782227
 13
4.838829040527344
 23
5.230192184448242
 33
11.287622451782227
  0
3DFACE
  8
0
 10
12.722310066223145
 20
7.014404296875
 30
8.63538646697998
 11
15.700437545776367
 21
30.202470779418945
 31
7.0485639572143555
 12
15.700437545776367
 22
7.014404773712158
 32
7.048562049865723
 13
15.700437545776367
 23
7.014404773712158
 33
7.048562049865723
  0
3DFACE
  8
0
 10
12.722310066223145
 20
7.014404296875
 30
8.63538646697998
 11
10.111959457397461
 21
30.183937072753906
 31
10.770891189575195
 12
12.722310066223145
 22
30.202470779418945
 32
8.635388374328613
 13
12.722310066223145
 23
30.202470779418945
 33
8.635388374328613
  0
3DFACE
  8
0
 10
10.111959457397461
 20
7.014404296875
 30
10.770889282226562
 11
7.969701766967773
 21
30.183937072753906
 31
13.373010635375977
 12
10.111959457397461
 22
30.183937072753906
 32
10.770891189575195
 13
10.111959457397461
 23
30.183937072753906
 33
10.770891189575195
  0
3DFACE
  8
0
 10
15.700437545776367
 20
30.202470779418945
 30
7.0485639572143555
 11
18.931894302368164
 21
30.202470779418945
 31
6.071404457092285
 12
18.931894302368164
 22
7.014404773712158
 32
6.071402549743652
 13
18.931894302368164
 23
7.014404773712158
 33
6.071402549743652
  0
3DFACE
  8
0
 10
15.700437545776367
 20
30.202470779418945
 30
7.0485639572143555
 11
18.931894302368164
 21
7.014404773712158
 31
6.071402549743652
 12
15.700437545776367
 22
7.014404773712158
 32
7.048562049865723
 13
15.700437545776367
 23
7.014404773712158
 33
7.048562049865723
  0
3DFACE
  8
0
 10
18.931894302368164
 20
30.202470779418945
 30
6.071404457092285
 11
22.292495727539062
 21
30.202470779418945
 31
5.741457939147949
 12
22.292495727539062
 22
7.014404773712158
 32
5.741456031799316
 13
22.292495727539062
 23
7.014404773712158
 33
5.741456031799316
  0
3DFACE
  8
0
 10
18.931894302368164
 20
30.202470779418945
 30
6.071404457092285
 11
22.292495727539062
 21
7.014404773712158
 31
5.741456031799316
 12
18.931894302368164
 22
7.014404773712158
 32
6.071402549743652
 13
18.931894302368164
 23
7.014404773712158
 33
6.071402549743652
  0
3DFACE
  8
0
 10
22.292495727539062
 20
30.202470779418945
 30
5.741457939147949
 11
25.653099060058594
 21
30.202470779418945
 31
6.071404457092285
 12
25.653099060058594
 22
7.014404773712158
 32
6.071402549743652
 13
25.653099060058594
 23
7.014404773712158
 33
6.071402549743652
  0
3DFACE
  8
0
 10
22.292495727539062
 20
30.202470779418945
 30
5.741457939147949
 11
25.653099060058594
 21
7.014404773712158
 31
6.071402549743652
 12
22.292495727539062
 22
7.014404773712158
 32
5.741456031799316
 13
22.292495727539062
 23
7.014404773712158
 33
5.741456031799316
  0
3DFACE
  8
0
 10
25.653099060058594
 20
30.202470779418945
 30
6.071404457092285
 11
28.88455581665039
 21
30.202470779418945
 31
7.0485639572143555
 12
28.88455581665039
 22
7.014404773712158
 32
7.048562049865723
 13
28.88455581665039
 23
7.014404773712158
 33
7.048562049865723
  0
3DFACE
  8
0
 10
25.653099060058594
 20
30.202470779418945
 30
6.071404457092285
 11
28.88455581665039
 21
7.014404773712158
 31
7.048562049865723
 12
25.653099060058594
 22
7.014404773712158
 32
6.071402549743652
 13
25.653099060058594
 23
7.014404773712158
 33
6.071402549743652
  0
3DFACE
  8
0
 10
28.88455581665039
 20
30.202470779418945
 30
7.0485639572143555
 11
31.862682342529297
 21
30.202470779418945
 31
8.635388374328613
 12
31.862682342529297
 22
7.014404296875
 32
8.63538646697998
 13
31.862682342529297
 23
7.014404296875
 33
8.63538646697998
  0
3DFACE
  8
0
 10
28.88455581665039
 20
30.202470779418945
 30
7.0485639572143555
 11
31.862682342529297
 21
7.014404296875
 31
8.63538646697998
 12
28.88455581665039
 22
7.014404773712158
 32
7.048562049865723
 13
28.88455581665039
 23
7.014404773712158
 33
7.048562049865723
  0
3DFACE
  8
0
 10
31.862682342529297
 20
30.202470779418945
 30
8.635388374328613
 11
34.47303009033203
 21
30.183937072753906
 31
10.770891189575195
 12
34.47303009033203
 22
7.014404296875
 32
10.770889282226562
 13
34.47303009033203
 23
7.014404296875
 33
10.770889282226562
  0
3DFACE
  8
0
 10
31.862682342529297
 20
30.202470779418945
 30
8.635388374328613
 11
34.47303009033203
 21
7.014404296875
 31
10.770889282226562
 12
31.862682342529297
 22
7.014404296875
 32
8.63538646697998
 13
31.862682342529297
 23
7.014404296875
 33
8.63538646697998
  0
3DFACE
  8
0
 10
34.47303009033203
 20
30.183937072753906
 30
10.770891189575195
 11
36.615291595458984
 21
30.183937072753906
 31
13.373010635375977
 12
36.615291595458984
 22
7.014404296875
 32
13.373008728027344
 13
36.615291595458984
 23
7.014404296875
 33
13.373008728027344
  0
3DFACE
  8
0
 10
34.47303009033203
 20
30.183937072753906
 30
10.770891189575195
 11
36.615291595458984
 21
7.014404296875
 31
13.373008728027344
 12
34.47303009033203
 22
7.014404296875
 32
10.770889282226562
 13
34.47303009033203
 23
7.014404296875
 33
10.770889282226562
  0
3DFACE
  8
0
 10
40.530799865722656
 20
30.09042739868164
 30
20.2512264251709
 11
43.119930267333984
 21
30.0487003326416
 31
19.19542694091797
 12
42.761959075927734
 22
30.09042739868164
 32
20.572355270385742
 13
42.761959075927734
 23
30.09042739868164
 33
20.572355270385742
  0
3DFACE
  8
0
 10
42.761959075927734
 20
30.09042739868164
 30
20.572355270385742
 11
43.119930267333984
 21
30.0487003326416
 31
19.19542694091797
 12
43.2975959777832
 22
30.114952087402344
 32
23.299381256103516
 13
43.2975959777832
 23
30.114952087402344
 33
23.299381256103516
  0
3DFACE
  8
0
 10
42.761959075927734
 20
30.09042739868164
 30
20.572355270385742
 11
43.2975959777832
 21
30.114952087402344
 31
23.299381256103516
 12
42.44378662109375
 22
30.114315032958984
 32
22.769052505493164
 13
42.44378662109375
 23
30.114315032958984
 33
22.769052505493164
  0
3DFACE
  8
0
 10
43.2975959777832
 20
30.114952087402344
 30
23.299381256103516
 11
39.51837921142578
 21
30.167682647705078
 31
22.91301918029785
 12
40.2005729675293
 22
30.097688674926758
 32
22.531160354614258
 13
40.2005729675293
 23
30.097688674926758
 33
22.531160354614258
  0
3DFACE
  8
0
 10
43.2975959777832
 20
30.114952087402344
 30
23.299381256103516
 11
40.2005729675293
 21
30.097688674926758
 31
22.531160354614258
 12
42.44378662109375
 22
30.114315032958984
 32
22.769052505493164
 13
42.44378662109375
 23
30.114315032958984
 33
22.769052505493164
  0
3DFACE
  8
0
 10
40.2005729675293
 20
30.097688674926758
 30
22.531160354614258
 11
39.51837921142578
 21
30.167682647705078
 31
22.91301918029785
 12
39.18738555908203
 22
30.16042137145996
 32
19.563013076782227
 13
39.18738555908203
 23
30.16042137145996
 33
19.563013076782227
  0
3DFACE
  8
0
 10
40.2005729675293
 20
30.097688674926758
 30
22.531160354614258
 11
39.18738555908203
 21
30.16042137145996
 31
19.563013076782227
 12
40.530799865722656
 22
30.09042739868164
 32
20.2512264251709
 13
40.530799865722656
 23
30.09042739868164
 33
20.2512264251709
  0
3DFACE
  8
0
 10
1.7044925689697266
 20
30.167682647705078
 30
18.83072280883789
 11
2.899019241333008
 21
30.133821487426758
 31
14.90530776977539
 12
3.079629898071289
 22
30.09528350830078
 32
16.38072967529297
 13
3.079629898071289
 23
30.09528350830078
 33
16.38072967529297
  0
3DFACE
  8
0
 10
1.7044925689697266
 20
30.167682647705078
 30
18.83072280883789
 11
3.079629898071289
 21
30.09528350830078
 31
16.38072967529297
 12
2.8216209411621094
 22
30.09528350830078
 32
18.669902801513672
 13
2.8216209411621094
 23
30.09528350830078
 33
18.669902801513672
  0
3DFACE
  8
0
 10
2.899019241333008
 20
30.133821487426758
 30
14.90530776977539
 11
1.7044925689697266
 21
30.167682647705078
 31
18.83072280883789
 12
1.7044925689697266
 22
5.230191707611084
 32
18.830720901489258
 13
1.7044925689697266
 23
5.230191707611084
 33
18.830720901489258
  0
3DFACE
  8
0
 10
2.899019241333008
 20
30.133821487426758
 30
14.90530776977539
 11
1.7044925689697266
 21
5.230191707611084
 31
18.830720901489258
 12
2.899019241333008
 22
5.230191707611084
 32
14.905305862426758
 13
2.899019241333008
 23
5.230191707611084
 33
14.905305862426758
  0
3DFACE
  8
0
 10
1.7044925689697266
 20
30.167682647705078
 30
18.83072280883789
 11
1.3197002410888672
 21
30.075136184692383
 31
22.496826171875
 12
1.3011493682861328
 22
5.230191230773926
 32
22.91301727294922
 13
1.3011493682861328
 23
5.230191230773926
 33
22.91301727294922
  0
3DFACE
  8
0
 10
1.7044925689697266
 20
30.167682647705078
 30
18.83072280883789
 11
1.3011493682861328
 21
5.230191230773926
 31
22.91301727294922
 12
1.7044925689697266
 22
5.230191707611084
 32
18.830720901489258
 13
1.7044925689697266
 23
5.230191707611084
 33
18.830720901489258
  0
3DFACE
  8
0
 10
1.3197002410888672
 20
30.075136184692383
 30
22.496826171875
 11
1.7044925689697266
 21
30.167682647705078
 31
26.99531364440918
 12
1.7044925689697266
 22
5.230190753936768
 32
26.995311737060547
 13
1.7044925689697266
 23
5.230190753936768
 33
26.995311737060547
  0
3DFACE
  8
0
 10
1.3197002410888672
 20
30.075136184692383
 30
22.496826171875
 11
1.7044925689697266
 21
5.230190753936768
 31
26.995311737060547
 12
1.3011493682861328
 22
5.230191230773926
 32
22.91301727294922
 13
1.3011493682861328
 23
5.230191230773926
 33
22.91301727294922
  0
3DFACE
  8
0
 10
1.7044925689697266
 20
30.167682647705078
 30
26.99531364440918
 11
2.899019241333008
 21
30.183937072753906
 31
30.92072868347168
 12
2.899019241333008
 22
5.230190753936768
 32
30.92072868347168
 13
2.899019241333008
 23
5.230190753936768
 33
30.92072868347168
  0
3DFACE
  8
0
 10
1.7044925689697266
 20
30.167682647705078
 30
26.99531364440918
 11
2.899019241333008
 21
5.230190753936768
 31
30.92072868347168
 12
1.7044925689697266
 22
5.230190753936768
 32
26.995311737060547
 13
1.7044925689697266
 23
5.230190753936768
 33
26.995311737060547
  0
3DFACE
  8
0
 10
2.899019241333008
 20
30.183937072753906
 30
30.92072868347168
 11
4.838829040527344
 21
30.183937072753906
 31
34.538414001464844
 12
4.838829040527344
 22
5.230190277099609
 32
34.53841018676758
 13
4.838829040527344
 23
5.230190277099609
 33
34.53841018676758
  0
3DFACE
  8
0
 10
2.899019241333008
 20
30.183937072753906
 30
30.92072868347168
 11
4.838829040527344
 21
5.230190277099609
 31
34.53841018676758
 12
2.899019241333008
 22
5.230190753936768
 32
30.92072868347168
 13
2.899019241333008
 23
5.230190753936768
 33
30.92072868347168
  0
3DFACE
  8
0
 10
4.838829040527344
 20
30.183937072753906
 30
34.538414001464844
 11
7.449371337890625
 21
30.202468872070312
 31
37.7093391418457
 12
7.449371337890625
 22
5.230190277099609
 32
37.70933532714844
 13
7.449371337890625
 23
5.230190277099609
 33
37.70933532714844
  0
3DFACE
  8
0
 10
4.838829040527344
 20
30.183937072753906
 30
34.538414001464844
 11
7.449371337890625
 21
5.230190277099609
 31
37.70933532714844
 12
4.838829040527344
 22
5.230190277099609
 32
34.53841018676758
 13
4.838829040527344
 23
5.230190277099609
 33
34.53841018676758
  0
3DFACE
  8
0
 10
7.449371337890625
 20
30.202468872070312
 30
37.7093391418457
 11
10.630327224731445
 21
30.202468872070312
 31
40.311649322509766
 12
10.630327224731445
 22
5.230189800262451
 32
40.3116455078125
 13
10.630327224731445
 23
5.230189800262451
 33
40.3116455078125
  0
3DFACE
  8
0
 10
7.449371337890625
 20
30.202468872070312
 30
37.7093391418457
 11
10.630327224731445
 21
5.230189800262451
 31
40.3116455078125
 12
7.449371337890625
 22
5.230190277099609
 32
37.70933532714844
 13
7.449371337890625
 23
5.230190277099609
 33
37.70933532714844
  0
3DFACE
  8
0
 10
10.630327224731445
 20
30.202468872070312
 30
40.311649322509766
 11
14.298434257507324
 21
30.127262115478516
 31
42.39205551147461
 12
14.259453773498535
 22
5.230189800262451
 32
42.245338439941406
 13
14.259453773498535
 23
5.230189800262451
 33
42.245338439941406
  0
3DFACE
  8
0
 10
10.630327224731445
 20
30.202468872070312
 30
40.311649322509766
 11
14.259453773498535
 21
5.230189800262451
 31
42.245338439941406
 12
10.630327224731445
 22
5.230189800262451
 32
40.3116455078125
 13
10.630327224731445
 23
5.230189800262451
 33
40.3116455078125
  0
3DFACE
  8
0
 10
14.298434257507324
 20
30.127262115478516
 30
42.39205551147461
 11
18.23626708984375
 21
30.127262115478516
 31
43.58281707763672
 12
18.19728660583496
 22
5.230189800262451
 32
43.436100006103516
 13
18.19728660583496
 23
5.230189800262451
 33
43.436100006103516
  0
3DFACE
  8
0
 10
14.298434257507324
 20
30.127262115478516
 30
42.39205551147461
 11
18.19728660583496
 21
5.230189800262451
 31
43.436100006103516
 12
14.259453773498535
 22
5.230189800262451
 32
42.245338439941406
 13
14.259453773498535
 23
5.230189800262451
 33
42.245338439941406
  0
3DFACE
  8
0
 10
18.23626708984375
 20
30.127262115478516
 30
43.58281707763672
 11
22.33147621154785
 21
30.127262115478516
 31
43.984886169433594
 12
22.292495727539062
 22
5.230189800262451
 32
43.838172912597656
 13
22.292495727539062
 23
5.230189800262451
 33
43.838172912597656
  0
3DFACE
  8
0
 10
18.23626708984375
 20
30.127262115478516
 30
43.58281707763672
 11
22.292495727539062
 21
5.230189800262451
 31
43.838172912597656
 12
18.19728660583496
 22
5.230189800262451
 32
43.436100006103516
 13
18.19728660583496
 23
5.230189800262451
 33
43.436100006103516
  0
3DFACE
  8
0
 10
22.33147621154785
 20
30.127262115478516
 30
43.984886169433594
 11
26.387704849243164
 21
30.202468872070312
 31
43.43610382080078
 12
26.387704849243164
 22
5.230189800262451
 32
43.436100006103516
 13
26.387704849243164
 23
5.230189800262451
 33
43.436100006103516
  0
3DFACE
  8
0
 10
22.33147621154785
 20
30.127262115478516
 30
43.984886169433594
 11
26.387704849243164
 21
5.230189800262451
 31
43.436100006103516
 12
22.292495727539062
 22
5.230189800262451
 32
43.838172912597656
 13
22.292495727539062
 23
5.230189800262451
 33
43.838172912597656
  0
3DFACE
  8
0
 10
26.387704849243164
 20
30.202468872070312
 30
43.43610382080078
 11
30.325538635253906
 21
30.202468872070312
 31
42.24534225463867
 12
30.325538635253906
 22
5.230189800262451
 32
42.245338439941406
 13
30.325538635253906
 23
5.230189800262451
 33
42.245338439941406
  0
3DFACE
  8
0
 10
26.387704849243164
 20
30.202468872070312
 30
43.43610382080078
 11
30.325538635253906
 21
5.230189800262451
 31
42.245338439941406
 12
26.387704849243164
 22
5.230189800262451
 32
43.436100006103516
 13
26.387704849243164
 23
5.230189800262451
 33
43.436100006103516
  0
3DFACE
  8
0
 10
33.95466613769531
 20
30.202468872070312
 30
40.311649322509766
 11
30.325538635253906
 21
5.230189800262451
 31
42.245338439941406
 12
30.325538635253906
 22
30.202468872070312
 32
42.24534225463867
 13
30.325538635253906
 23
30.202468872070312
 33
42.24534225463867
  0
3DFACE
  8
0
 10
37.1356201171875
 20
30.202468872070312
 30
37.7093391418457
 11
33.95466613769531
 21
5.230189800262451
 31
40.3116455078125
 12
33.95466613769531
 22
30.202468872070312
 32
40.311649322509766
 13
33.95466613769531
 23
30.202468872070312
 33
40.311649322509766
  0
3DFACE
  8
0
 10
39.74616241455078
 20
30.183937072753906
 30
34.538414001464844
 11
37.1356201171875
 21
5.230190277099609
 31
37.70933532714844
 12
37.1356201171875
 22
30.202468872070312
 32
37.7093391418457
 13
37.1356201171875
 23
30.202468872070312
 33
37.7093391418457
  0
3DFACE
  8
0
 10
41.68597412109375
 20
30.183937072753906
 30
30.92072868347168
 11
39.74616241455078
 21
5.230190277099609
 31
34.53841018676758
 12
39.74616241455078
 22
30.183937072753906
 32
34.538414001464844
 13
39.74616241455078
 23
30.183937072753906
 33
34.538414001464844
  0
3DFACE
  8
0
 10
41.68597412109375
 20
30.183937072753906
 30
30.92072868347168
 11
42.88050079345703
 21
30.167682647705078
 31
26.70720100402832
 12
42.88050079345703
 22
5.230190753936768
 32
26.995311737060547
 13
42.88050079345703
 23
5.230190753936768
 33
26.995311737060547
  0
3DFACE
  8
0
 10
41.68597412109375
 20
30.183937072753906
 30
30.92072868347168
 11
42.88050079345703
 21
5.230190753936768
 31
26.995311737060547
 12
41.68597412109375
 22
5.230190753936768
 32
30.92072868347168
 13
41.68597412109375
 23
5.230190753936768
 33
30.92072868347168
  0
3DFACE
  8
0
 10
42.88050079345703
 20
30.167682647705078
 30
26.70720100402832
 11
43.2975959777832
 21
30.114952087402344
 31
23.299381256103516
 12
43.283843994140625
 22
5.230191230773926
 32
22.91301727294922
 13
43.283843994140625
 23
5.230191230773926
 33
22.91301727294922
  0
3DFACE
  8
0
 10
42.88050079345703
 20
30.167682647705078
 30
26.70720100402832
 11
43.283843994140625
 21
5.230191230773926
 31
22.91301727294922
 12
42.88050079345703
 22
5.230190753936768
 32
26.995311737060547
 13
42.88050079345703
 23
5.230190753936768
 33
26.995311737060547
  0
3DFACE
  8
0
 10
43.119930267333984
 20
30.0487003326416
 30
19.19542694091797
 11
41.68597412109375
 21
30.183937072753906
 31
14.90530776977539
 12
41.68597412109375
 22
5.230191707611084
 32
14.905305862426758
 13
41.68597412109375
 23
5.230191707611084
 33
14.905305862426758
  0
3DFACE
  8
0
 10
43.119930267333984
 20
30.0487003326416
 30
19.19542694091797
 11
41.68597412109375
 21
5.230191707611084
 31
14.905305862426758
 12
42.88050079345703
 22
5.230191707611084
 32
18.830720901489258
 13
42.88050079345703
 23
5.230191707611084
 33
18.830720901489258
  0
3DFACE
  8
0
 10
39.58942413330078
 20
30.091493606567383
 30
26.750606536865234
 11
39.18738555908203
 21
30.167682647705078
 31
26.263023376464844
 12
38.207130432128906
 22
30.16768455505371
 32
29.484291076660156
 13
38.207130432128906
 23
30.16768455505371
 33
29.484291076660156
  0
3DFACE
  8
0
 10
39.58942413330078
 20
30.091493606567383
 30
26.750606536865234
 11
38.207130432128906
 21
30.16768455505371
 31
29.484291076660156
 12
39.259193420410156
 22
30.091493606567383
 32
29.030540466308594
 13
39.259193420410156
 23
30.091493606567383
 33
29.030540466308594
  0
3DFACE
  8
0
 10
41.68597412109375
 20
30.183937072753906
 30
30.92072868347168
 11
39.259193420410156
 21
30.091493606567383
 31
29.030540466308594
 12
38.207130432128906
 22
30.16768455505371
 32
29.484291076660156
 13
38.207130432128906
 23
30.16768455505371
 33
29.484291076660156
  0
3DFACE
  8
0
 10
39.18738555908203
 20
7.014402866363525
 30
26.26302146911621
 11
39.18738555908203
 21
30.167682647705078
 31
26.263023376464844
 12
38.207130432128906
 22
30.16768455505371
 32
29.484291076660156
 13
38.207130432128906
 23
30.16768455505371
 33
29.484291076660156
  0
3DFACE
  8
0
 10
39.18738555908203
 20
7.014402866363525
 30
26.26302146911621
 11
38.207130432128906
 21
30.16768455505371
 31
29.484291076660156
 12
38.207130432128906
 22
7.014402866363525
 32
29.484289169311523
 13
38.207130432128906
 23
7.014402866363525
 33
29.484289169311523
  0
3DFACE
  8
0
 10
2.086118698120117
 20
30.09528350830078
 30
25.195621490478516
 11
1.3197002410888672
 21
30.075136184692383
 31
22.496826171875
 12
1.7044925689697266
 22
30.167682647705078
 32
26.99531364440918
 13
1.7044925689697266
 23
30.167682647705078
 33
26.99531364440918
  0
3DFACE
  8
0
 10
4.326316833496094
 20
30.111907958984375
 30
25.44651985168457
 11
1.7044925689697266
 21
30.167682647705078
 31
26.99531364440918
 12
5.397609710693359
 22
30.117565155029297
 32
26.263023376464844
 13
5.397609710693359
 23
30.117565155029297
 33
26.263023376464844
  0
3DFACE
  8
0
 10
41.820579528808594
 20
30.091493606567383
 30
27.071735382080078
 11
39.18738555908203
 21
30.167682647705078
 31
26.263023376464844
 12
39.58942413330078
 22
30.091493606567383
 32
26.750606536865234
 13
39.58942413330078
 23
30.091493606567383
 33
26.750606536865234
  0
3DFACE
  8
0
 10
6.377861022949219
 20
30.11756706237793
 30
16.341747283935547
 11
5.319828033447266
 21
30.09528350830078
 31
16.631629943847656
 12
3.079629898071289
 22
30.09528350830078
 32
16.38072967529297
 13
3.079629898071289
 23
30.09528350830078
 33
16.38072967529297
  0
3DFACE
  8
0
 10
6.377861022949219
 20
30.11756706237793
 30
16.341747283935547
 11
3.079629898071289
 21
30.09528350830078
 31
16.38072967529297
 12
2.899019241333008
 22
30.133821487426758
 32
14.90530776977539
 13
2.899019241333008
 23
30.133821487426758
 33
14.90530776977539
  0
3DFACE
  8
0
 10
6.377861022949219
 20
30.11756706237793
 30
16.341747283935547
 11
5.887735366821289
 21
30.11756706237793
 31
17.95237922668457
 12
5.397609710693359
 22
30.11756706237793
 32
19.563013076782227
 13
5.397609710693359
 23
30.11756706237793
 33
19.563013076782227
  0
3DFACE
  8
0
 10
5.397609710693359
 20
30.11756706237793
 30
19.563013076782227
 11
5.071237564086914
 21
30.111907958984375
 31
18.837228775024414
 12
5.319828033447266
 22
30.09528350830078
 32
16.631629943847656
 13
5.319828033447266
 23
30.09528350830078
 33
16.631629943847656
  0
3DFACE
  8
0
 10
5.397609710693359
 20
30.11756706237793
 30
19.563013076782227
 11
5.319828033447266
 21
30.09528350830078
 31
16.631629943847656
 12
6.377861022949219
 22
30.11756706237793
 32
16.341747283935547
 13
6.377861022949219
 23
30.11756706237793
 33
16.341747283935547
  0
3DFACE
  8
0
 10
5.397609710693359
 20
7.014403820037842
 30
19.563011169433594
 11
5.397609710693359
 21
30.11756706237793
 31
19.563013076782227
 12
5.887735366821289
 22
30.11756706237793
 32
17.95237922668457
 13
5.887735366821289
 23
30.11756706237793
 33
17.95237922668457
  0
3DFACE
  8
0
 10
5.397609710693359
 20
7.014403820037842
 30
19.563011169433594
 11
5.066617965698242
 21
30.11756706237793
 31
22.91301918029785
 12
5.397609710693359
 22
30.11756706237793
 32
19.563013076782227
 13
5.397609710693359
 23
30.11756706237793
 33
19.563013076782227
  0
3DFACE
  8
0
 10
5.066617965698242
 20
30.11756706237793
 30
22.91301918029785
 11
5.066617965698242
 21
7.014403343200684
 31
22.91301727294922
 12
5.397609710693359
 22
7.014402866363525
 32
26.26302146911621
 13
5.397609710693359
 23
7.014402866363525
 33
26.26302146911621
  0
3DFACE
  8
0
 10
5.066617965698242
 20
30.11756706237793
 30
22.91301918029785
 11
5.397609710693359
 21
7.014402866363525
 31
26.26302146911621
 12
5.397609710693359
 22
30.117565155029297
 32
26.263023376464844
 13
5.397609710693359
 23
30.117565155029297
 33
26.263023376464844
  0
3DFACE
  8
0
 10
5.397609710693359
 20
30.117565155029297
 30
26.263023376464844
 11
5.397609710693359
 21
7.014402866363525
 31
26.26302146911621
 12
6.377861022949219
 22
7.014402866363525
 32
29.484289169311523
 13
6.377861022949219
 23
7.014402866363525
 33
29.484289169311523
  0
3DFACE
  8
0
 10
5.397609710693359
 20
30.117565155029297
 30
26.263023376464844
 11
6.377861022949219
 21
7.014402866363525
 31
29.484289169311523
 12
6.377861022949219
 22
30.167682647705078
 32
29.484291076660156
 13
6.377861022949219
 23
30.167682647705078
 33
29.484291076660156
  0
3DFACE
  8
0
 10
6.377861022949219
 20
30.167682647705078
 30
29.484291076660156
 11
6.377861022949219
 21
7.014402866363525
 31
29.484289169311523
 12
7.969701766967773
 22
7.014402866363525
 32
32.453025817871094
 13
7.969701766967773
 23
7.014402866363525
 33
32.453025817871094
  0
3DFACE
  8
0
 10
6.377861022949219
 20
30.167682647705078
 30
29.484291076660156
 11
7.969701766967773
 21
7.014402866363525
 31
32.453025817871094
 12
7.969701766967773
 22
30.183937072753906
 32
32.453025817871094
 13
7.969701766967773
 23
30.183937072753906
 33
32.453025817871094
  0
3DFACE
  8
0
 10
7.969701766967773
 20
30.183937072753906
 30
32.453025817871094
 11
7.969701766967773
 21
7.014402866363525
 31
32.453025817871094
 12
10.111959457397461
 22
7.014402389526367
 32
35.055145263671875
 13
10.111959457397461
 23
7.014402389526367
 33
35.055145263671875
  0
3DFACE
  8
0
 10
7.969701766967773
 20
30.183937072753906
 30
32.453025817871094
 11
10.111959457397461
 21
7.014402389526367
 31
35.055145263671875
 12
10.111959457397461
 22
30.183937072753906
 32
35.055145263671875
 13
10.111959457397461
 23
30.183937072753906
 33
35.055145263671875
  0
3DFACE
  8
0
 10
10.111959457397461
 20
30.183937072753906
 30
35.055145263671875
 11
10.111959457397461
 21
7.014402389526367
 31
35.055145263671875
 12
12.722310066223145
 22
7.014402389526367
 32
37.19064712524414
 13
12.722310066223145
 23
7.014402389526367
 33
37.19064712524414
  0
3DFACE
  8
0
 10
10.111959457397461
 20
30.183937072753906
 30
35.055145263671875
 11
12.722310066223145
 21
7.014402389526367
 31
37.19064712524414
 12
12.722310066223145
 22
30.202468872070312
 32
37.19064712524414
 13
12.722310066223145
 23
30.202468872070312
 33
37.19064712524414
  0
3DFACE
  8
0
 10
12.722310066223145
 20
30.202468872070312
 30
37.19064712524414
 11
12.722310066223145
 21
7.014402389526367
 31
37.19064712524414
 12
15.700437545776367
 22
7.014402389526367
 32
38.777469635009766
 13
15.700437545776367
 23
7.014402389526367
 33
38.777469635009766
  0
3DFACE
  8
0
 10
12.722310066223145
 20
30.202468872070312
 30
37.19064712524414
 11
15.700437545776367
 21
7.014402389526367
 31
38.777469635009766
 12
15.700437545776367
 22
30.202468872070312
 32
38.777469635009766
 13
15.700437545776367
 23
30.202468872070312
 33
38.777469635009766
  0
3DFACE
  8
0
 10
15.700437545776367
 20
30.202468872070312
 30
38.777469635009766
 11
15.700437545776367
 21
7.014402389526367
 31
38.777469635009766
 12
18.931894302368164
 22
7.014401912689209
 32
39.75463104248047
 13
18.931894302368164
 23
7.014401912689209
 33
39.75463104248047
  0
3DFACE
  8
0
 10
15.700437545776367
 20
30.202468872070312
 30
38.777469635009766
 11
18.931894302368164
 21
7.014401912689209
 31
39.75463104248047
 12
18.931894302368164
 22
30.202468872070312
 32
39.75463104248047
 13
18.931894302368164
 23
30.202468872070312
 33
39.75463104248047
  0
3DFACE
  8
0
 10
18.931894302368164
 20
30.202468872070312
 30
39.75463104248047
 11
18.931894302368164
 21
7.014401912689209
 31
39.75463104248047
 12
22.292495727539062
 22
7.014401912689209
 32
40.08457565307617
 13
22.292495727539062
 23
7.014401912689209
 33
40.08457565307617
  0
3DFACE
  8
0
 10
18.931894302368164
 20
30.202468872070312
 30
39.75463104248047
 11
22.292495727539062
 21
7.014401912689209
 31
40.08457565307617
 12
22.292495727539062
 22
30.202468872070312
 32
40.08457946777344
 13
22.292495727539062
 23
30.202468872070312
 33
40.08457946777344
  0
3DFACE
  8
0
 10
22.292495727539062
 20
30.202468872070312
 30
40.08457946777344
 11
22.292495727539062
 21
7.014401912689209
 31
40.08457565307617
 12
25.653099060058594
 22
7.014401912689209
 32
39.75463104248047
 13
25.653099060058594
 23
7.014401912689209
 33
39.75463104248047
  0
3DFACE
  8
0
 10
22.292495727539062
 20
30.202468872070312
 30
40.08457946777344
 11
25.653099060058594
 21
7.014401912689209
 31
39.75463104248047
 12
25.653099060058594
 22
30.202468872070312
 32
39.75463104248047
 13
25.653099060058594
 23
30.202468872070312
 33
39.75463104248047
  0
3DFACE
  8
0
 10
25.653099060058594
 20
30.202468872070312
 30
39.75463104248047
 11
25.653099060058594
 21
7.014401912689209
 31
39.75463104248047
 12
28.88455581665039
 22
7.014402389526367
 32
38.777469635009766
 13
28.88455581665039
 23
7.014402389526367
 33
38.777469635009766
  0
3DFACE
  8
0
 10
25.653099060058594
 20
30.202468872070312
 30
39.75463104248047
 11
28.88455581665039
 21
7.014402389526367
 31
38.777469635009766
 12
28.88455581665039
 22
30.202468872070312
 32
38.777469635009766
 13
28.88455581665039
 23
30.202468872070312
 33
38.777469635009766
  0
3DFACE
  8
0
 10
28.88455581665039
 20
30.202468872070312
 30
38.777469635009766
 11
28.88455581665039
 21
7.014402389526367
 31
38.777469635009766
 12
31.862682342529297
 22
7.014402389526367
 32
37.19064712524414
 13
31.862682342529297
 23
7.014402389526367
 33
37.19064712524414
  0
3DFACE
  8
0
 10
28.88455581665039
 20
30.202468872070312
 30
38.777469635009766
 11
31.862682342529297
 21
7.014402389526367
 31
37.19064712524414
 12
31.862682342529297
 22
30.202468872070312
 32
37.19064712524414
 13
31.862682342529297
 23
30.202468872070312
 33
37.19064712524414
  0
3DFACE
  8
0
 10
31.862682342529297
 20
30.202468872070312
 30
37.19064712524414
 11
31.862682342529297
 21
7.014402389526367
 31
37.19064712524414
 12
34.47303009033203
 22
7.014402389526367
 32
35.055145263671875
 13
34.47303009033203
 23
7.014402389526367
 33
35.055145263671875
  0
3DFACE
  8
0
 10
31.862682342529297
 20
30.202468872070312
 30
37.19064712524414
 11
34.47303009033203
 21
7.014402389526367
 31
35.055145263671875
 12
34.47303009033203
 22
30.183937072753906
 32
35.055145263671875
 13
34.47303009033203
 23
30.183937072753906
 33
35.055145263671875
  0
3DFACE
  8
0
 10
34.47303009033203
 20
30.183937072753906
 30
35.055145263671875
 11
34.47303009033203
 21
7.014402389526367
 31
35.055145263671875
 12
36.615291595458984
 22
7.014402866363525
 32
32.453025817871094
 13
36.615291595458984
 23
7.014402866363525
 33
32.453025817871094
  0
3DFACE
  8
0
 10
34.47303009033203
 20
30.183937072753906
 30
35.055145263671875
 11
36.615291595458984
 21
7.014402866363525
 31
32.453025817871094
 12
36.615291595458984
 22
30.183937072753906
 32
32.453025817871094
 13
36.615291595458984
 23
30.183937072753906
 33
32.453025817871094
  0
3DFACE
  8
0
 10
36.615291595458984
 20
30.183937072753906
 30
32.453025817871094
 11
36.615291595458984
 21
7.014402866363525
 31
32.453025817871094
 12
38.207130432128906
 22
7.014402866363525
 32
29.484289169311523
 13
38.207130432128906
 23
7.014402866363525
 33
29.484289169311523
  0
3DFACE
  8
0
 10
36.615291595458984
 20
30.183937072753906
 30
32.453025817871094
 11
38.207130432128906
 21
7.014402866363525
 31
29.484289169311523
 12
38.207130432128906
 22
30.16768455505371
 32
29.484291076660156
 13
38.207130432128906
 23
30.16768455505371
 33
29.484291076660156
  0
3DFACE
  8
0
 10
4.584325790405273
 20
30.09528350830078
 30
23.1573486328125
 11
5.066617965698242
 21
30.11756706237793
 31
22.91301918029785
 12
1.3197002410888672
 22
30.075136184692383
 32
22.496826171875
 13
1.3197002410888672
 23
30.075136184692383
 33
22.496826171875
  0
3DFACE
  8
0
 10
4.584325790405273
 20
30.09528350830078
 30
23.1573486328125
 11
1.3197002410888672
 21
30.075136184692383
 31
22.496826171875
 12
2.344125747680664
 22
30.09528350830078
 32
22.906448364257812
 13
2.344125747680664
 23
30.09528350830078
 33
22.906448364257812
  0
3DFACE
  8
0
 10
7.969701766967773
 20
7.014404296875
 30
13.373008728027344
 11
6.377861022949219
 21
30.11756706237793
 31
16.341747283935547
 12
7.969701766967773
 22
30.183937072753906
 32
13.373010635375977
 13
7.969701766967773
 23
30.183937072753906
 33
13.373010635375977
  0
3DFACE
  8
0
 10
2.8216209411621094
 20
30.09528350830078
 30
18.669902801513672
 11
5.071237564086914
 21
30.111907958984375
 31
18.837228775024414
 12
5.397609710693359
 22
30.11756706237793
 32
19.563013076782227
 13
5.397609710693359
 23
30.11756706237793
 33
19.563013076782227
  0
3DFACE
  8
0
 10
2.8216209411621094
 20
30.09528350830078
 30
18.669902801513672
 11
5.397609710693359
 21
30.11756706237793
 31
19.563013076782227
 12
1.7044925689697266
 22
30.167682647705078
 32
18.83072280883789
 13
1.7044925689697266
 23
30.167682647705078
 33
18.83072280883789
  0
3DFACE
  8
0
 10
38.207130432128906
 20
7.014403820037842
 30
16.341745376586914
 11
36.615291595458984
 21
7.014404296875
 31
13.373008728027344
 12
36.615291595458984
 22
30.183937072753906
 32
13.373010635375977
 13
36.615291595458984
 23
30.183937072753906
 33
13.373010635375977
  0
3DFACE
  8
0
 10
38.207130432128906
 20
7.014403820037842
 30
16.341745376586914
 11
36.615291595458984
 21
30.183937072753906
 31
13.373010635375977
 12
38.207130432128906
 22
30.167682647705078
 32
16.341747283935547
 13
38.207130432128906
 23
30.167682647705078
 33
16.341747283935547
  0
3DFACE
  8
0
 10
38.207130432128906
 20
30.167682647705078
 30
16.341747283935547
 11
39.18738555908203
 21
30.16042137145996
 31
19.563013076782227
 12
39.18738555908203
 22
7.014403820037842
 32
19.563011169433594
 13
39.18738555908203
 23
7.014403820037842
 33
19.563011169433594
  0
3DFACE
  8
0
 10
38.207130432128906
 20
30.167682647705078
 30
16.341747283935547
 11
39.18738555908203
 21
7.014403820037842
 31
19.563011169433594
 12
38.207130432128906
 22
7.014403820037842
 32
16.341745376586914
 13
38.207130432128906
 23
7.014403820037842
 33
16.341745376586914
  0
3DFACE
  8
0
 10
39.18738555908203
 20
30.167682647705078
 30
26.263023376464844
 11
39.18738555908203
 21
7.014402866363525
 31
26.26302146911621
 12
39.51837921142578
 22
7.014403343200684
 32
22.91301727294922
 13
39.51837921142578
 23
7.014403343200684
 33
22.91301727294922
  0
3DFACE
  8
0
 10
39.18738555908203
 20
30.167682647705078
 30
26.263023376464844
 11
39.51837921142578
 21
7.014403343200684
 31
22.91301727294922
 12
39.51837921142578
 22
30.167682647705078
 32
22.91301918029785
 13
39.51837921142578
 23
30.167682647705078
 33
22.91301918029785
  0
3DFACE
  8
0
 10
26.387704849243164
 20
5.2301926612854
 30
2.3899316787719727
 11
30.325538635253906
 21
5.2301926612854
 31
3.580693244934082
 12
30.325538635253906
 22
30.202470779418945
 32
3.580695152282715
 13
30.325538635253906
 23
30.202470779418945
 33
3.580695152282715
  0
3DFACE
  8
0
 10
39.57709503173828
 20
33.764892578125
 30
26.835712432861328
 11
40.21289825439453
 21
33.764896392822266
 31
22.446054458618164
 12
42.44405746459961
 22
33.764896392822266
 32
22.76718521118164
 13
42.44405746459961
 23
33.764896392822266
 33
22.76718521118164
  0
3DFACE
  8
0
 10
39.57709503173828
 20
33.764892578125
 30
26.835712432861328
 11
42.44405746459961
 21
33.764896392822266
 31
22.76718521118164
 12
41.80825424194336
 22
33.764892578125
 32
27.156841278076172
 13
41.80825424194336
 23
33.764892578125
 33
27.156841278076172
  0
3DFACE
  8
0
 10
3.079629898071289
 20
35.22765350341797
 30
16.38072967529297
 11
4.326316833496094
 21
35.2276496887207
 31
25.446521759033203
 12
5.319828033447266
 22
35.22765350341797
 32
16.631629943847656
 13
5.319828033447266
 23
35.22765350341797
 33
16.631629943847656
  0
3DFACE
  8
0
 10
3.079629898071289
 20
35.22765350341797
 30
16.38072967529297
 11
3.079629898071289
 21
30.09528350830078
 31
16.38072967529297
 12
2.8216209411621094
 22
30.09528350830078
 32
18.669902801513672
 13
2.8216209411621094
 23
30.09528350830078
 33
18.669902801513672
  0
3DFACE
  8
0
 10
3.079629898071289
 20
35.22765350341797
 30
16.38072967529297
 11
2.8216209411621094
 21
30.09528350830078
 31
18.669902801513672
 12
2.8312511444091797
 22
34.11457824707031
 32
18.584453582763672
 13
2.8312511444091797
 23
34.11457824707031
 33
18.584453582763672
  0
3DFACE
  8
0
 10
2.344125747680664
 20
30.09528350830078
 30
22.906448364257812
 11
2.086118698120117
 21
30.09528350830078
 31
25.195621490478516
 12
2.086118698120117
 22
35.2276496887207
 32
25.195621490478516
 13
2.086118698120117
 23
35.2276496887207
 33
25.195621490478516
  0
3DFACE
  8
0
 10
3.079629898071289
 20
35.22765350341797
 30
16.38072967529297
 11
2.8312511444091797
 21
34.11457824707031
 31
18.584453582763672
 12
2.3344955444335938
 22
34.11457824707031
 32
22.991899490356445
 13
2.3344955444335938
 23
34.11457824707031
 33
22.991899490356445
  0
3DFACE
  8
0
 10
2.3344955444335938
 20
34.11457824707031
 30
22.991899490356445
 11
2.344125747680664
 21
30.09528350830078
 31
22.906448364257812
 12
2.086118698120117
 22
35.2276496887207
 32
25.195621490478516
 13
2.086118698120117
 23
35.2276496887207
 33
25.195621490478516
  0
3DFACE
  8
0
 10
3.079629898071289
 20
35.22765350341797
 30
16.38072967529297
 11
2.3344955444335938
 21
34.11457824707031
 31
22.991899490356445
 12
2.086118698120117
 22
35.2276496887207
 32
25.195621490478516
 13
2.086118698120117
 23
35.2276496887207
 33
25.195621490478516
  0
3DFACE
  8
0
 10
42.761959075927734
 20
34.877967834472656
 30
20.572357177734375
 11
41.49034881591797
 21
34.877967834472656
 31
29.35167121887207
 12
39.259193420410156
 22
34.877967834472656
 32
29.030540466308594
 13
39.259193420410156
 23
34.877967834472656
 33
29.030540466308594
  0
3DFACE
  8
0
 10
42.761959075927734
 20
34.877967834472656
 30
20.572357177734375
 11
39.259193420410156
 21
34.877967834472656
 31
29.030540466308594
 12
40.530799865722656
 22
34.877967834472656
 32
20.2512264251709
 13
40.530799865722656
 23
34.877967834472656
 33
20.2512264251709
  0
3DFACE
  8
0
 10
43.283843994140625
 20
5.230191230773926
 30
22.91301727294922
 11
43.119930267333984
 21
30.0487003326416
 31
19.19542694091797
 12
42.88050079345703
 22
5.230191707611084
 32
18.830720901489258
 13
42.88050079345703
 23
5.230191707611084
 33
18.830720901489258
  0
3DFACE
  8
0
 10
39.18738555908203
 20
7.014403820037842
 30
19.563011169433594
 11
39.18738555908203
 21
30.16042137145996
 31
19.563013076782227
 12
39.51837921142578
 22
30.167682647705078
 32
22.91301918029785
 13
39.51837921142578
 23
30.167682647705078
 33
22.91301918029785
  0
3DFACE
  8
0
 10
39.18738555908203
 20
7.014403820037842
 30
19.563011169433594
 11
39.51837921142578
 21
30.167682647705078
 31
22.91301918029785
 12
39.51837921142578
 22
7.014403343200684
 32
22.91301727294922
 13
39.51837921142578
 23
7.014403343200684
 33
22.91301727294922
  0
3DFACE
  8
0
 10
14.298434257507324
 20
30.127262115478516
 30
42.39205551147461
 11
15.700437545776367
 21
30.202468872070312
 31
38.777469635009766
 12
18.931894302368164
 22
30.202468872070312
 32
39.75463104248047
 13
18.931894302368164
 23
30.202468872070312
 33
39.75463104248047
  0
3DFACE
  8
0
 10
28.88455581665039
 20
30.202470779418945
 30
7.0485639572143555
 11
25.653099060058594
 21
30.202470779418945
 31
6.071404457092285
 12
26.387704849243164
 22
30.202470779418945
 32
2.3899335861206055
 13
26.387704849243164
 23
30.202470779418945
 33
2.3899335861206055
  0
3DFACE
  8
0
 10
41.49034881591797
 20
30.17127799987793
 30
29.351669311523438
 11
42.88050079345703
 21
30.167682647705078
 31
26.70720100402832
 12
41.820579528808594
 22
30.091493606567383
 32
27.071735382080078
 13
41.820579528808594
 23
30.091493606567383
 33
27.071735382080078
  0
3DFACE
  8
0
 10
39.51837921142578
 20
30.167682647705078
 30
22.91301918029785
 11
42.88050079345703
 21
30.167682647705078
 31
26.70720100402832
 12
43.2975959777832
 22
30.114952087402344
 32
23.299381256103516
 13
43.2975959777832
 23
30.114952087402344
 33
23.299381256103516
  0
3DFACE
  8
0
 10
5.066617965698242
 20
30.11756706237793
 30
22.91301918029785
 11
1.3197002410888672
 21
30.075136184692383
 31
22.496826171875
 12
1.7044925689697266
 22
30.167682647705078
 32
18.83072280883789
 13
1.7044925689697266
 23
30.167682647705078
 33
18.83072280883789
  0
3DFACE
  8
0
 10
5.066617965698242
 20
30.11756706237793
 30
22.91301918029785
 11
1.7044925689697266
 21
30.167682647705078
 31
18.83072280883789
 12
5.397609710693359
 22
30.11756706237793
 32
19.563013076782227
 13
5.397609710693359
 23
30.11756706237793
 33
19.563013076782227
  0
3DFACE
  8
0
 10
40.530799865722656
 20
34.877967834472656
 30
20.2512264251709
 11
40.530799865722656
 21
30.09042739868164
 31
20.2512264251709
 12
42.761959075927734
 22
30.09042739868164
 32
20.572355270385742
 13
42.761959075927734
 23
30.09042739868164
 33
20.572355270385742
  0
3DFACE
  8
0
 10
40.530799865722656
 20
34.877967834472656
 30
20.2512264251709
 11
42.761959075927734
 21
30.09042739868164
 31
20.572355270385742
 12
42.761959075927734
 22
34.877967834472656
 32
20.572357177734375
 13
42.761959075927734
 23
34.877967834472656
 33
20.572357177734375
  0
3DFACE
  8
0
 10
41.49034881591797
 20
30.17127799987793
 30
29.351669311523438
 11
39.259193420410156
 21
30.091493606567383
 31
29.030540466308594
 12
39.259193420410156
 22
34.877967834472656
 32
29.030540466308594
 13
39.259193420410156
 23
34.877967834472656
 33
29.030540466308594
  0
3DFACE
  8
0
 10
41.49034881591797
 20
30.17127799987793
 30
29.351669311523438
 11
39.259193420410156
 21
34.877967834472656
 31
29.030540466308594
 12
41.49034881591797
 22
34.877967834472656
 32
29.35167121887207
 13
41.49034881591797
 23
34.877967834472656
 33
29.35167121887207
  0
3DFACE
  8
0
 10
4.326316833496094
 20
30.111907958984375
 30
25.44651985168457
 11
2.086118698120117
 21
30.09528350830078
 31
25.195621490478516
 12
2.086118698120117
 22
35.2276496887207
 32
25.195621490478516
 13
2.086118698120117
 23
35.2276496887207
 33
25.195621490478516
  0
3DFACE
  8
0
 10
4.326316833496094
 20
30.111907958984375
 30
25.44651985168457
 11
2.086118698120117
 21
35.2276496887207
 31
25.195621490478516
 12
4.326316833496094
 22
35.2276496887207
 32
25.446521759033203
 13
4.326316833496094
 23
35.2276496887207
 33
25.446521759033203
  0
3DFACE
  8
0
 10
5.319828033447266
 20
30.09528350830078
 30
16.631629943847656
 11
3.079629898071289
 21
30.09528350830078
 31
16.38072967529297
 12
3.079629898071289
 22
35.22765350341797
 32
16.38072967529297
 13
3.079629898071289
 23
35.22765350341797
 33
16.38072967529297
  0
3DFACE
  8
0
 10
5.319828033447266
 20
30.09528350830078
 30
16.631629943847656
 11
3.079629898071289
 21
35.22765350341797
 31
16.38072967529297
 12
5.319828033447266
 22
35.22765350341797
 32
16.631629943847656
 13
5.319828033447266
 23
35.22765350341797
 33
16.631629943847656
  0
3DFACE
  8
0
 10
2.8312511444091797
 20
34.11457824707031
 30
18.584453582763672
 11
5.071451187133789
 21
34.11457824707031
 31
18.835351943969727
 12
5.071237564086914
 22
30.111907958984375
 32
18.837228775024414
 13
5.071237564086914
 23
30.111907958984375
 33
18.837228775024414
  0
3DFACE
  8
0
 10
2.8312511444091797
 20
34.11457824707031
 30
18.584453582763672
 11
5.071237564086914
 21
30.111907958984375
 31
18.837228775024414
 12
2.8216209411621094
 22
30.09528350830078
 32
18.669902801513672
 13
2.8216209411621094
 23
30.09528350830078
 33
18.669902801513672
  0
3DFACE
  8
0
 10
2.3344955444335938
 20
34.11457824707031
 30
22.991899490356445
 11
2.344125747680664
 21
30.09528350830078
 31
22.906448364257812
 12
4.584325790405273
 22
30.09528350830078
 32
23.1573486328125
 13
4.584325790405273
 23
30.09528350830078
 33
23.1573486328125
  0
3DFACE
  8
0
 10
2.3344955444335938
 20
34.11457824707031
 30
22.991899490356445
 11
4.584325790405273
 21
30.09528350830078
 31
23.1573486328125
 12
4.574695587158203
 22
34.11457443237305
 32
23.2427978515625
 13
4.574695587158203
 23
34.11457443237305
 33
23.2427978515625
  0
3DFACE
  8
0
 10
4.574695587158203
 20
34.11457443237305
 30
23.2427978515625
 11
5.071451187133789
 21
34.11457824707031
 31
18.835351943969727
 12
2.8312511444091797
 22
34.11457824707031
 32
18.584453582763672
 13
2.8312511444091797
 23
34.11457824707031
 33
18.584453582763672
  0
3DFACE
  8
0
 10
4.574695587158203
 20
34.11457443237305
 30
23.2427978515625
 11
2.8312511444091797
 21
34.11457824707031
 31
18.584453582763672
 12
2.3344955444335938
 22
34.11457824707031
 32
22.991899490356445
 13
2.3344955444335938
 23
34.11457824707031
 33
22.991899490356445
  0
3DFACE
  8
0
 10
42.44378662109375
 20
30.114315032958984
 30
22.769052505493164
 11
40.21289825439453
 21
33.764896392822266
 31
22.446054458618164
 12
40.2005729675293
 22
30.097688674926758
 32
22.531160354614258
 13
40.2005729675293
 23
30.097688674926758
 33
22.531160354614258
  0
3DFACE
  8
0
 10
39.57709503173828
 20
33.764892578125
 30
26.835712432861328
 11
41.80825424194336
 21
33.764892578125
 31
27.156841278076172
 12
41.820579528808594
 22
30.091493606567383
 32
27.071735382080078
 13
41.820579528808594
 23
30.091493606567383
 33
27.071735382080078
  0
3DFACE
  8
0
 10
39.57709503173828
 20
33.764892578125
 30
26.835712432861328
 11
41.820579528808594
 21
30.091493606567383
 31
27.071735382080078
 12
39.58942413330078
 22
30.091493606567383
 32
26.750606536865234
 13
39.58942413330078
 23
30.091493606567383
 33
26.750606536865234
  0
3DFACE
  8
0
 10
5.397609710693359
 20
30.117565155029297
 30
26.263023376464844
 11
4.326316833496094
 21
30.111907958984375
 31
25.44651985168457
 12
4.584325790405273
 22
30.09528350830078
 32
23.1573486328125
 13
4.584325790405273
 23
30.09528350830078
 33
23.1573486328125
  0
3DFACE
  8
0
 10
5.397609710693359
 20
30.117565155029297
 30
26.263023376464844
 11
4.584325790405273
 21
30.09528350830078
 31
23.1573486328125
 12
5.066617965698242
 22
30.11756706237793
 32
22.91301918029785
 13
5.066617965698242
 23
30.11756706237793
 33
22.91301918029785
  0
3DFACE
  8
0
 10
42.44405746459961
 20
33.764896392822266
 30
22.76718521118164
 11
42.761959075927734
 21
34.877967834472656
 31
20.572357177734375
 12
41.49034881591797
 22
34.877967834472656
 32
29.35167121887207
 13
41.49034881591797
 23
34.877967834472656
 33
29.35167121887207
  0
3DFACE
  8
0
 10
40.21289825439453
 20
33.764896392822266
 30
22.446054458618164
 11
40.2005729675293
 21
30.097688674926758
 31
22.531160354614258
 12
40.530799865722656
 22
30.09042739868164
 32
20.2512264251709
 13
40.530799865722656
 23
30.09042739868164
 33
20.2512264251709
  0
3DFACE
  8
0
 10
39.259193420410156
 20
34.877967834472656
 30
29.030540466308594
 11
39.259193420410156
 21
30.091493606567383
 31
29.030540466308594
 12
39.58942413330078
 22
30.091493606567383
 32
26.750606536865234
 13
39.58942413330078
 23
30.091493606567383
 33
26.750606536865234
  0
3DFACE
  8
0
 10
39.259193420410156
 20
34.877967834472656
 30
29.030540466308594
 11
39.58942413330078
 21
30.091493606567383
 31
26.750606536865234
 12
39.57709503173828
 22
33.764892578125
 32
26.835712432861328
 13
39.57709503173828
 23
33.764892578125
 33
26.835712432861328
  0
3DFACE
  8
0
 10
40.21289825439453
 20
33.764896392822266
 30
22.446054458618164
 11
40.530799865722656
 21
30.09042739868164
 31
20.2512264251709
 12
40.530799865722656
 22
34.877967834472656
 32
20.2512264251709
 13
40.530799865722656
 23
34.877967834472656
 33
20.2512264251709
  0
3DFACE
  8
0
 10
39.259193420410156
 20
34.877967834472656
 30
29.030540466308594
 11
39.57709503173828
 21
33.764892578125
 31
26.835712432861328
 12
40.21289825439453
 22
33.764896392822266
 32
22.446054458618164
 13
40.21289825439453
 23
33.764896392822266
 33
22.446054458618164
  0
3DFACE
  8
0
 10
40.530799865722656
 20
34.877967834472656
 30
20.2512264251709
 11
39.259193420410156
 21
34.877967834472656
 31
29.030540466308594
 12
40.21289825439453
 22
33.764896392822266
 32
22.446054458618164
 13
40.21289825439453
 23
33.764896392822266
 33
22.446054458618164
  0
3DFACE
  8
0
 10
4.574695587158203
 20
34.11457443237305
 30
23.2427978515625
 11
4.584325790405273
 21
30.09528350830078
 31
23.1573486328125
 12
4.326316833496094
 22
30.111907958984375
 32
25.44651985168457
 13
4.326316833496094
 23
30.111907958984375
 33
25.44651985168457
  0
3DFACE
  8
0
 10
5.319828033447266
 20
35.22765350341797
 30
16.631629943847656
 11
5.319828033447266
 21
30.09528350830078
 31
16.631629943847656
 12
5.071237564086914
 22
30.111907958984375
 32
18.837228775024414
 13
5.071237564086914
 23
30.111907958984375
 33
18.837228775024414
  0
3DFACE
  8
0
 10
5.319828033447266
 20
35.22765350341797
 30
16.631629943847656
 11
5.071237564086914
 21
30.111907958984375
 31
18.837228775024414
 12
5.071451187133789
 22
34.11457824707031
 32
18.835351943969727
 13
5.071451187133789
 23
34.11457824707031
 33
18.835351943969727
  0
3DFACE
  8
0
 10
4.574695587158203
 20
34.11457443237305
 30
23.2427978515625
 11
4.326316833496094
 21
30.111907958984375
 31
25.44651985168457
 12
4.326316833496094
 22
35.2276496887207
 32
25.446521759033203
 13
4.326316833496094
 23
35.2276496887207
 33
25.446521759033203
  0
3DFACE
  8
0
 10
5.319828033447266
 20
35.22765350341797
 30
16.631629943847656
 11
5.071451187133789
 21
34.11457824707031
 31
18.835351943969727
 12
4.574695587158203
 22
34.11457443237305
 32
23.2427978515625
 13
4.574695587158203
 23
34.11457443237305
 33
23.2427978515625
  0
3DFACE
  8
0
 10
4.326316833496094
 20
35.2276496887207
 30
25.446521759033203
 11
5.319828033447266
 21
35.22765350341797
 31
16.631629943847656
 12
4.574695587158203
 22
34.11457443237305
 32
23.2427978515625
 13
4.574695587158203
 23
34.11457443237305
 33
23.2427978515625
  0
3DFACE
  8
0
 10
14.258889198303223
 20
5.227728366851807
 30
3.579291343688965
 11
18.197216033935547
 21
5.227695941925049
 31
2.3884401321411133
 12
10.629496574401855
 22
5.227724552154541
 32
40.312904357910156
 13
10.629496574401855
 23
5.227724552154541
 33
40.312904357910156
  0
3DFACE
  8
0
 10
39.185916900634766
 20
7.016866207122803
 30
19.563310623168945
 11
38.205753326416016
 21
7.016866207122803
 31
16.342330932617188
 12
38.205753326416016
 22
7.016865253448486
 32
29.483701705932617
 13
38.205753326416016
 23
7.016865253448486
 33
29.483701705932617
  0
3DFACE
  8
0
 10
33.955291748046875
 20
30.20496940612793
 30
5.513033866882324
 11
37.13667297363281
 21
30.204936981201172
 31
8.115622520446777
 12
37.13667297363281
 22
5.227727890014648
 32
8.115618705749512
 13
37.13667297363281
 23
5.227727890014648
 33
8.115618705749512
  0
3DFACE
  8
0
 10
33.955291748046875
 20
30.20496940612793
 30
5.513033866882324
 11
37.13667297363281
 21
5.227727890014648
 31
8.115618705749512
 12
33.955291748046875
 22
5.227695941925049
 32
5.513030052185059
 13
33.955291748046875
 23
5.227695941925049
 33
5.513030052185059
  0
3DFACE
  8
0
 10
39.747406005859375
 20
30.186399459838867
 30
11.28677749633789
 11
37.13667297363281
 21
5.227727890014648
 31
8.115618705749512
 12
37.13667297363281
 22
30.204936981201172
 32
8.115622520446777
 13
37.13667297363281
 23
30.204936981201172
 33
8.115622520446777
  0
3DFACE
  8
0
 10
39.747406005859375
 20
30.186399459838867
 30
11.28677749633789
 11
41.687347412109375
 21
5.22772741317749
 31
14.90471076965332
 12
39.747406005859375
 22
5.227729797363281
 32
11.286772727966309
 13
39.747406005859375
 23
5.227729797363281
 33
11.286772727966309
  0
3DFACE
  8
0
 10
18.197216033935547
 20
30.20496940612793
 30
2.388442039489746
 11
18.197216033935547
 21
5.227695941925049
 31
2.3884401321411133
 12
14.258889198303223
 22
5.227728366851807
 32
3.579291343688965
 13
14.258889198303223
 23
5.227728366851807
 33
3.579291343688965
  0
3DFACE
  8
0
 10
18.197216033935547
 20
30.20496940612793
 30
2.388442039489746
 11
14.258889198303223
 21
5.227728366851807
 31
3.579291343688965
 12
14.258889198303223
 22
30.204936981201172
 32
3.5792951583862305
 13
14.258889198303223
 23
30.204936981201172
 33
3.5792951583862305
  0
3DFACE
  8
0
 10
14.258889198303223
 20
30.204936981201172
 30
3.5792951583862305
 11
14.258889198303223
 21
5.227728366851807
 31
3.579291343688965
 12
10.629504203796387
 22
5.227728366851807
 32
5.513121604919434
 13
10.629504203796387
 23
5.227728366851807
 33
5.513121604919434
  0
3DFACE
  8
0
 10
14.258889198303223
 20
30.204936981201172
 30
3.5792951583862305
 11
10.629504203796387
 21
5.227728366851807
 31
5.513121604919434
 12
10.629504203796387
 22
30.204936981201172
 32
5.513125419616699
 13
10.629504203796387
 23
30.204936981201172
 33
5.513125419616699
  0
3DFACE
  8
0
 10
10.629504203796387
 20
30.204936981201172
 30
5.513125419616699
 11
10.629504203796387
 21
5.227728366851807
 31
5.513121604919434
 12
7.448321342468262
 22
5.227727890014648
 32
8.115618705749512
 13
7.448321342468262
 23
5.227727890014648
 33
8.115618705749512
  0
3DFACE
  8
0
 10
10.629504203796387
 20
30.204936981201172
 30
5.513125419616699
 11
7.448321342468262
 21
5.227727890014648
 31
8.115618705749512
 12
7.448321342468262
 22
30.204936981201172
 32
8.115622520446777
 13
7.448321342468262
 23
30.204936981201172
 33
8.115622520446777
  0
3DFACE
  8
0
 10
7.448321342468262
 20
30.204936981201172
 30
8.115622520446777
 11
7.448321342468262
 21
5.227727890014648
 31
8.115618705749512
 12
4.837591171264648
 22
5.227729797363281
 32
11.286772727966309
 13
4.837591171264648
 23
5.227729797363281
 33
11.286772727966309
  0
3DFACE
  8
0
 10
7.448321342468262
 20
30.204936981201172
 30
8.115622520446777
 11
4.837591171264648
 21
5.227729797363281
 31
11.286772727966309
 12
4.837591171264648
 22
30.186405181884766
 32
11.28677749633789
 13
4.837591171264648
 23
30.186405181884766
 33
11.28677749633789
  0
3DFACE
  8
0
 10
4.837591171264648
 20
30.186405181884766
 30
11.28677749633789
 11
4.837591171264648
 21
5.227729797363281
 31
11.286772727966309
 12
2.8976402282714844
 22
5.227729320526123
 32
14.904720306396484
 13
2.8976402282714844
 23
5.227729320526123
 33
14.904720306396484
  0
3DFACE
  8
0
 10
4.837591171264648
 20
30.186405181884766
 30
11.28677749633789
 11
2.8976402282714844
 21
5.227729320526123
 31
14.904720306396484
 12
2.8976402282714844
 22
30.136287689208984
 32
14.904728889465332
 13
2.8976402282714844
 23
30.136287689208984
 33
14.904728889465332
  0
3DFACE
  8
0
 10
15.70100212097168
 20
30.204931259155273
 30
7.0499677658081055
 11
12.723133087158203
 21
7.016868591308594
 31
8.636651039123535
 12
15.70100212097168
 22
7.016869068145752
 32
7.04996395111084
 13
15.70100212097168
 23
7.016869068145752
 33
7.04996395111084
  0
3DFACE
  8
0
 10
10.11301040649414
 20
30.186397552490234
 30
10.771971702575684
 11
12.723133087158203
 21
7.016868591308594
 31
8.636651039123535
 12
12.723133087158203
 22
30.204933166503906
 32
8.636652946472168
 13
12.723133087158203
 23
30.204933166503906
 33
8.636652946472168
  0
3DFACE
  8
0
 10
10.11301040649414
 20
30.186397552490234
 30
10.771971702575684
 11
7.970940589904785
 21
7.016866683959961
 31
13.373858451843262
 12
10.11301040649414
 22
7.016867637634277
 32
10.771966934204102
 13
10.11301040649414
 23
7.016867637634277
 33
10.771966934204102
  0
3DFACE
  8
0
 10
15.70100212097168
 20
7.016869068145752
 30
7.04996395111084
 11
18.93218231201172
 21
30.204931259155273
 31
6.072890281677246
 12
15.70100212097168
 22
30.204931259155273
 32
7.0499677658081055
 13
15.70100212097168
 23
30.204931259155273
 33
7.0499677658081055
  0
3DFACE
  8
0
 10
18.93218231201172
 20
7.016869068145752
 30
6.072888374328613
 11
22.292497634887695
 21
30.204933166503906
 31
5.742972373962402
 12
18.93218231201172
 22
30.204931259155273
 32
6.072890281677246
 13
18.93218231201172
 23
30.204931259155273
 33
6.072890281677246
  0
3DFACE
  8
0
 10
22.292495727539062
 20
7.016869068145752
 30
5.742968559265137
 11
25.65281105041504
 21
30.204933166503906
 31
6.072890281677246
 12
22.292497634887695
 22
30.204933166503906
 32
5.742972373962402
 13
22.292497634887695
 23
30.204933166503906
 33
5.742972373962402
  0
3DFACE
  8
0
 10
25.65281105041504
 20
30.204933166503906
 30
6.072890281677246
 11
28.883989334106445
 21
7.016869068145752
 31
7.04996395111084
 12
28.883991241455078
 22
30.204933166503906
 32
7.0499677658081055
 13
28.883991241455078
 23
30.204933166503906
 33
7.0499677658081055
  0
3DFACE
  8
0
 10
28.883991241455078
 20
30.204933166503906
 30
7.0499677658081055
 11
31.861858367919922
 21
7.016868591308594
 31
8.636651039123535
 12
31.861862182617188
 22
30.20493507385254
 32
8.6366548538208
 13
31.861862182617188
 23
30.20493507385254
 33
8.6366548538208
  0
3DFACE
  8
0
 10
31.861858367919922
 20
7.016868591308594
 30
8.636651039123535
 11
34.471981048583984
 21
30.186399459838867
 31
10.771971702575684
 12
31.861862182617188
 22
30.20493507385254
 32
8.6366548538208
 13
31.861862182617188
 23
30.20493507385254
 33
8.6366548538208
  0
3DFACE
  8
0
 10
34.471981048583984
 20
30.186399459838867
 30
10.771971702575684
 11
34.471981048583984
 21
7.016867637634277
 31
10.771966934204102
 12
36.614051818847656
 22
7.016866683959961
 32
13.373858451843262
 13
36.614051818847656
 23
7.016866683959961
 33
13.373858451843262
  0
3DFACE
  8
0
 10
34.471981048583984
 20
30.186399459838867
 30
10.771971702575684
 11
36.614051818847656
 21
7.016866683959961
 31
13.373858451843262
 12
36.614051818847656
 22
30.186399459838867
 32
13.373862266540527
 13
36.614051818847656
 23
30.186399459838867
 33
13.373862266540527
  0
3DFACE
  8
0
 10
42.76146697998047
 20
30.100107192993164
 30
20.57163429260254
 11
43.29964828491211
 21
30.114803314208984
 31
23.299413681030273
 12
43.121429443359375
 22
30.058368682861328
 32
19.19513511657715
 13
43.121429443359375
 23
30.058368682861328
 33
19.19513511657715
  0
3DFACE
  8
0
 10
42.443267822265625
 20
30.116701126098633
 30
22.76828956604004
 11
39.516326904296875
 21
30.167917251586914
 31
22.913007736206055
 12
43.29964828491211
 22
30.114803314208984
 32
23.299413681030273
 13
43.29964828491211
 23
30.114803314208984
 33
23.299413681030273
  0
3DFACE
  8
0
 10
40.20008850097656
 20
30.1000919342041
 30
22.53041648864746
 11
39.18601989746094
 21
30.17032241821289
 31
19.563297271728516
 12
39.516326904296875
 22
30.167917251586914
 32
22.913007736206055
 13
39.516326904296875
 23
30.167917251586914
 33
22.913007736206055
  0
3DFACE
  8
0
 10
1.7030410766601562
 20
30.17017364501953
 30
18.83042335510254
 11
3.0802154541015625
 21
30.097665786743164
 31
16.381437301635742
 12
2.8976402282714844
 22
30.136287689208984
 32
14.904728889465332
 13
2.8976402282714844
 23
30.136287689208984
 33
14.904728889465332
  0
3DFACE
  8
0
 10
2.8976402282714844
 20
30.136287689208984
 30
14.904728889465332
 11
2.8976402282714844
 21
5.227729320526123
 31
14.904720306396484
 12
1.7030258178710938
 22
5.227729320526123
 32
18.830419540405273
 13
1.7030258178710938
 23
5.227729320526123
 33
18.830419540405273
  0
3DFACE
  8
0
 10
2.8976402282714844
 20
30.136287689208984
 30
14.904728889465332
 11
1.7030258178710938
 21
5.227729320526123
 31
18.830419540405273
 12
1.7030410766601562
 22
30.17017364501953
 32
18.83042335510254
 13
1.7030410766601562
 23
30.17017364501953
 33
18.83042335510254
  0
3DFACE
  8
0
 10
1.7030410766601562
 20
30.17017364501953
 30
18.83042335510254
 11
1.7030258178710938
 21
5.227729320526123
 31
18.830419540405273
 12
1.2996501922607422
 22
5.227729797363281
 32
22.91301155090332
 13
1.2996501922607422
 23
5.227729797363281
 33
22.91301155090332
  0
3DFACE
  8
0
 10
1.7030410766601562
 20
30.17017364501953
 30
18.83042335510254
 11
1.2996501922607422
 21
5.227729797363281
 31
22.91301155090332
 12
1.317647933959961
 22
30.075363159179688
 32
22.496826171875
 13
1.317647933959961
 23
30.075363159179688
 33
22.496826171875
  0
3DFACE
  8
0
 10
1.317647933959961
 20
30.075363159179688
 30
22.496826171875
 11
1.2996501922607422
 21
5.227729797363281
 31
22.91301155090332
 12
1.7030220031738281
 22
5.227729320526123
 32
26.995607376098633
 13
1.7030220031738281
 23
5.227729320526123
 33
26.995607376098633
  0
3DFACE
  8
0
 10
1.317647933959961
 20
30.075363159179688
 30
22.496826171875
 11
1.7030220031738281
 21
5.227729320526123
 31
26.995607376098633
 12
1.7024784088134766
 22
30.167688369750977
 32
26.9957332611084
 13
1.7024784088134766
 23
30.167688369750977
 33
26.9957332611084
  0
3DFACE
  8
0
 10
1.7024784088134766
 20
30.167688369750977
 30
26.9957332611084
 11
1.7030220031738281
 21
5.227729320526123
 31
26.995607376098633
 12
2.8976402282714844
 22
5.227728366851807
 32
30.921314239501953
 13
2.8976402282714844
 23
5.227728366851807
 33
30.921314239501953
  0
3DFACE
  8
0
 10
1.7024784088134766
 20
30.167688369750977
 30
26.9957332611084
 11
2.8976402282714844
 21
5.227728366851807
 31
30.921314239501953
 12
2.897642135620117
 22
30.186399459838867
 32
30.92131805419922
 13
2.897642135620117
 23
30.186399459838867
 33
30.92131805419922
  0
3DFACE
  8
0
 10
2.897642135620117
 20
30.186399459838867
 30
30.92131805419922
 11
2.8976402282714844
 21
5.227728366851807
 31
30.921314239501953
 12
4.837591171264648
 22
5.227727890014648
 32
34.53926086425781
 13
4.837591171264648
 23
5.227727890014648
 33
34.53926086425781
  0
3DFACE
  8
0
 10
2.897642135620117
 20
30.186399459838867
 30
30.92131805419922
 11
4.837591171264648
 21
5.227727890014648
 31
34.53926086425781
 12
4.837591171264648
 22
30.1863956451416
 32
34.53926467895508
 13
4.837591171264648
 23
30.1863956451416
 33
34.53926467895508
  0
3DFACE
  8
0
 10
4.837591171264648
 20
30.1863956451416
 30
34.53926467895508
 11
4.837591171264648
 21
5.227727890014648
 31
34.53926086425781
 12
7.448321342468262
 22
5.227725982666016
 32
37.71041488647461
 13
7.448321342468262
 23
5.227725982666016
 33
37.71041488647461
  0
3DFACE
  8
0
 10
4.837591171264648
 20
30.1863956451416
 30
34.53926467895508
 11
7.448321342468262
 21
5.227725982666016
 31
37.71041488647461
 12
7.448322296142578
 22
30.204931259155273
 32
37.71041488647461
 13
7.448322296142578
 23
30.204931259155273
 33
37.71041488647461
  0
3DFACE
  8
0
 10
7.448322296142578
 20
30.204931259155273
 30
37.71041488647461
 11
7.448321342468262
 21
5.227725982666016
 31
37.71041488647461
 12
10.629496574401855
 22
5.227724552154541
 32
40.312904357910156
 13
10.629496574401855
 23
5.227724552154541
 33
40.312904357910156
  0
3DFACE
  8
0
 10
7.448322296142578
 20
30.204931259155273
 30
37.71041488647461
 11
10.629496574401855
 21
5.227724552154541
 31
40.312904357910156
 12
10.629499435424805
 22
30.204940795898438
 32
40.31290054321289
 13
10.629499435424805
 23
30.204940795898438
 33
40.31290054321289
  0
3DFACE
  8
0
 10
10.629496574401855
 20
5.227724552154541
 30
40.312904357910156
 11
14.29785442352295
 21
30.129701614379883
 31
42.393463134765625
 12
10.629499435424805
 22
30.204940795898438
 32
40.31290054321289
 13
10.629499435424805
 23
30.204940795898438
 33
40.31290054321289
  0
3DFACE
  8
0
 10
14.29785442352295
 20
30.129701614379883
 30
42.393463134765625
 11
18.19700050354004
 21
5.227713108062744
 31
43.43758010864258
 12
18.235977172851562
 22
30.12971305847168
 32
43.58430862426758
 13
18.235977172851562
 23
30.12971305847168
 33
43.58430862426758
  0
3DFACE
  8
0
 10
18.235977172851562
 20
30.12971305847168
 30
43.58430862426758
 11
22.292509078979492
 21
5.227715015411377
 31
43.83967971801758
 12
22.33148956298828
 22
30.129695892333984
 32
43.98641586303711
 13
22.33148956298828
 23
30.129695892333984
 33
43.98641586303711
  0
3DFACE
  8
0
 10
22.33148956298828
 20
30.129695892333984
 30
43.98641586303711
 11
26.38800621032715
 21
5.227723598480225
 31
43.43758010864258
 12
26.388004302978516
 22
30.204944610595703
 32
43.43757629394531
 13
26.388004302978516
 23
30.204944610595703
 33
43.43757629394531
  0
3DFACE
  8
0
 10
26.38800621032715
 20
5.227723598480225
 30
43.43758010864258
 11
30.32610321044922
 21
30.204931259155273
 31
42.246742248535156
 12
26.388004302978516
 22
30.204944610595703
 32
43.43757629394531
 13
26.388004302978516
 23
30.204944610595703
 33
43.43757629394531
  0
3DFACE
  8
0
 10
30.32610321044922
 20
5.227725505828857
 30
42.24673843383789
 11
33.95548629760742
 21
30.204931259155273
 31
40.31291580200195
 12
30.32610321044922
 22
30.204931259155273
 32
42.246742248535156
 13
30.32610321044922
 23
30.204931259155273
 33
42.246742248535156
  0
3DFACE
  8
0
 10
33.95548629760742
 20
5.227725505828857
 30
40.31291198730469
 11
37.13667297363281
 21
30.204931259155273
 31
37.71041488647461
 12
33.95548629760742
 22
30.204931259155273
 32
40.31291580200195
 13
33.95548629760742
 23
30.204931259155273
 33
40.31291580200195
  0
3DFACE
  8
0
 10
37.13667297363281
 20
5.227725982666016
 30
37.71041488647461
 11
39.747406005859375
 21
30.186397552490234
 31
34.53926467895508
 12
37.13667297363281
 22
30.204931259155273
 32
37.71041488647461
 13
37.13667297363281
 23
30.204931259155273
 33
37.71041488647461
  0
3DFACE
  8
0
 10
39.747406005859375
 20
5.227727890014648
 30
34.53926086425781
 11
41.6878662109375
 21
30.183940887451172
 31
30.921539306640625
 12
39.747406005859375
 22
30.186397552490234
 32
34.53926467895508
 13
39.747406005859375
 23
30.186397552490234
 33
34.53926467895508
  0
3DFACE
  8
0
 10
41.6878662109375
 20
30.183940887451172
 30
30.921539306640625
 11
42.8819694519043
 21
5.227731227874756
 31
26.995615005493164
 12
42.881961822509766
 22
30.165203094482422
 32
26.707487106323242
 13
42.881961822509766
 23
30.165203094482422
 33
26.707487106323242
  0
3DFACE
  8
0
 10
42.8819694519043
 20
5.227731227874756
 30
26.995615005493164
 11
43.29964828491211
 21
30.114803314208984
 31
23.299413681030273
 12
42.881961822509766
 22
30.165203094482422
 32
26.707487106323242
 13
42.881961822509766
 23
30.165203094482422
 33
26.707487106323242
  0
3DFACE
  8
0
 10
42.88196563720703
 20
5.227719783782959
 30
18.83043098449707
 11
41.687339782714844
 21
30.18641471862793
 31
14.904717445373535
 12
43.121429443359375
 22
30.058368682861328
 32
19.19513511657715
 13
43.121429443359375
 23
30.058368682861328
 33
19.19513511657715
  0
3DFACE
  8
0
 10
39.58869171142578
 20
30.089067459106445
 30
26.751039505004883
 11
38.205230712890625
 21
30.167707443237305
 31
29.483497619628906
 12
39.185997009277344
 22
30.16508674621582
 32
26.262710571289062
 13
39.185997009277344
 23
30.16508674621582
 33
26.262710571289062
  0
3DFACE
  8
0
 10
41.6878662109375
 20
30.183940887451172
 30
30.921539306640625
 11
39.258453369140625
 21
30.089101791381836
 31
29.031064987182617
 12
41.48965835571289
 22
30.168880462646484
 32
29.352237701416016
 13
41.48965835571289
 23
30.168880462646484
 33
29.352237701416016
  0
3DFACE
  8
0
 10
38.205753326416016
 20
7.016865253448486
 30
29.483701705932617
 11
39.185997009277344
 21
30.16508674621582
 31
26.262710571289062
 12
39.185916900634766
 22
7.016865253448486
 32
26.26272201538086
 13
39.185916900634766
 23
7.016865253448486
 33
26.26272201538086
  0
3DFACE
  8
0
 10
1.317647933959961
 20
30.075363159179688
 30
22.496826171875
 11
2.086650848388672
 21
30.092878341674805
 31
25.196331024169922
 12
1.7024784088134766
 22
30.167688369750977
 32
26.9957332611084
 13
1.7024784088134766
 23
30.167688369750977
 33
26.9957332611084
  0
3DFACE
  8
0
 10
1.7024784088134766
 20
30.167688369750977
 30
26.9957332611084
 11
4.327547073364258
 21
30.111328125
 31
25.448123931884766
 12
5.399389266967773
 22
30.119251251220703
 32
26.262666702270508
 13
5.399389266967773
 23
30.119251251220703
 33
26.262666702270508
  0
3DFACE
  8
0
 10
41.819915771484375
 20
30.08904266357422
 30
27.072187423706055
 11
39.185997009277344
 21
30.16508674621582
 31
26.262710571289062
 12
42.881961822509766
 22
30.165203094482422
 32
26.707487106323242
 13
42.881961822509766
 23
30.165203094482422
 33
26.707487106323242
  0
3DFACE
  8
0
 10
2.8976402282714844
 20
30.136287689208984
 30
14.904728889465332
 11
5.320365905761719
 21
30.097686767578125
 31
16.63233757019043
 12
6.379156112670898
 22
30.12018585205078
 32
16.342304229736328
 13
6.379156112670898
 23
30.12018585205078
 33
16.342304229736328
  0
3DFACE
  8
0
 10
5.071802139282227
 20
30.114316940307617
 30
18.83789825439453
 11
5.889122009277344
 21
30.120113372802734
 31
17.952808380126953
 12
5.320365905761719
 22
30.097686767578125
 32
16.63233757019043
 13
5.320365905761719
 23
30.097686767578125
 33
16.63233757019043
  0
3DFACE
  8
0
 10
5.889122009277344
 20
30.120113372802734
 30
17.952808380126953
 11
5.399076461791992
 21
7.016866207122803
 31
19.563310623168945
 12
6.379240989685059
 22
7.016866207122803
 32
16.342330932617188
 13
6.379240989685059
 23
7.016866207122803
 33
16.342330932617188
  0
3DFACE
  8
0
 10
5.06829833984375
 20
30.119632720947266
 30
22.91302490234375
 11
5.399076461791992
 21
7.016866207122803
 31
19.563310623168945
 12
5.39898681640625
 22
30.120189666748047
 32
19.563283920288086
 13
5.39898681640625
 23
30.120189666748047
 33
19.563283920288086
  0
3DFACE
  8
0
 10
5.399389266967773
 20
30.119251251220703
 30
26.262666702270508
 11
5.068113327026367
 21
7.016864776611328
 31
22.91301727294922
 12
5.06829833984375
 22
30.119632720947266
 32
22.91302490234375
 13
5.06829833984375
 23
30.119632720947266
 33
22.91302490234375
  0
3DFACE
  8
0
 10
5.399389266967773
 20
30.119251251220703
 30
26.262666702270508
 11
6.379240989685059
 21
7.016865253448486
 31
29.483701705932617
 12
5.399076461791992
 22
7.016865253448486
 32
26.26272201538086
 13
5.399076461791992
 23
7.016865253448486
 33
26.26272201538086
  0
3DFACE
  8
0
 10
6.379239082336426
 20
30.170146942138672
 30
29.483705520629883
 11
7.970940589904785
 21
7.016865253448486
 31
32.45217514038086
 12
6.379240989685059
 22
7.016865253448486
 32
29.483701705932617
 13
6.379240989685059
 23
7.016865253448486
 33
29.483701705932617
  0
3DFACE
  8
0
 10
10.11301040649414
 20
30.1864013671875
 30
35.05406951904297
 11
7.970940589904785
 21
7.016865253448486
 31
32.45217514038086
 12
7.970940589904785
 22
30.1864013671875
 32
32.452178955078125
 13
7.970940589904785
 23
30.1864013671875
 33
32.452178955078125
  0
3DFACE
  8
0
 10
10.11301040649414
 20
30.1864013671875
 30
35.05406951904297
 11
12.723133087158203
 21
7.016866683959961
 31
37.18938064575195
 12
10.11301040649414
 22
7.0168657302856445
 32
35.0540657043457
 13
10.11301040649414
 23
7.0168657302856445
 33
35.0540657043457
  0
3DFACE
  8
0
 10
12.723133087158203
 20
30.20493507385254
 30
37.18938446044922
 11
15.70100212097168
 21
30.204933166503906
 31
38.77607345581055
 12
15.70100212097168
 22
7.016866683959961
 32
38.77606964111328
 13
15.70100212097168
 23
7.016866683959961
 33
38.77606964111328
  0
3DFACE
  8
0
 10
12.723133087158203
 20
30.20493507385254
 30
37.18938446044922
 11
15.70100212097168
 21
7.016866683959961
 31
38.77606964111328
 12
12.723133087158203
 22
7.016866683959961
 32
37.18938064575195
 13
12.723133087158203
 23
7.016866683959961
 33
37.18938064575195
  0
3DFACE
  8
0
 10
15.70100212097168
 20
30.204933166503906
 30
38.77607345581055
 11
18.93218231201172
 21
30.20493507385254
 31
39.75314712524414
 12
18.93218231201172
 22
7.016866207122803
 32
39.753143310546875
 13
18.93218231201172
 23
7.016866207122803
 33
39.753143310546875
  0
3DFACE
  8
0
 10
15.70100212097168
 20
30.204933166503906
 30
38.77607345581055
 11
18.93218231201172
 21
7.016866207122803
 31
39.753143310546875
 12
15.70100212097168
 22
7.016866683959961
 32
38.77606964111328
 13
15.70100212097168
 23
7.016866683959961
 33
38.77606964111328
  0
3DFACE
  8
0
 10
18.93218231201172
 20
30.20493507385254
 30
39.75314712524414
 11
22.292495727539062
 21
30.20493507385254
 31
40.083065032958984
 12
22.292495727539062
 22
7.016866207122803
 32
40.08306121826172
 13
22.292495727539062
 23
7.016866207122803
 33
40.08306121826172
  0
3DFACE
  8
0
 10
18.93218231201172
 20
30.20493507385254
 30
39.75314712524414
 11
22.292495727539062
 21
7.016866207122803
 31
40.08306121826172
 12
18.93218231201172
 22
7.016866207122803
 32
39.753143310546875
 13
18.93218231201172
 23
7.016866207122803
 33
39.753143310546875
  0
3DFACE
  8
0
 10
22.292495727539062
 20
30.20493507385254
 30
40.083065032958984
 11
25.652809143066406
 21
30.204933166503906
 31
39.75314712524414
 12
25.65281105041504
 22
7.016866207122803
 32
39.753143310546875
 13
25.65281105041504
 23
7.016866207122803
 33
39.753143310546875
  0
3DFACE
  8
0
 10
22.292495727539062
 20
30.20493507385254
 30
40.083065032958984
 11
25.65281105041504
 21
7.016866207122803
 31
39.753143310546875
 12
22.292495727539062
 22
7.016866207122803
 32
40.08306121826172
 13
22.292495727539062
 23
7.016866207122803
 33
40.08306121826172
  0
3DFACE
  8
0
 10
25.652809143066406
 20
30.204933166503906
 30
39.75314712524414
 11
28.883987426757812
 21
30.204933166503906
 31
38.77607345581055
 12
28.883989334106445
 22
7.016866683959961
 32
38.77606964111328
 13
28.883989334106445
 23
7.016866683959961
 33
38.77606964111328
  0
3DFACE
  8
0
 10
25.652809143066406
 20
30.204933166503906
 30
39.75314712524414
 11
28.883989334106445
 21
7.016866683959961
 31
38.77606964111328
 12
25.65281105041504
 22
7.016866207122803
 32
39.753143310546875
 13
25.65281105041504
 23
7.016866207122803
 33
39.753143310546875
  0
3DFACE
  8
0
 10
28.883987426757812
 20
30.204933166503906
 30
38.77607345581055
 11
31.861858367919922
 21
30.20493507385254
 31
37.18938446044922
 12
31.861858367919922
 22
7.016866683959961
 32
37.18938064575195
 13
31.861858367919922
 23
7.016866683959961
 33
37.18938064575195
  0
3DFACE
  8
0
 10
28.883987426757812
 20
30.204933166503906
 30
38.77607345581055
 11
31.861858367919922
 21
7.016866683959961
 31
37.18938064575195
 12
28.883989334106445
 22
7.016866683959961
 32
38.77606964111328
 13
28.883989334106445
 23
7.016866683959961
 33
38.77606964111328
  0
3DFACE
  8
0
 10
31.861858367919922
 20
30.20493507385254
 30
37.18938446044922
 11
34.471981048583984
 21
30.186399459838867
 31
35.05406951904297
 12
34.471981048583984
 22
7.0168657302856445
 32
35.0540657043457
 13
34.471981048583984
 23
7.0168657302856445
 33
35.0540657043457
  0
3DFACE
  8
0
 10
31.861858367919922
 20
30.20493507385254
 30
37.18938446044922
 11
34.471981048583984
 21
7.0168657302856445
 31
35.0540657043457
 12
31.861858367919922
 22
7.016866683959961
 32
37.18938064575195
 13
31.861858367919922
 23
7.016866683959961
 33
37.18938064575195
  0
3DFACE
  8
0
 10
34.471981048583984
 20
30.186399459838867
 30
35.05406951904297
 11
36.614051818847656
 21
30.1864013671875
 31
32.452178955078125
 12
36.614051818847656
 22
7.016865253448486
 32
32.45217514038086
 13
36.614051818847656
 23
7.016865253448486
 33
32.45217514038086
  0
3DFACE
  8
0
 10
34.471981048583984
 20
30.186399459838867
 30
35.05406951904297
 11
36.614051818847656
 21
7.016865253448486
 31
32.45217514038086
 12
34.471981048583984
 22
7.0168657302856445
 32
35.0540657043457
 13
34.471981048583984
 23
7.0168657302856445
 33
35.0540657043457
  0
3DFACE
  8
0
 10
36.614051818847656
 20
30.1864013671875
 30
32.452178955078125
 11
38.205230712890625
 21
30.167707443237305
 31
29.483497619628906
 12
38.205753326416016
 22
7.016865253448486
 32
29.483701705932617
 13
38.205753326416016
 23
7.016865253448486
 33
29.483701705932617
  0
3DFACE
  8
0
 10
36.614051818847656
 20
30.1864013671875
 30
32.452178955078125
 11
38.205753326416016
 21
7.016865253448486
 31
29.483701705932617
 12
36.614051818847656
 22
7.016865253448486
 32
32.45217514038086
 13
36.614051818847656
 23
7.016865253448486
 33
32.45217514038086
  0
3DFACE
  8
0
 10
2.3448028564453125
 20
30.09287452697754
 30
22.90589714050293
 11
5.06829833984375
 21
30.119632720947266
 31
22.91302490234375
 12
4.585897445678711
 22
30.094833374023438
 32
23.156051635742188
 13
4.585897445678711
 23
30.094833374023438
 33
23.156051635742188
  0
3DFACE
  8
0
 10
6.379156112670898
 20
30.12018585205078
 30
16.342304229736328
 11
7.970940589904785
 21
7.016866683959961
 31
13.373858451843262
 12
7.970937728881836
 22
30.186403274536133
 32
13.373861312866211
 13
7.970937728881836
 23
30.186403274536133
 33
13.373861312866211
  0
3DFACE
  8
0
 10
2.8222007751464844
 20
30.097694396972656
 30
18.670551300048828
 11
5.39898681640625
 21
30.120189666748047
 31
19.563283920288086
 12
5.071802139282227
 22
30.114316940307617
 32
18.83789825439453
 13
5.071802139282227
 23
30.114316940307617
 33
18.83789825439453
  0
3DFACE
  8
0
 10
38.205753326416016
 20
7.016866207122803
 30
16.342330932617188
 11
38.205753326416016
 21
30.17014503479004
 31
16.342336654663086
 12
36.614051818847656
 22
30.186399459838867
 32
13.373862266540527
 13
36.614051818847656
 23
30.186399459838867
 33
13.373862266540527
  0
3DFACE
  8
0
 10
38.205753326416016
 20
7.016866207122803
 30
16.342330932617188
 11
36.614051818847656
 21
30.186399459838867
 31
13.373862266540527
 12
36.614051818847656
 22
7.016866683959961
 32
13.373858451843262
 13
36.614051818847656
 23
7.016866683959961
 33
13.373858451843262
  0
3DFACE
  8
0
 10
38.205753326416016
 20
30.17014503479004
 30
16.342336654663086
 11
38.205753326416016
 21
7.016866207122803
 31
16.342330932617188
 12
39.185916900634766
 22
7.016866207122803
 32
19.563310623168945
 13
39.185916900634766
 23
7.016866207122803
 33
19.563310623168945
  0
3DFACE
  8
0
 10
38.205753326416016
 20
30.17014503479004
 30
16.342336654663086
 11
39.185916900634766
 21
7.016866207122803
 31
19.563310623168945
 12
39.18601989746094
 22
30.17032241821289
 32
19.563297271728516
 13
39.18601989746094
 23
30.17032241821289
 33
19.563297271728516
  0
3DFACE
  8
0
 10
39.185997009277344
 20
30.16508674621582
 30
26.262710571289062
 11
39.516326904296875
 21
30.167917251586914
 31
22.913007736206055
 12
39.51688003540039
 22
7.016864776611328
 32
22.91301727294922
 13
39.51688003540039
 23
7.016864776611328
 33
22.91301727294922
  0
3DFACE
  8
0
 10
39.185997009277344
 20
30.16508674621582
 30
26.262710571289062
 11
39.51688003540039
 21
7.016864776611328
 31
22.91301727294922
 12
39.185916900634766
 22
7.016865253448486
 32
26.26272201538086
 13
39.185916900634766
 23
7.016865253448486
 33
26.26272201538086
  0
3DFACE
  8
0
 10
18.197216033935547
 20
30.20496940612793
 30
2.388442039489746
 11
22.292776107788086
 21
30.205013275146484
 31
1.9864206314086914
 12
26.387985229492188
 22
30.205013275146484
 32
2.388491630554199
 13
26.387985229492188
 23
30.205013275146484
 33
2.388491630554199
  0
3DFACE
  8
0
 10
26.387985229492188
 20
30.205013275146484
 30
2.388491630554199
 11
30.32581901550293
 21
30.205013275146484
 31
3.5792531967163086
 12
33.955291748046875
 22
30.20496940612793
 32
5.513033866882324
 13
33.955291748046875
 23
30.20496940612793
 33
5.513033866882324
  0
3DFACE
  8
0
 10
33.955291748046875
 20
30.20496940612793
 30
5.513033866882324
 11
33.955291748046875
 21
5.227695941925049
 31
5.513030052185059
 12
30.325817108154297
 22
5.227652072906494
 32
3.579249382019043
 13
30.325817108154297
 23
5.227652072906494
 33
3.579249382019043
  0
3DFACE
  8
0
 10
30.325817108154297
 20
5.227652072906494
 30
3.579249382019043
 11
26.387985229492188
 21
5.227652072906494
 31
2.3884878158569336
 12
22.292776107788086
 22
5.227652072906494
 32
1.9864168167114258
 13
22.292776107788086
 23
5.227652072906494
 33
1.9864168167114258
  0
3DFACE
  8
0
 10
22.292776107788086
 20
5.227652072906494
 30
1.9864168167114258
 11
18.197216033935547
 21
5.227695941925049
 31
2.3884401321411133
 12
18.197216033935547
 22
30.20496940612793
 32
2.388442039489746
 13
18.197216033935547
 23
30.20496940612793
 33
2.388442039489746
  0
3DFACE
  8
0
 10
18.197216033935547
 20
30.20496940612793
 30
2.388442039489746
 11
26.387985229492188
 21
30.205013275146484
 31
2.388491630554199
 12
33.955291748046875
 22
30.20496940612793
 32
5.513033866882324
 13
33.955291748046875
 23
30.20496940612793
 33
5.513033866882324
  0
3DFACE
  8
0
 10
33.955291748046875
 20
30.20496940612793
 30
5.513033866882324
 11
30.325817108154297
 21
5.227652072906494
 31
3.579249382019043
 12
22.292776107788086
 22
5.227652072906494
 32
1.9864168167114258
 13
22.292776107788086
 23
5.227652072906494
 33
1.9864168167114258
  0
3DFACE
  8
0
 10
33.955291748046875
 20
30.20496940612793
 30
5.513033866882324
 11
22.292776107788086
 21
5.227652072906494
 31
1.9864168167114258
 12
18.197216033935547
 22
30.20496940612793
 32
2.388442039489746
 13
18.197216033935547
 23
30.20496940612793
 33
2.388442039489746
  0
3DFACE
  8
0
 10
39.57575225830078
 20
33.76641082763672
 30
26.836750030517578
 11
41.80691146850586
 21
33.76641082763672
 31
27.15787696838379
 12
42.443031311035156
 22
33.76639938354492
 32
22.76582145690918
 13
42.443031311035156
 23
33.76639938354492
 33
22.76582145690918
  0
3DFACE
  8
0
 10
39.57575225830078
 20
33.76641082763672
 30
26.836750030517578
 11
42.443031311035156
 21
33.76639938354492
 31
22.76582145690918
 12
40.211891174316406
 22
33.766414642333984
 32
22.44468879699707
 13
40.211891174316406
 23
33.766414642333984
 33
22.44468879699707
  0
3DFACE
  8
0
 10
4.327362060546875
 20
35.226112365722656
 30
25.447847366333008
 11
3.080677032470703
 21
35.22611618041992
 31
16.382057189941406
 12
5.3208770751953125
 22
35.22611999511719
 32
16.632957458496094
 13
5.3208770751953125
 23
35.22611999511719
 33
16.632957458496094
  0
3DFACE
  8
0
 10
2.335805892944336
 20
34.11306381225586
 30
22.990821838378906
 11
2.832305908203125
 21
34.11305618286133
 31
18.585786819458008
 12
3.080677032470703
 22
35.22611618041992
 32
16.382057189941406
 13
3.080677032470703
 23
35.22611618041992
 33
16.382057189941406
  0
3DFACE
  8
0
 10
40.52980041503906
 20
34.8795051574707
 30
20.249866485595703
 11
41.48900604248047
 21
34.87950897216797
 31
29.352685928344727
 12
42.76095199584961
 22
34.87950134277344
 32
20.570995330810547
 13
42.76095199584961
 23
34.87950134277344
 33
20.570995330810547
  0
3DFACE
  8
0
 10
43.121429443359375
 20
30.058368682861328
 30
19.19513511657715
 11
43.28533935546875
 21
5.227725028991699
 31
22.913043975830078
 12
42.88196563720703
 22
5.227719783782959
 32
18.83043098449707
 13
42.88196563720703
 23
5.227719783782959
 33
18.83043098449707
  0
3DFACE
  8
0
 10
39.185916900634766
 20
7.016866207122803
 30
19.563310623168945
 11
39.51688003540039
 21
7.016864776611328
 31
22.91301727294922
 12
39.516326904296875
 22
30.167917251586914
 32
22.913007736206055
 13
39.516326904296875
 23
30.167917251586914
 33
22.913007736206055
  0
3DFACE
  8
0
 10
39.185916900634766
 20
7.016866207122803
 30
19.563310623168945
 11
39.516326904296875
 21
30.167917251586914
 31
22.913007736206055
 12
39.18601989746094
 22
30.17032241821289
 32
19.563297271728516
 13
39.18601989746094
 23
30.17032241821289
 33
19.563297271728516
  0
3DFACE
  8
0
 10
18.93218231201172
 20
30.20493507385254
 30
39.75314712524414
 11
15.70100212097168
 21
30.204933166503906
 31
38.77607345581055
 12
14.29785442352295
 22
30.129701614379883
 32
42.393463134765625
 13
14.29785442352295
 23
30.129701614379883
 33
42.393463134765625
  0
3DFACE
  8
0
 10
28.883991241455078
 20
30.204933166503906
 30
7.0499677658081055
 11
31.861862182617188
 21
30.20493507385254
 31
8.6366548538208
 12
30.32581901550293
 22
30.205013275146484
 32
3.5792531967163086
 13
30.32581901550293
 23
30.205013275146484
 33
3.5792531967163086
  0
3DFACE
  8
0
 10
41.48965835571289
 20
30.168880462646484
 30
29.352237701416016
 11
42.881961822509766
 21
30.165203094482422
 31
26.707487106323242
 12
41.6878662109375
 22
30.183940887451172
 32
30.921539306640625
 13
41.6878662109375
 23
30.183940887451172
 33
30.921539306640625
  0
3DFACE
  8
0
 10
42.881961822509766
 20
30.165203094482422
 30
26.707487106323242
 11
39.516326904296875
 21
30.167917251586914
 31
22.913007736206055
 12
43.29964828491211
 22
30.114803314208984
 32
23.299413681030273
 13
43.29964828491211
 23
30.114803314208984
 33
23.299413681030273
  0
3DFACE
  8
0
 10
5.39898681640625
 20
30.120189666748047
 30
19.563283920288086
 11
1.317647933959961
 21
30.075363159179688
 31
22.496826171875
 12
5.06829833984375
 22
30.119632720947266
 32
22.91302490234375
 13
5.06829833984375
 23
30.119632720947266
 33
22.91302490234375
  0
3DFACE
  8
0
 10
42.76095199584961
 20
34.87950134277344
 30
20.570995330810547
 11
40.530311584472656
 21
30.100107192993164
 31
20.250511169433594
 12
40.52980041503906
 22
34.8795051574707
 32
20.249866485595703
 13
40.52980041503906
 23
34.8795051574707
 33
20.249866485595703
  0
3DFACE
  8
0
 10
41.48965835571289
 20
30.168880462646484
 30
29.352237701416016
 11
39.257850646972656
 21
34.87950134277344
 31
29.031557083129883
 12
39.258453369140625
 22
30.089101791381836
 32
29.031064987182617
 13
39.258453369140625
 23
30.089101791381836
 33
29.031064987182617
  0
3DFACE
  8
0
 10
4.327547073364258
 20
30.111328125
 30
25.448123931884766
 11
2.0871658325195312
 21
35.22611618041992
 31
25.196949005126953
 12
2.086650848388672
 22
30.092878341674805
 32
25.196331024169922
 13
2.086650848388672
 23
30.092878341674805
 33
25.196331024169922
  0
3DFACE
  8
0
 10
5.320365905761719
 20
30.097686767578125
 30
16.63233757019043
 11
3.080677032470703
 21
35.22611618041992
 31
16.382057189941406
 12
3.0802154541015625
 22
30.097665786743164
 32
16.381437301635742
 13
3.0802154541015625
 23
30.097665786743164
 33
16.381437301635742
  0
3DFACE
  8
0
 10
2.832305908203125
 20
34.11305618286133
 30
18.585786819458008
 11
5.071802139282227
 21
30.114316940307617
 31
18.83789825439453
 12
5.072517395019531
 22
34.11307144165039
 32
18.836681365966797
 13
5.072517395019531
 23
34.11307144165039
 33
18.836681365966797
  0
3DFACE
  8
0
 10
2.335805892944336
 20
34.11306381225586
 30
22.990821838378906
 11
4.5760040283203125
 21
34.113059997558594
 31
23.241722106933594
 12
4.585897445678711
 22
30.094833374023438
 32
23.156051635742188
 13
4.585897445678711
 23
30.094833374023438
 33
23.156051635742188
  0
3DFACE
  8
0
 10
2.335805892944336
 20
34.11306381225586
 30
22.990821838378906
 11
4.585897445678711
 21
30.094833374023438
 31
23.156051635742188
 12
2.3448028564453125
 22
30.09287452697754
 32
22.90589714050293
 13
2.3448028564453125
 23
30.09287452697754
 33
22.90589714050293
  0
3DFACE
  8
0
 10
4.5760040283203125
 20
34.113059997558594
 30
23.241722106933594
 11
2.335805892944336
 21
34.11306381225586
 31
22.990821838378906
 12
2.832305908203125
 22
34.11305618286133
 32
18.585786819458008
 13
2.832305908203125
 23
34.11305618286133
 33
18.585786819458008
  0
3DFACE
  8
0
 10
4.5760040283203125
 20
34.113059997558594
 30
23.241722106933594
 11
2.832305908203125
 21
34.11305618286133
 31
18.585786819458008
 12
5.072517395019531
 22
34.11307144165039
 32
18.836681365966797
 13
5.072517395019531
 23
34.11307144165039
 33
18.836681365966797
  0
3DFACE
  8
0
 10
40.211891174316406
 20
33.766414642333984
 30
22.44468879699707
 11
42.443267822265625
 21
30.116701126098633
 31
22.76828956604004
 12
40.20008850097656
 22
30.1000919342041
 32
22.53041648864746
 13
40.20008850097656
 23
30.1000919342041
 33
22.53041648864746
  0
3DFACE
  8
0
 10
39.57575225830078
 20
33.76641082763672
 30
26.836750030517578
 11
39.58869171142578
 21
30.089067459106445
 31
26.751039505004883
 12
41.819915771484375
 22
30.08904266357422
 32
27.072187423706055
 13
41.819915771484375
 23
30.08904266357422
 33
27.072187423706055
  0
3DFACE
  8
0
 10
39.57575225830078
 20
33.76641082763672
 30
26.836750030517578
 11
41.819915771484375
 21
30.08904266357422
 31
27.072187423706055
 12
41.80691146850586
 22
33.76641082763672
 32
27.15787696838379
 13
41.80691146850586
 23
33.76641082763672
 33
27.15787696838379
  0
3DFACE
  8
0
 10
5.06829833984375
 20
30.119632720947266
 30
22.91302490234375
 11
4.327547073364258
 21
30.111328125
 31
25.448123931884766
 12
5.399389266967773
 22
30.119251251220703
 32
26.262666702270508
 13
5.399389266967773
 23
30.119251251220703
 33
26.262666702270508
  0
3DFACE
  8
0
 10
41.80691146850586
 20
33.76641082763672
 30
27.15787696838379
 11
41.48900604248047
 21
34.87950897216797
 31
29.352685928344727
 12
42.76095199584961
 22
34.87950134277344
 32
20.570995330810547
 13
42.76095199584961
 23
34.87950134277344
 33
20.570995330810547
  0
3DFACE
  8
0
 10
40.211891174316406
 20
33.766414642333984
 30
22.44468879699707
 11
39.57575225830078
 21
33.76641082763672
 31
26.836750030517578
 12
39.257850646972656
 22
34.87950134277344
 32
29.031557083129883
 13
39.257850646972656
 23
34.87950134277344
 33
29.031557083129883
  0
3DFACE
  8
0
 10
4.5760040283203125
 20
34.113059997558594
 30
23.241722106933594
 11
5.072517395019531
 21
34.11307144165039
 31
18.836681365966797
 12
5.3208770751953125
 22
35.22611999511719
 32
16.632957458496094
 13
5.3208770751953125
 23
35.22611999511719
 33
16.632957458496094
  0
3DFACE
  8
0
 10
12.722310066223145
 20
7.014404296875
 30
8.63538646697998
 11
12.722310066223145
 21
30.202470779418945
 31
8.635388374328613
 12
15.700437545776367
 22
30.202470779418945
 32
7.0485639572143555
 13
15.700437545776367
 23
30.202470779418945
 33
7.0485639572143555
  0
3DFACE
  8
0
 10
12.722310066223145
 20
7.014404296875
 30
8.63538646697998
 11
10.111959457397461
 21
7.014404296875
 31
10.770889282226562
 12
10.111959457397461
 22
30.183937072753906
 32
10.770891189575195
 13
10.111959457397461
 23
30.183937072753906
 33
10.770891189575195
  0
3DFACE
  8
0
 10
10.111959457397461
 20
7.014404296875
 30
10.770889282226562
 11
7.969701766967773
 21
7.014404296875
 31
13.373008728027344
 12
7.969701766967773
 22
30.183937072753906
 32
13.373010635375977
 13
7.969701766967773
 23
30.183937072753906
 33
13.373010635375977
  0
3DFACE
  8
0
 10
40.530799865722656
 20
30.09042739868164
 30
20.2512264251709
 11
39.18738555908203
 21
30.16042137145996
 31
19.563013076782227
 12
43.119930267333984
 22
30.0487003326416
 32
19.19542694091797
 13
43.119930267333984
 23
30.0487003326416
 33
19.19542694091797
  0
3DFACE
  8
0
 10
33.95466613769531
 20
30.202468872070312
 30
40.311649322509766
 11
33.95466613769531
 21
5.230189800262451
 31
40.3116455078125
 12
30.325538635253906
 22
5.230189800262451
 32
42.245338439941406
 13
30.325538635253906
 23
5.230189800262451
 33
42.245338439941406
  0
3DFACE
  8
0
 10
37.1356201171875
 20
30.202468872070312
 30
37.7093391418457
 11
37.1356201171875
 21
5.230190277099609
 31
37.70933532714844
 12
33.95466613769531
 22
5.230189800262451
 32
40.3116455078125
 13
33.95466613769531
 23
5.230189800262451
 33
40.3116455078125
  0
3DFACE
  8
0
 10
39.74616241455078
 20
30.183937072753906
 30
34.538414001464844
 11
39.74616241455078
 21
5.230190277099609
 31
34.53841018676758
 12
37.1356201171875
 22
5.230190277099609
 32
37.70933532714844
 13
37.1356201171875
 23
5.230190277099609
 33
37.70933532714844
  0
3DFACE
  8
0
 10
41.68597412109375
 20
30.183937072753906
 30
30.92072868347168
 11
41.68597412109375
 21
5.230190753936768
 31
30.92072868347168
 12
39.74616241455078
 22
5.230190277099609
 32
34.53841018676758
 13
39.74616241455078
 23
5.230190277099609
 33
34.53841018676758
  0
3DFACE
  8
0
 10
41.68597412109375
 20
30.183937072753906
 30
30.92072868347168
 11
41.49034881591797
 21
30.17127799987793
 31
29.351669311523438
 12
39.259193420410156
 22
30.091493606567383
 32
29.030540466308594
 13
39.259193420410156
 23
30.091493606567383
 33
29.030540466308594
  0
3DFACE
  8
0
 10
2.086118698120117
 20
30.09528350830078
 30
25.195621490478516
 11
2.344125747680664
 21
30.09528350830078
 31
22.906448364257812
 12
1.3197002410888672
 22
30.075136184692383
 32
22.496826171875
 13
1.3197002410888672
 23
30.075136184692383
 33
22.496826171875
  0
3DFACE
  8
0
 10
4.326316833496094
 20
30.111907958984375
 30
25.44651985168457
 11
2.086118698120117
 21
30.09528350830078
 31
25.195621490478516
 12
1.7044925689697266
 22
30.167682647705078
 32
26.99531364440918
 13
1.7044925689697266
 23
30.167682647705078
 33
26.99531364440918
  0
3DFACE
  8
0
 10
41.820579528808594
 20
30.091493606567383
 30
27.071735382080078
 11
42.88050079345703
 21
30.167682647705078
 31
26.70720100402832
 12
39.18738555908203
 22
30.167682647705078
 32
26.263023376464844
 13
39.18738555908203
 23
30.167682647705078
 33
26.263023376464844
  0
3DFACE
  8
0
 10
5.887735366821289
 20
30.11756706237793
 30
17.95237922668457
 11
6.377861022949219
 21
30.11756706237793
 31
16.341747283935547
 12
6.377861022949219
 22
7.014403820037842
 32
16.341745376586914
 13
6.377861022949219
 23
7.014403820037842
 33
16.341745376586914
  0
3DFACE
  8
0
 10
6.377861022949219
 20
7.014403820037842
 30
16.341745376586914
 11
5.397609710693359
 21
7.014403820037842
 31
19.563011169433594
 12
5.887735366821289
 22
30.11756706237793
 32
17.95237922668457
 13
5.887735366821289
 23
30.11756706237793
 33
17.95237922668457
  0
3DFACE
  8
0
 10
5.397609710693359
 20
7.014403820037842
 30
19.563011169433594
 11
5.066617965698242
 21
7.014403343200684
 31
22.91301727294922
 12
5.066617965698242
 22
30.11756706237793
 32
22.91301918029785
 13
5.066617965698242
 23
30.11756706237793
 33
22.91301918029785
  0
3DFACE
  8
0
 10
7.969701766967773
 20
7.014404296875
 30
13.373008728027344
 11
6.377861022949219
 21
7.014403820037842
 31
16.341745376586914
 12
6.377861022949219
 22
30.11756706237793
 32
16.341747283935547
 13
6.377861022949219
 23
30.11756706237793
 33
16.341747283935547
  0
3DFACE
  8
0
 10
3.079629898071289
 20
35.22765350341797
 30
16.38072967529297
 11
2.086118698120117
 21
35.2276496887207
 31
25.195621490478516
 12
4.326316833496094
 22
35.2276496887207
 32
25.446521759033203
 13
4.326316833496094
 23
35.2276496887207
 33
25.446521759033203
  0
3DFACE
  8
0
 10
43.283843994140625
 20
5.230191230773926
 30
22.91301727294922
 11
43.2975959777832
 21
30.114952087402344
 31
23.299381256103516
 12
43.119930267333984
 22
30.0487003326416
 32
19.19542694091797
 13
43.119930267333984
 23
30.0487003326416
 33
19.19542694091797
  0
3DFACE
  8
0
 10
36.615291595458984
 20
30.183937072753906
 30
32.453025817871094
 11
38.207130432128906
 21
30.16768455505371
 31
29.484291076660156
 12
39.74616241455078
 22
30.183937072753906
 32
34.538414001464844
 13
39.74616241455078
 23
30.183937072753906
 33
34.538414001464844
  0
3DFACE
  8
0
 10
38.207130432128906
 20
30.16768455505371
 30
29.484291076660156
 11
41.68597412109375
 21
30.183937072753906
 31
30.92072868347168
 12
39.74616241455078
 22
30.183937072753906
 32
34.538414001464844
 13
39.74616241455078
 23
30.183937072753906
 33
34.538414001464844
  0
3DFACE
  8
0
 10
39.74616241455078
 20
30.183937072753906
 30
34.538414001464844
 11
37.1356201171875
 21
30.202468872070312
 31
37.7093391418457
 12
36.615291595458984
 22
30.183937072753906
 32
32.453025817871094
 13
36.615291595458984
 23
30.183937072753906
 33
32.453025817871094
  0
3DFACE
  8
0
 10
36.615291595458984
 20
30.183937072753906
 30
32.453025817871094
 11
37.1356201171875
 21
30.202468872070312
 31
37.7093391418457
 12
34.47303009033203
 22
30.183937072753906
 32
35.055145263671875
 13
34.47303009033203
 23
30.183937072753906
 33
35.055145263671875
  0
3DFACE
  8
0
 10
37.1356201171875
 20
30.202468872070312
 30
37.7093391418457
 11
33.95466613769531
 21
30.202468872070312
 31
40.311649322509766
 12
34.47303009033203
 22
30.183937072753906
 32
35.055145263671875
 13
34.47303009033203
 23
30.183937072753906
 33
35.055145263671875
  0
3DFACE
  8
0
 10
33.95466613769531
 20
30.202468872070312
 30
40.311649322509766
 11
30.325538635253906
 21
30.202468872070312
 31
42.24534225463867
 12
31.862682342529297
 22
30.202468872070312
 32
37.19064712524414
 13
31.862682342529297
 23
30.202468872070312
 33
37.19064712524414
  0
3DFACE
  8
0
 10
30.325538635253906
 20
30.202468872070312
 30
42.24534225463867
 11
26.387704849243164
 21
30.202468872070312
 31
43.43610382080078
 12
28.88455581665039
 22
30.202468872070312
 32
38.777469635009766
 13
28.88455581665039
 23
30.202468872070312
 33
38.777469635009766
  0
3DFACE
  8
0
 10
26.387704849243164
 20
30.202468872070312
 30
43.43610382080078
 11
22.33147621154785
 21
30.127262115478516
 31
43.984886169433594
 12
22.292495727539062
 22
30.202468872070312
 32
40.08457946777344
 13
22.292495727539062
 23
30.202468872070312
 33
40.08457946777344
  0
3DFACE
  8
0
 10
22.33147621154785
 20
30.127262115478516
 30
43.984886169433594
 11
18.23626708984375
 21
30.127262115478516
 31
43.58281707763672
 12
22.292495727539062
 22
30.202468872070312
 32
40.08457946777344
 13
22.292495727539062
 23
30.202468872070312
 33
40.08457946777344
  0
3DFACE
  8
0
 10
18.23626708984375
 20
30.127262115478516
 30
43.58281707763672
 11
14.298434257507324
 21
30.127262115478516
 31
42.39205551147461
 12
18.931894302368164
 22
30.202468872070312
 32
39.75463104248047
 13
18.931894302368164
 23
30.202468872070312
 33
39.75463104248047
  0
3DFACE
  8
0
 10
14.298434257507324
 20
30.127262115478516
 30
42.39205551147461
 11
10.630327224731445
 21
30.202468872070312
 31
40.311649322509766
 12
15.700437545776367
 22
30.202468872070312
 32
38.777469635009766
 13
15.700437545776367
 23
30.202468872070312
 33
38.777469635009766
  0
3DFACE
  8
0
 10
10.630327224731445
 20
30.202468872070312
 30
40.311649322509766
 11
7.449371337890625
 21
30.202468872070312
 31
37.7093391418457
 12
10.111959457397461
 22
30.183937072753906
 32
35.055145263671875
 13
10.111959457397461
 23
30.183937072753906
 33
35.055145263671875
  0
3DFACE
  8
0
 10
7.449371337890625
 20
30.202468872070312
 30
37.7093391418457
 11
4.838829040527344
 21
30.183937072753906
 31
34.538414001464844
 12
7.969701766967773
 22
30.183937072753906
 32
32.453025817871094
 13
7.969701766967773
 23
30.183937072753906
 33
32.453025817871094
  0
3DFACE
  8
0
 10
4.838829040527344
 20
30.183937072753906
 30
34.538414001464844
 11
2.899019241333008
 21
30.183937072753906
 31
30.92072868347168
 12
6.377861022949219
 22
30.167682647705078
 32
29.484291076660156
 13
6.377861022949219
 23
30.167682647705078
 33
29.484291076660156
  0
3DFACE
  8
0
 10
7.449371337890625
 20
30.202468872070312
 30
37.7093391418457
 11
7.969701766967773
 21
30.183937072753906
 31
32.453025817871094
 12
10.111959457397461
 22
30.183937072753906
 32
35.055145263671875
 13
10.111959457397461
 23
30.183937072753906
 33
35.055145263671875
  0
3DFACE
  8
0
 10
2.899019241333008
 20
30.183937072753906
 30
30.92072868347168
 11
1.7044925689697266
 21
30.167682647705078
 31
26.99531364440918
 12
5.397609710693359
 22
30.117565155029297
 32
26.263023376464844
 13
5.397609710693359
 23
30.117565155029297
 33
26.263023376464844
  0
3DFACE
  8
0
 10
2.899019241333008
 20
30.183937072753906
 30
30.92072868347168
 11
5.397609710693359
 21
30.117565155029297
 31
26.263023376464844
 12
6.377861022949219
 22
30.167682647705078
 32
29.484291076660156
 13
6.377861022949219
 23
30.167682647705078
 33
29.484291076660156
  0
3DFACE
  8
0
 10
10.630327224731445
 20
30.202468872070312
 30
40.311649322509766
 11
10.111959457397461
 21
30.183937072753906
 31
35.055145263671875
 12
12.722310066223145
 22
30.202468872070312
 32
37.19064712524414
 13
12.722310066223145
 23
30.202468872070312
 33
37.19064712524414
  0
3DFACE
  8
0
 10
26.387704849243164
 20
30.202468872070312
 30
43.43610382080078
 11
22.292495727539062
 21
30.202468872070312
 31
40.08457946777344
 12
25.653099060058594
 22
30.202468872070312
 32
39.75463104248047
 13
25.653099060058594
 23
30.202468872070312
 33
39.75463104248047
  0
3DFACE
  8
0
 10
18.23626708984375
 20
30.127262115478516
 30
43.58281707763672
 11
18.931894302368164
 21
30.202468872070312
 31
39.75463104248047
 12
22.292495727539062
 22
30.202468872070312
 32
40.08457946777344
 13
22.292495727539062
 23
30.202468872070312
 33
40.08457946777344
  0
3DFACE
  8
0
 10
33.95466613769531
 20
30.202468872070312
 30
40.311649322509766
 11
31.862682342529297
 21
30.202468872070312
 31
37.19064712524414
 12
34.47303009033203
 22
30.183937072753906
 32
35.055145263671875
 13
34.47303009033203
 23
30.183937072753906
 33
35.055145263671875
  0
3DFACE
  8
0
 10
6.377861022949219
 20
30.167682647705078
 30
29.484291076660156
 11
7.969701766967773
 21
30.183937072753906
 31
32.453025817871094
 12
4.838829040527344
 22
30.183937072753906
 32
34.538414001464844
 13
4.838829040527344
 23
30.183937072753906
 33
34.538414001464844
  0
3DFACE
  8
0
 10
28.88455581665039
 20
30.202468872070312
 30
38.777469635009766
 11
31.862682342529297
 21
30.202468872070312
 31
37.19064712524414
 12
30.325538635253906
 22
30.202468872070312
 32
42.24534225463867
 13
30.325538635253906
 23
30.202468872070312
 33
42.24534225463867
  0
3DFACE
  8
0
 10
10.630327224731445
 20
30.202468872070312
 30
40.311649322509766
 11
12.722310066223145
 21
30.202468872070312
 31
37.19064712524414
 12
15.700437545776367
 22
30.202468872070312
 32
38.777469635009766
 13
15.700437545776367
 23
30.202468872070312
 33
38.777469635009766
  0
3DFACE
  8
0
 10
25.653099060058594
 20
30.202468872070312
 30
39.75463104248047
 11
28.88455581665039
 21
30.202468872070312
 31
38.777469635009766
 12
26.387704849243164
 22
30.202468872070312
 32
43.43610382080078
 13
26.387704849243164
 23
30.202468872070312
 33
43.43610382080078
  0
3DFACE
  8
0
 10
14.259453773498535
 20
30.202470779418945
 30
3.580695152282715
 11
18.19728660583496
 21
30.202470779418945
 31
2.3899335861206055
 12
15.700437545776367
 22
30.202470779418945
 32
7.0485639572143555
 13
15.700437545776367
 23
30.202470779418945
 33
7.0485639572143555
  0
3DFACE
  8
0
 10
18.19728660583496
 20
30.202470779418945
 30
2.3899335861206055
 11
22.292495727539062
 21
30.202470779418945
 31
1.9878625869750977
 12
18.931894302368164
 22
30.202470779418945
 32
6.071404457092285
 13
18.931894302368164
 23
30.202470779418945
 33
6.071404457092285
  0
3DFACE
  8
0
 10
22.292495727539062
 20
30.202470779418945
 30
1.9878625869750977
 11
26.387704849243164
 21
30.202470779418945
 31
2.3899335861206055
 12
25.653099060058594
 22
30.202470779418945
 32
6.071404457092285
 13
25.653099060058594
 23
30.202470779418945
 33
6.071404457092285
  0
3DFACE
  8
0
 10
26.387704849243164
 20
30.202470779418945
 30
2.3899335861206055
 11
30.325538635253906
 21
30.202470779418945
 31
3.580695152282715
 12
28.88455581665039
 22
30.202470779418945
 32
7.0485639572143555
 13
28.88455581665039
 23
30.202470779418945
 33
7.0485639572143555
  0
3DFACE
  8
0
 10
22.292495727539062
 20
30.202470779418945
 30
1.9878625869750977
 11
25.653099060058594
 21
30.202470779418945
 31
6.071404457092285
 12
22.292495727539062
 22
30.202470779418945
 32
5.741457939147949
 13
22.292495727539062
 23
30.202470779418945
 33
5.741457939147949
  0
3DFACE
  8
0
 10
30.325538635253906
 20
30.202470779418945
 30
3.580695152282715
 11
33.95466613769531
 21
30.202470779418945
 31
5.514388084411621
 12
31.862682342529297
 22
30.202470779418945
 32
8.635388374328613
 13
31.862682342529297
 23
30.202470779418945
 33
8.635388374328613
  0
3DFACE
  8
0
 10
33.95466613769531
 20
30.202470779418945
 30
5.514388084411621
 11
37.1356201171875
 21
30.202470779418945
 31
8.116698265075684
 12
34.47303009033203
 22
30.183937072753906
 32
10.770891189575195
 13
34.47303009033203
 23
30.183937072753906
 33
10.770891189575195
  0
3DFACE
  8
0
 10
37.1356201171875
 20
30.202470779418945
 30
8.116698265075684
 11
39.74616241455078
 21
30.183937072753906
 31
11.28762435913086
 12
36.615291595458984
 22
30.183937072753906
 32
13.373010635375977
 13
36.615291595458984
 23
30.183937072753906
 33
13.373010635375977
  0
3DFACE
  8
0
 10
39.74616241455078
 20
30.183937072753906
 30
11.28762435913086
 11
41.68597412109375
 21
30.183937072753906
 31
14.90530776977539
 12
38.207130432128906
 22
30.167682647705078
 32
16.341747283935547
 13
38.207130432128906
 23
30.167682647705078
 33
16.341747283935547
  0
3DFACE
  8
0
 10
37.1356201171875
 20
30.202470779418945
 30
8.116698265075684
 11
36.615291595458984
 21
30.183937072753906
 31
13.373010635375977
 12
34.47303009033203
 22
30.183937072753906
 32
10.770891189575195
 13
34.47303009033203
 23
30.183937072753906
 33
10.770891189575195
  0
3DFACE
  8
0
 10
41.68597412109375
 20
30.183937072753906
 30
14.90530776977539
 11
43.119930267333984
 21
30.0487003326416
 31
19.19542694091797
 12
39.18738555908203
 22
30.16042137145996
 32
19.563013076782227
 13
39.18738555908203
 23
30.16042137145996
 33
19.563013076782227
  0
3DFACE
  8
0
 10
41.68597412109375
 20
30.183937072753906
 30
14.90530776977539
 11
39.18738555908203
 21
30.16042137145996
 31
19.563013076782227
 12
38.207130432128906
 22
30.167682647705078
 32
16.341747283935547
 13
38.207130432128906
 23
30.167682647705078
 33
16.341747283935547
  0
3DFACE
  8
0
 10
33.95466613769531
 20
30.202470779418945
 30
5.514388084411621
 11
34.47303009033203
 21
30.183937072753906
 31
10.770891189575195
 12
31.862682342529297
 22
30.202470779418945
 32
8.635388374328613
 13
31.862682342529297
 23
30.202470779418945
 33
8.635388374328613
  0
3DFACE
  8
0
 10
18.19728660583496
 20
30.202470779418945
 30
2.3899335861206055
 11
18.931894302368164
 21
30.202470779418945
 31
6.071404457092285
 12
15.700437545776367
 22
30.202470779418945
 32
7.0485639572143555
 13
15.700437545776367
 23
30.202470779418945
 33
7.0485639572143555
  0
3DFACE
  8
0
 10
18.931894302368164
 20
30.202470779418945
 30
6.071404457092285
 11
22.292495727539062
 21
30.202470779418945
 31
1.9878625869750977
 12
22.292495727539062
 22
30.202470779418945
 32
5.741457939147949
 13
22.292495727539062
 23
30.202470779418945
 33
5.741457939147949
  0
3DFACE
  8
0
 10
7.449371337890625
 20
30.202470779418945
 30
8.116698265075684
 11
10.630327224731445
 21
30.202470779418945
 31
5.514388084411621
 12
10.111959457397461
 22
30.183937072753906
 32
10.770891189575195
 13
10.111959457397461
 23
30.183937072753906
 33
10.770891189575195
  0
3DFACE
  8
0
 10
10.630327224731445
 20
30.202470779418945
 30
5.514388084411621
 11
14.259453773498535
 21
30.202470779418945
 31
3.580695152282715
 12
12.722310066223145
 22
30.202470779418945
 32
8.635388374328613
 13
12.722310066223145
 23
30.202470779418945
 33
8.635388374328613
  0
3DFACE
  8
0
 10
10.111959457397461
 20
30.183937072753906
 30
10.770891189575195
 11
10.630327224731445
 21
30.202470779418945
 31
5.514388084411621
 12
12.722310066223145
 22
30.202470779418945
 32
8.635388374328613
 13
12.722310066223145
 23
30.202470779418945
 33
8.635388374328613
  0
3DFACE
  8
0
 10
2.899019241333008
 20
30.133821487426758
 30
14.90530776977539
 11
4.838829040527344
 21
30.183937072753906
 31
11.28762435913086
 12
6.377861022949219
 22
30.11756706237793
 32
16.341747283935547
 13
6.377861022949219
 23
30.11756706237793
 33
16.341747283935547
  0
3DFACE
  8
0
 10
4.838829040527344
 20
30.183937072753906
 30
11.28762435913086
 11
7.449371337890625
 21
30.202470779418945
 31
8.116698265075684
 12
7.969701766967773
 22
30.183937072753906
 32
13.373010635375977
 13
7.969701766967773
 23
30.183937072753906
 33
13.373010635375977
  0
3DFACE
  8
0
 10
7.969701766967773
 20
30.183937072753906
 30
13.373010635375977
 11
7.449371337890625
 21
30.202470779418945
 31
8.116698265075684
 12
10.111959457397461
 22
30.183937072753906
 32
10.770891189575195
 13
10.111959457397461
 23
30.183937072753906
 33
10.770891189575195
  0
3DFACE
  8
0
 10
7.969701766967773
 20
30.183937072753906
 30
13.373010635375977
 11
6.377861022949219
 21
30.11756706237793
 31
16.341747283935547
 12
4.838829040527344
 22
30.183937072753906
 32
11.28762435913086
 13
4.838829040527344
 23
30.183937072753906
 33
11.28762435913086
  0
3DFACE
  8
0
 10
38.207130432128906
 20
30.167682647705078
 30
16.341747283935547
 11
36.615291595458984
 21
30.183937072753906
 31
13.373010635375977
 12
39.74616241455078
 22
30.183937072753906
 32
11.28762435913086
 13
39.74616241455078
 23
30.183937072753906
 33
11.28762435913086
  0
3DFACE
  8
0
 10
15.700437545776367
 20
30.202470779418945
 30
7.0485639572143555
 11
12.722310066223145
 21
30.202470779418945
 31
8.635388374328613
 12
14.259453773498535
 22
30.202470779418945
 32
3.580695152282715
 13
14.259453773498535
 23
30.202470779418945
 33
3.580695152282715
  0
3DFACE
  8
0
 10
30.325538635253906
 20
30.202470779418945
 30
3.580695152282715
 11
31.862682342529297
 21
30.202470779418945
 31
8.635388374328613
 12
28.88455581665039
 22
30.202470779418945
 32
7.0485639572143555
 13
28.88455581665039
 23
30.202470779418945
 33
7.0485639572143555
  0
3DFACE
  8
0
 10
41.49034881591797
 20
30.17127799987793
 30
29.351669311523438
 11
41.68597412109375
 21
30.183937072753906
 31
30.92072868347168
 12
42.88050079345703
 22
30.167682647705078
 32
26.70720100402832
 13
42.88050079345703
 23
30.167682647705078
 33
26.70720100402832
  0
3DFACE
  8
0
 10
39.51837921142578
 20
30.167682647705078
 30
22.91301918029785
 11
39.18738555908203
 21
30.167682647705078
 31
26.263023376464844
 12
42.88050079345703
 22
30.167682647705078
 32
26.70720100402832
 13
42.88050079345703
 23
30.167682647705078
 33
26.70720100402832
  0
3DFACE
  8
0
 10
42.44378662109375
 20
30.114315032958984
 30
22.769052505493164
 11
42.44405746459961
 21
33.764896392822266
 31
22.76718521118164
 12
40.21289825439453
 22
33.764896392822266
 32
22.446054458618164
 13
40.21289825439453
 23
33.764896392822266
 33
22.446054458618164
  0
3DFACE
  8
0
 10
42.44405746459961
 20
33.764896392822266
 30
22.76718521118164
 11
42.44378662109375
 21
30.114315032958984
 31
22.769052505493164
 12
42.761959075927734
 22
30.09042739868164
 32
20.572355270385742
 13
42.761959075927734
 23
30.09042739868164
 33
20.572355270385742
  0
3DFACE
  8
0
 10
41.49034881591797
 20
34.877967834472656
 30
29.35167121887207
 11
41.49034881591797
 21
30.17127799987793
 31
29.351669311523438
 12
41.80825424194336
 22
33.764892578125
 32
27.156841278076172
 13
41.80825424194336
 23
33.764892578125
 33
27.156841278076172
  0
3DFACE
  8
0
 10
41.49034881591797
 20
30.17127799987793
 30
29.351669311523438
 11
41.820579528808594
 21
30.091493606567383
 31
27.071735382080078
 12
41.80825424194336
 22
33.764892578125
 32
27.156841278076172
 13
41.80825424194336
 23
33.764892578125
 33
27.156841278076172
  0
3DFACE
  8
0
 10
42.44405746459961
 20
33.764896392822266
 30
22.76718521118164
 11
42.761959075927734
 21
30.09042739868164
 31
20.572355270385742
 12
42.761959075927734
 22
34.877967834472656
 32
20.572357177734375
 13
42.761959075927734
 23
34.877967834472656
 33
20.572357177734375
  0
3DFACE
  8
0
 10
41.49034881591797
 20
34.877967834472656
 30
29.35167121887207
 11
41.80825424194336
 21
33.764892578125
 31
27.156841278076172
 12
42.44405746459961
 22
33.764896392822266
 32
22.76718521118164
 13
42.44405746459961
 23
33.764896392822266
 33
22.76718521118164
  0
3DFACE
  8
0
 10
39.747406005859375
 20
30.186399459838867
 30
11.28677749633789
 11
39.747406005859375
 21
5.227729797363281
 31
11.286772727966309
 12
37.13667297363281
 22
5.227727890014648
 32
8.115618705749512
 13
37.13667297363281
 23
5.227727890014648
 33
8.115618705749512
  0
3DFACE
  8
0
 10
39.747406005859375
 20
30.186399459838867
 30
11.28677749633789
 11
41.687339782714844
 21
30.18641471862793
 31
14.904717445373535
 12
41.687347412109375
 22
5.22772741317749
 32
14.90471076965332
 13
41.687347412109375
 23
5.22772741317749
 33
14.90471076965332
  0
3DFACE
  8
0
 10
15.70100212097168
 20
30.204931259155273
 30
7.0499677658081055
 11
12.723133087158203
 21
30.204933166503906
 31
8.636652946472168
 12
12.723133087158203
 22
7.016868591308594
 32
8.636651039123535
 13
12.723133087158203
 23
7.016868591308594
 33
8.636651039123535
  0
3DFACE
  8
0
 10
10.11301040649414
 20
30.186397552490234
 30
10.771971702575684
 11
10.11301040649414
 21
7.016867637634277
 31
10.771966934204102
 12
12.723133087158203
 22
7.016868591308594
 32
8.636651039123535
 13
12.723133087158203
 23
7.016868591308594
 33
8.636651039123535
  0
3DFACE
  8
0
 10
10.11301040649414
 20
30.186397552490234
 30
10.771971702575684
 11
7.970937728881836
 21
30.186403274536133
 31
13.373861312866211
 12
7.970940589904785
 22
7.016866683959961
 32
13.373858451843262
 13
7.970940589904785
 23
7.016866683959961
 33
13.373858451843262
  0
3DFACE
  8
0
 10
15.70100212097168
 20
7.016869068145752
 30
7.04996395111084
 11
18.93218231201172
 21
7.016869068145752
 31
6.072888374328613
 12
18.93218231201172
 22
30.204931259155273
 32
6.072890281677246
 13
18.93218231201172
 23
30.204931259155273
 33
6.072890281677246
  0
3DFACE
  8
0
 10
18.93218231201172
 20
7.016869068145752
 30
6.072888374328613
 11
22.292495727539062
 21
7.016869068145752
 31
5.742968559265137
 12
22.292497634887695
 22
30.204933166503906
 32
5.742972373962402
 13
22.292497634887695
 23
30.204933166503906
 33
5.742972373962402
  0
3DFACE
  8
0
 10
22.292495727539062
 20
7.016869068145752
 30
5.742968559265137
 11
25.65281105041504
 21
7.016869068145752
 31
6.072888374328613
 12
25.65281105041504
 22
30.204933166503906
 32
6.072890281677246
 13
25.65281105041504
 23
30.204933166503906
 33
6.072890281677246
  0
3DFACE
  8
0
 10
25.65281105041504
 20
30.204933166503906
 30
6.072890281677246
 11
25.65281105041504
 21
7.016869068145752
 31
6.072888374328613
 12
28.883989334106445
 22
7.016869068145752
 32
7.04996395111084
 13
28.883989334106445
 23
7.016869068145752
 33
7.04996395111084
  0
3DFACE
  8
0
 10
28.883991241455078
 20
30.204933166503906
 30
7.0499677658081055
 11
28.883989334106445
 21
7.016869068145752
 31
7.04996395111084
 12
31.861858367919922
 22
7.016868591308594
 32
8.636651039123535
 13
31.861858367919922
 23
7.016868591308594
 33
8.636651039123535
  0
3DFACE
  8
0
 10
31.861858367919922
 20
7.016868591308594
 30
8.636651039123535
 11
34.471981048583984
 21
7.016867637634277
 31
10.771966934204102
 12
34.471981048583984
 22
30.186399459838867
 32
10.771971702575684
 13
34.471981048583984
 23
30.186399459838867
 33
10.771971702575684
  0
3DFACE
  8
0
 10
42.76146697998047
 20
30.100107192993164
 30
20.57163429260254
 11
42.443267822265625
 21
30.116701126098633
 31
22.76828956604004
 12
43.29964828491211
 22
30.114803314208984
 32
23.299413681030273
 13
43.29964828491211
 23
30.114803314208984
 33
23.299413681030273
  0
3DFACE
  8
0
 10
42.443267822265625
 20
30.116701126098633
 30
22.76828956604004
 11
40.20008850097656
 21
30.1000919342041
 31
22.53041648864746
 12
39.516326904296875
 22
30.167917251586914
 32
22.913007736206055
 13
39.516326904296875
 23
30.167917251586914
 33
22.913007736206055
  0
3DFACE
  8
0
 10
40.20008850097656
 20
30.1000919342041
 30
22.53041648864746
 11
40.530311584472656
 21
30.100107192993164
 31
20.250511169433594
 12
39.18601989746094
 22
30.17032241821289
 32
19.563297271728516
 13
39.18601989746094
 23
30.17032241821289
 33
19.563297271728516
  0
3DFACE
  8
0
 10
1.7030410766601562
 20
30.17017364501953
 30
18.83042335510254
 11
2.8222007751464844
 21
30.097694396972656
 31
18.670551300048828
 12
3.0802154541015625
 22
30.097665786743164
 32
16.381437301635742
 13
3.0802154541015625
 23
30.097665786743164
 33
16.381437301635742
  0
3DFACE
  8
0
 10
10.629496574401855
 20
5.227724552154541
 30
40.312904357910156
 11
14.258880615234375
 21
5.227715969085693
 31
42.24673080444336
 12
14.29785442352295
 22
30.129701614379883
 32
42.393463134765625
 13
14.29785442352295
 23
30.129701614379883
 33
42.393463134765625
  0
3DFACE
  8
0
 10
14.29785442352295
 20
30.129701614379883
 30
42.393463134765625
 11
14.258880615234375
 21
5.227715969085693
 31
42.24673080444336
 12
18.19700050354004
 22
5.227713108062744
 32
43.43758010864258
 13
18.19700050354004
 23
5.227713108062744
 33
43.43758010864258
  0
3DFACE
  8
0
 10
18.235977172851562
 20
30.12971305847168
 30
43.58430862426758
 11
18.19700050354004
 21
5.227713108062744
 31
43.43758010864258
 12
22.292509078979492
 22
5.227715015411377
 32
43.83967971801758
 13
22.292509078979492
 23
5.227715015411377
 33
43.83967971801758
  0
3DFACE
  8
0
 10
22.33148956298828
 20
30.129695892333984
 30
43.98641586303711
 11
22.292509078979492
 21
5.227715015411377
 31
43.83967971801758
 12
26.38800621032715
 22
5.227723598480225
 32
43.43758010864258
 13
26.38800621032715
 23
5.227723598480225
 33
43.43758010864258
  0
3DFACE
  8
0
 10
26.38800621032715
 20
5.227723598480225
 30
43.43758010864258
 11
30.32610321044922
 21
5.227725505828857
 31
42.24673843383789
 12
30.32610321044922
 22
30.204931259155273
 32
42.246742248535156
 13
30.32610321044922
 23
30.204931259155273
 33
42.246742248535156
  0
3DFACE
  8
0
 10
30.32610321044922
 20
5.227725505828857
 30
42.24673843383789
 11
33.95548629760742
 21
5.227725505828857
 31
40.31291198730469
 12
33.95548629760742
 22
30.204931259155273
 32
40.31291580200195
 13
33.95548629760742
 23
30.204931259155273
 33
40.31291580200195
  0
3DFACE
  8
0
 10
33.95548629760742
 20
5.227725505828857
 30
40.31291198730469
 11
37.13667297363281
 21
5.227725982666016
 31
37.71041488647461
 12
37.13667297363281
 22
30.204931259155273
 32
37.71041488647461
 13
37.13667297363281
 23
30.204931259155273
 33
37.71041488647461
  0
3DFACE
  8
0
 10
37.13667297363281
 20
5.227725982666016
 30
37.71041488647461
 11
39.747406005859375
 21
5.227727890014648
 31
34.53926086425781
 12
39.747406005859375
 22
30.186397552490234
 32
34.53926467895508
 13
39.747406005859375
 23
30.186397552490234
 33
34.53926467895508
  0
3DFACE
  8
0
 10
39.747406005859375
 20
5.227727890014648
 30
34.53926086425781
 11
41.687355041503906
 21
5.227729320526123
 31
30.921308517456055
 12
41.6878662109375
 22
30.183940887451172
 32
30.921539306640625
 13
41.6878662109375
 23
30.183940887451172
 33
30.921539306640625
  0
3DFACE
  8
0
 10
41.6878662109375
 20
30.183940887451172
 30
30.921539306640625
 11
41.687355041503906
 21
5.227729320526123
 31
30.921308517456055
 12
42.8819694519043
 22
5.227731227874756
 32
26.995615005493164
 13
42.8819694519043
 23
5.227731227874756
 33
26.995615005493164
  0
3DFACE
  8
0
 10
42.8819694519043
 20
5.227731227874756
 30
26.995615005493164
 11
43.28533935546875
 21
5.227725028991699
 31
22.913043975830078
 12
43.29964828491211
 22
30.114803314208984
 32
23.299413681030273
 13
43.29964828491211
 23
30.114803314208984
 33
23.299413681030273
  0
3DFACE
  8
0
 10
42.88196563720703
 20
5.227719783782959
 30
18.83043098449707
 11
41.687347412109375
 21
5.22772741317749
 31
14.90471076965332
 12
41.687339782714844
 22
30.18641471862793
 32
14.904717445373535
 13
41.687339782714844
 23
30.18641471862793
 33
14.904717445373535
  0
3DFACE
  8
0
 10
39.58869171142578
 20
30.089067459106445
 30
26.751039505004883
 11
39.258453369140625
 21
30.089101791381836
 31
29.031064987182617
 12
38.205230712890625
 22
30.167707443237305
 32
29.483497619628906
 13
38.205230712890625
 23
30.167707443237305
 33
29.483497619628906
  0
3DFACE
  8
0
 10
41.6878662109375
 20
30.183940887451172
 30
30.921539306640625
 11
38.205230712890625
 21
30.167707443237305
 31
29.483497619628906
 12
39.258453369140625
 22
30.089101791381836
 32
29.031064987182617
 13
39.258453369140625
 23
30.089101791381836
 33
29.031064987182617
  0
3DFACE
  8
0
 10
38.205753326416016
 20
7.016865253448486
 30
29.483701705932617
 11
38.205230712890625
 21
30.167707443237305
 31
29.483497619628906
 12
39.185997009277344
 22
30.16508674621582
 32
26.262710571289062
 13
39.185997009277344
 23
30.16508674621582
 33
26.262710571289062
  0
3DFACE
  8
0
 10
1.317647933959961
 20
30.075363159179688
 30
22.496826171875
 11
2.3448028564453125
 21
30.09287452697754
 31
22.90589714050293
 12
2.086650848388672
 22
30.092878341674805
 32
25.196331024169922
 13
2.086650848388672
 23
30.092878341674805
 33
25.196331024169922
  0
3DFACE
  8
0
 10
1.7024784088134766
 20
30.167688369750977
 30
26.9957332611084
 11
2.086650848388672
 21
30.092878341674805
 31
25.196331024169922
 12
4.327547073364258
 22
30.111328125
 32
25.448123931884766
 13
4.327547073364258
 23
30.111328125
 33
25.448123931884766
  0
3DFACE
  8
0
 10
41.819915771484375
 20
30.08904266357422
 30
27.072187423706055
 11
39.58869171142578
 21
30.089067459106445
 31
26.751039505004883
 12
39.185997009277344
 22
30.16508674621582
 32
26.262710571289062
 13
39.185997009277344
 23
30.16508674621582
 33
26.262710571289062
  0
3DFACE
  8
0
 10
2.8976402282714844
 20
30.136287689208984
 30
14.904728889465332
 11
3.0802154541015625
 21
30.097665786743164
 31
16.381437301635742
 12
5.320365905761719
 22
30.097686767578125
 32
16.63233757019043
 13
5.320365905761719
 23
30.097686767578125
 33
16.63233757019043
  0
3DFACE
  8
0
 10
5.39898681640625
 20
30.120189666748047
 30
19.563283920288086
 11
5.889122009277344
 21
30.120113372802734
 31
17.952808380126953
 12
5.071802139282227
 22
30.114316940307617
 32
18.83789825439453
 13
5.071802139282227
 23
30.114316940307617
 33
18.83789825439453
  0
3DFACE
  8
0
 10
5.889122009277344
 20
30.120113372802734
 30
17.952808380126953
 11
6.379156112670898
 21
30.12018585205078
 31
16.342304229736328
 12
5.320365905761719
 22
30.097686767578125
 32
16.63233757019043
 13
5.320365905761719
 23
30.097686767578125
 33
16.63233757019043
  0
3DFACE
  8
0
 10
6.379240989685059
 20
7.016866207122803
 30
16.342330932617188
 11
6.379156112670898
 21
30.12018585205078
 31
16.342304229736328
 12
5.889122009277344
 22
30.120113372802734
 32
17.952808380126953
 13
5.889122009277344
 23
30.120113372802734
 33
17.952808380126953
  0
3DFACE
  8
0
 10
5.889122009277344
 20
30.120113372802734
 30
17.952808380126953
 11
5.39898681640625
 21
30.120189666748047
 31
19.563283920288086
 12
5.399076461791992
 22
7.016866207122803
 32
19.563310623168945
 13
5.399076461791992
 23
7.016866207122803
 33
19.563310623168945
  0
3DFACE
  8
0
 10
5.06829833984375
 20
30.119632720947266
 30
22.91302490234375
 11
5.068113327026367
 21
7.016864776611328
 31
22.91301727294922
 12
5.399076461791992
 22
7.016866207122803
 32
19.563310623168945
 13
5.399076461791992
 23
7.016866207122803
 33
19.563310623168945
  0
3DFACE
  8
0
 10
5.399389266967773
 20
30.119251251220703
 30
26.262666702270508
 11
5.399076461791992
 21
7.016865253448486
 31
26.26272201538086
 12
5.068113327026367
 22
7.016864776611328
 32
22.91301727294922
 13
5.068113327026367
 23
7.016864776611328
 33
22.91301727294922
  0
3DFACE
  8
0
 10
5.399389266967773
 20
30.119251251220703
 30
26.262666702270508
 11
6.379239082336426
 21
30.170146942138672
 31
29.483705520629883
 12
6.379240989685059
 22
7.016865253448486
 32
29.483701705932617
 13
6.379240989685059
 23
7.016865253448486
 33
29.483701705932617
  0
3DFACE
  8
0
 10
6.379239082336426
 20
30.170146942138672
 30
29.483705520629883
 11
7.970940589904785
 21
30.1864013671875
 31
32.452178955078125
 12
7.970940589904785
 22
7.016865253448486
 32
32.45217514038086
 13
7.970940589904785
 23
7.016865253448486
 33
32.45217514038086
  0
3DFACE
  8
0
 10
10.11301040649414
 20
30.1864013671875
 30
35.05406951904297
 11
10.11301040649414
 21
7.0168657302856445
 31
35.0540657043457
 12
7.970940589904785
 22
7.016865253448486
 32
32.45217514038086
 13
7.970940589904785
 23
7.016865253448486
 33
32.45217514038086
  0
3DFACE
  8
0
 10
10.11301040649414
 20
30.1864013671875
 30
35.05406951904297
 11
12.723133087158203
 21
30.20493507385254
 31
37.18938446044922
 12
12.723133087158203
 22
7.016866683959961
 32
37.18938064575195
 13
12.723133087158203
 23
7.016866683959961
 33
37.18938064575195
  0
3DFACE
  8
0
 10
2.3448028564453125
 20
30.09287452697754
 30
22.90589714050293
 11
1.317647933959961
 21
30.075363159179688
 31
22.496826171875
 12
5.06829833984375
 22
30.119632720947266
 32
22.91302490234375
 13
5.06829833984375
 23
30.119632720947266
 33
22.91302490234375
  0
3DFACE
  8
0
 10
6.379156112670898
 20
30.12018585205078
 30
16.342304229736328
 11
6.379240989685059
 21
7.016866207122803
 31
16.342330932617188
 12
7.970940589904785
 22
7.016866683959961
 32
13.373858451843262
 13
7.970940589904785
 23
7.016866683959961
 33
13.373858451843262
  0
3DFACE
  8
0
 10
2.8222007751464844
 20
30.097694396972656
 30
18.670551300048828
 11
1.7030410766601562
 21
30.17017364501953
 31
18.83042335510254
 12
5.39898681640625
 22
30.120189666748047
 32
19.563283920288086
 13
5.39898681640625
 23
30.120189666748047
 33
19.563283920288086
  0
3DFACE
  8
0
 10
4.327362060546875
 20
35.226112365722656
 30
25.447847366333008
 11
2.0871658325195312
 21
35.22611618041992
 31
25.196949005126953
 12
3.080677032470703
 22
35.22611618041992
 32
16.382057189941406
 13
3.080677032470703
 23
35.22611618041992
 33
16.382057189941406
  0
3DFACE
  8
0
 10
2.0871658325195312
 20
35.22611618041992
 30
25.196949005126953
 11
2.086650848388672
 21
30.092878341674805
 31
25.196331024169922
 12
2.335805892944336
 22
34.11306381225586
 32
22.990821838378906
 13
2.335805892944336
 23
34.11306381225586
 33
22.990821838378906
  0
3DFACE
  8
0
 10
2.086650848388672
 20
30.092878341674805
 30
25.196331024169922
 11
2.3448028564453125
 21
30.09287452697754
 31
22.90589714050293
 12
2.335805892944336
 22
34.11306381225586
 32
22.990821838378906
 13
2.335805892944336
 23
34.11306381225586
 33
22.990821838378906
  0
3DFACE
  8
0
 10
2.8222007751464844
 20
30.097694396972656
 30
18.670551300048828
 11
3.0802154541015625
 21
30.097665786743164
 31
16.381437301635742
 12
2.832305908203125
 22
34.11305618286133
 32
18.585786819458008
 13
2.832305908203125
 23
34.11305618286133
 33
18.585786819458008
  0
3DFACE
  8
0
 10
3.0802154541015625
 20
30.097665786743164
 30
16.381437301635742
 11
3.080677032470703
 21
35.22611618041992
 31
16.382057189941406
 12
2.832305908203125
 22
34.11305618286133
 32
18.585786819458008
 13
2.832305908203125
 23
34.11305618286133
 33
18.585786819458008
  0
3DFACE
  8
0
 10
2.0871658325195312
 20
35.22611618041992
 30
25.196949005126953
 11
2.335805892944336
 21
34.11306381225586
 31
22.990821838378906
 12
3.080677032470703
 22
35.22611618041992
 32
16.382057189941406
 13
3.080677032470703
 23
35.22611618041992
 33
16.382057189941406
  0
3DFACE
  8
0
 10
40.52980041503906
 20
34.8795051574707
 30
20.249866485595703
 11
39.257850646972656
 21
34.87950134277344
 31
29.031557083129883
 12
41.48900604248047
 22
34.87950897216797
 32
29.352685928344727
 13
41.48900604248047
 23
34.87950897216797
 33
29.352685928344727
  0
3DFACE
  8
0
 10
43.121429443359375
 20
30.058368682861328
 30
19.19513511657715
 11
43.29964828491211
 21
30.114803314208984
 31
23.299413681030273
 12
43.28533935546875
 22
5.227725028991699
 32
22.913043975830078
 13
43.28533935546875
 23
5.227725028991699
 33
22.913043975830078
  0
3DFACE
  8
0
 10
41.6878662109375
 20
30.183940887451172
 30
30.921539306640625
 11
38.205230712890625
 21
30.167707443237305
 31
29.483497619628906
 12
39.747406005859375
 22
30.186397552490234
 32
34.53926467895508
 13
39.747406005859375
 23
30.186397552490234
 33
34.53926467895508
  0
3DFACE
  8
0
 10
38.205230712890625
 20
30.167707443237305
 30
29.483497619628906
 11
36.614051818847656
 21
30.1864013671875
 31
32.452178955078125
 12
39.747406005859375
 22
30.186397552490234
 32
34.53926467895508
 13
39.747406005859375
 23
30.186397552490234
 33
34.53926467895508
  0
3DFACE
  8
0
 10
36.614051818847656
 20
30.1864013671875
 30
32.452178955078125
 11
34.471981048583984
 21
30.186399459838867
 31
35.05406951904297
 12
37.13667297363281
 22
30.204931259155273
 32
37.71041488647461
 13
37.13667297363281
 23
30.204931259155273
 33
37.71041488647461
  0
3DFACE
  8
0
 10
39.747406005859375
 20
30.186397552490234
 30
34.53926467895508
 11
36.614051818847656
 21
30.1864013671875
 31
32.452178955078125
 12
37.13667297363281
 22
30.204931259155273
 32
37.71041488647461
 13
37.13667297363281
 23
30.204931259155273
 33
37.71041488647461
  0
3DFACE
  8
0
 10
30.32610321044922
 20
30.204931259155273
 30
42.246742248535156
 11
33.95548629760742
 21
30.204931259155273
 31
40.31291580200195
 12
31.861858367919922
 22
30.20493507385254
 32
37.18938446044922
 13
31.861858367919922
 23
30.20493507385254
 33
37.18938446044922
  0
3DFACE
  8
0
 10
33.95548629760742
 20
30.204931259155273
 30
40.31291580200195
 11
37.13667297363281
 21
30.204931259155273
 31
37.71041488647461
 12
34.471981048583984
 22
30.186399459838867
 32
35.05406951904297
 13
34.471981048583984
 23
30.186399459838867
 33
35.05406951904297
  0
3DFACE
  8
0
 10
31.861858367919922
 20
30.20493507385254
 30
37.18938446044922
 11
33.95548629760742
 21
30.204931259155273
 31
40.31291580200195
 12
34.471981048583984
 22
30.186399459838867
 32
35.05406951904297
 13
34.471981048583984
 23
30.186399459838867
 33
35.05406951904297
  0
3DFACE
  8
0
 10
22.33148956298828
 20
30.129695892333984
 30
43.98641586303711
 11
26.388004302978516
 21
30.204944610595703
 31
43.43757629394531
 12
22.292495727539062
 22
30.20493507385254
 32
40.083065032958984
 13
22.292495727539062
 23
30.20493507385254
 33
40.083065032958984
  0
3DFACE
  8
0
 10
26.388004302978516
 20
30.204944610595703
 30
43.43757629394531
 11
30.32610321044922
 21
30.204931259155273
 31
42.246742248535156
 12
28.883987426757812
 22
30.204933166503906
 32
38.77607345581055
 13
28.883987426757812
 23
30.204933166503906
 33
38.77607345581055
  0
3DFACE
  8
0
 10
25.652809143066406
 20
30.204933166503906
 30
39.75314712524414
 11
26.388004302978516
 21
30.204944610595703
 31
43.43757629394531
 12
28.883987426757812
 22
30.204933166503906
 32
38.77607345581055
 13
28.883987426757812
 23
30.204933166503906
 33
38.77607345581055
  0
3DFACE
  8
0
 10
14.29785442352295
 20
30.129701614379883
 30
42.393463134765625
 11
18.235977172851562
 21
30.12971305847168
 31
43.58430862426758
 12
18.93218231201172
 22
30.20493507385254
 32
39.75314712524414
 13
18.93218231201172
 23
30.20493507385254
 33
39.75314712524414
  0
3DFACE
  8
0
 10
18.235977172851562
 20
30.12971305847168
 30
43.58430862426758
 11
22.33148956298828
 21
30.129695892333984
 31
43.98641586303711
 12
22.292495727539062
 22
30.20493507385254
 32
40.083065032958984
 13
22.292495727539062
 23
30.20493507385254
 33
40.083065032958984
  0
3DFACE
  8
0
 10
7.448322296142578
 20
30.204931259155273
 30
37.71041488647461
 11
10.629499435424805
 21
30.204940795898438
 31
40.31290054321289
 12
10.11301040649414
 22
30.1864013671875
 32
35.05406951904297
 13
10.11301040649414
 23
30.1864013671875
 33
35.05406951904297
  0
3DFACE
  8
0
 10
10.629499435424805
 20
30.204940795898438
 30
40.31290054321289
 11
14.29785442352295
 21
30.129701614379883
 31
42.393463134765625
 12
15.70100212097168
 22
30.204933166503906
 32
38.77607345581055
 13
15.70100212097168
 23
30.204933166503906
 33
38.77607345581055
  0
3DFACE
  8
0
 10
10.11301040649414
 20
30.1864013671875
 30
35.05406951904297
 11
10.629499435424805
 21
30.204940795898438
 31
40.31290054321289
 12
12.723133087158203
 22
30.20493507385254
 32
37.18938446044922
 13
12.723133087158203
 23
30.20493507385254
 33
37.18938446044922
  0
3DFACE
  8
0
 10
2.897642135620117
 20
30.186399459838867
 30
30.92131805419922
 11
4.837591171264648
 21
30.1863956451416
 31
34.53926467895508
 12
6.379239082336426
 22
30.170146942138672
 32
29.483705520629883
 13
6.379239082336426
 23
30.170146942138672
 33
29.483705520629883
  0
3DFACE
  8
0
 10
4.837591171264648
 20
30.1863956451416
 30
34.53926467895508
 11
7.448322296142578
 21
30.204931259155273
 31
37.71041488647461
 12
7.970940589904785
 22
30.1864013671875
 32
32.452178955078125
 13
7.970940589904785
 23
30.1864013671875
 33
32.452178955078125
  0
3DFACE
  8
0
 10
7.970940589904785
 20
30.1864013671875
 30
32.452178955078125
 11
7.448322296142578
 21
30.204931259155273
 31
37.71041488647461
 12
10.11301040649414
 22
30.1864013671875
 32
35.05406951904297
 13
10.11301040649414
 23
30.1864013671875
 33
35.05406951904297
  0
3DFACE
  8
0
 10
5.399389266967773
 20
30.119251251220703
 30
26.262666702270508
 11
1.7024784088134766
 21
30.167688369750977
 31
26.9957332611084
 12
2.897642135620117
 22
30.186399459838867
 32
30.92131805419922
 13
2.897642135620117
 23
30.186399459838867
 33
30.92131805419922
  0
3DFACE
  8
0
 10
6.379239082336426
 20
30.170146942138672
 30
29.483705520629883
 11
5.399389266967773
 21
30.119251251220703
 31
26.262666702270508
 12
2.897642135620117
 22
30.186399459838867
 32
30.92131805419922
 13
2.897642135620117
 23
30.186399459838867
 33
30.92131805419922
  0
3DFACE
  8
0
 10
18.235977172851562
 20
30.12971305847168
 30
43.58430862426758
 11
22.292495727539062
 21
30.20493507385254
 31
40.083065032958984
 12
18.93218231201172
 22
30.20493507385254
 32
39.75314712524414
 13
18.93218231201172
 23
30.20493507385254
 33
39.75314712524414
  0
3DFACE
  8
0
 10
26.388004302978516
 20
30.204944610595703
 30
43.43757629394531
 11
25.652809143066406
 21
30.204933166503906
 31
39.75314712524414
 12
22.292495727539062
 22
30.20493507385254
 32
40.083065032958984
 13
22.292495727539062
 23
30.20493507385254
 33
40.083065032958984
  0
3DFACE
  8
0
 10
7.970940589904785
 20
30.1864013671875
 30
32.452178955078125
 11
6.379239082336426
 21
30.170146942138672
 31
29.483705520629883
 12
4.837591171264648
 22
30.1863956451416
 32
34.53926467895508
 13
4.837591171264648
 23
30.1863956451416
 33
34.53926467895508
  0
3DFACE
  8
0
 10
30.32610321044922
 20
30.204931259155273
 30
42.246742248535156
 11
31.861858367919922
 21
30.20493507385254
 31
37.18938446044922
 12
28.883987426757812
 22
30.204933166503906
 32
38.77607345581055
 13
28.883987426757812
 23
30.204933166503906
 33
38.77607345581055
  0
3DFACE
  8
0
 10
12.723133087158203
 20
30.20493507385254
 30
37.18938446044922
 11
10.629499435424805
 21
30.204940795898438
 31
40.31290054321289
 12
15.70100212097168
 22
30.204933166503906
 32
38.77607345581055
 13
15.70100212097168
 23
30.204933166503906
 33
38.77607345581055
  0
3DFACE
  8
0
 10
22.292776107788086
 20
30.205013275146484
 30
1.9864206314086914
 11
18.197216033935547
 21
30.20496940612793
 31
2.388442039489746
 12
18.93218231201172
 22
30.204931259155273
 32
6.072890281677246
 13
18.93218231201172
 23
30.204931259155273
 33
6.072890281677246
  0
3DFACE
  8
0
 10
18.197216033935547
 20
30.20496940612793
 30
2.388442039489746
 11
14.258889198303223
 21
30.204936981201172
 31
3.5792951583862305
 12
15.70100212097168
 22
30.204931259155273
 32
7.0499677658081055
 13
15.70100212097168
 23
30.204931259155273
 33
7.0499677658081055
  0
3DFACE
  8
0
 10
22.292776107788086
 20
30.205013275146484
 30
1.9864206314086914
 11
18.93218231201172
 21
30.204931259155273
 31
6.072890281677246
 12
22.292497634887695
 22
30.204933166503906
 32
5.742972373962402
 13
22.292497634887695
 23
30.204933166503906
 33
5.742972373962402
  0
3DFACE
  8
0
 10
14.258889198303223
 20
30.204936981201172
 30
3.5792951583862305
 11
10.629504203796387
 21
30.204936981201172
 31
5.513125419616699
 12
12.723133087158203
 22
30.204933166503906
 32
8.636652946472168
 13
12.723133087158203
 23
30.204933166503906
 33
8.636652946472168
  0
3DFACE
  8
0
 10
10.629504203796387
 20
30.204936981201172
 30
5.513125419616699
 11
7.448321342468262
 21
30.204936981201172
 31
8.115622520446777
 12
10.11301040649414
 22
30.186397552490234
 32
10.771971702575684
 13
10.11301040649414
 23
30.186397552490234
 33
10.771971702575684
  0
3DFACE
  8
0
 10
7.448321342468262
 20
30.204936981201172
 30
8.115622520446777
 11
4.837591171264648
 21
30.186405181884766
 31
11.28677749633789
 12
7.970937728881836
 22
30.186403274536133
 32
13.373861312866211
 13
7.970937728881836
 23
30.186403274536133
 33
13.373861312866211
  0
3DFACE
  8
0
 10
4.837591171264648
 20
30.186405181884766
 30
11.28677749633789
 11
2.8976402282714844
 21
30.136287689208984
 31
14.904728889465332
 12
6.379156112670898
 22
30.12018585205078
 32
16.342304229736328
 13
6.379156112670898
 23
30.12018585205078
 33
16.342304229736328
  0
3DFACE
  8
0
 10
7.448321342468262
 20
30.204936981201172
 30
8.115622520446777
 11
7.970937728881836
 21
30.186403274536133
 31
13.373861312866211
 12
10.11301040649414
 22
30.186397552490234
 32
10.771971702575684
 13
10.11301040649414
 23
30.186397552490234
 33
10.771971702575684
  0
3DFACE
  8
0
 10
6.379156112670898
 20
30.12018585205078
 30
16.342304229736328
 11
7.970937728881836
 21
30.186403274536133
 31
13.373861312866211
 12
4.837591171264648
 22
30.186405181884766
 32
11.28677749633789
 13
4.837591171264648
 23
30.186405181884766
 33
11.28677749633789
  0
3DFACE
  8
0
 10
10.629504203796387
 20
30.204936981201172
 30
5.513125419616699
 11
10.11301040649414
 21
30.186397552490234
 31
10.771971702575684
 12
12.723133087158203
 22
30.204933166503906
 32
8.636652946472168
 13
12.723133087158203
 23
30.204933166503906
 33
8.636652946472168
  0
3DFACE
  8
0
 10
26.387985229492188
 20
30.205013275146484
 30
2.388491630554199
 11
22.292776107788086
 21
30.205013275146484
 31
1.9864206314086914
 12
25.65281105041504
 22
30.204933166503906
 32
6.072890281677246
 13
25.65281105041504
 23
30.204933166503906
 33
6.072890281677246
  0
3DFACE
  8
0
 10
25.65281105041504
 20
30.204933166503906
 30
6.072890281677246
 11
22.292776107788086
 21
30.205013275146484
 31
1.9864206314086914
 12
22.292497634887695
 22
30.204933166503906
 32
5.742972373962402
 13
22.292497634887695
 23
30.204933166503906
 33
5.742972373962402
  0
3DFACE
  8
0
 10
33.955291748046875
 20
30.20496940612793
 30
5.513033866882324
 11
30.32581901550293
 21
30.205013275146484
 31
3.5792531967163086
 12
31.861862182617188
 22
30.20493507385254
 32
8.6366548538208
 13
31.861862182617188
 23
30.20493507385254
 33
8.6366548538208
  0
3DFACE
  8
0
 10
30.32581901550293
 20
30.205013275146484
 30
3.5792531967163086
 11
26.387985229492188
 21
30.205013275146484
 31
2.388491630554199
 12
28.883991241455078
 22
30.204933166503906
 32
7.0499677658081055
 13
28.883991241455078
 23
30.204933166503906
 33
7.0499677658081055
  0
3DFACE
  8
0
 10
28.883991241455078
 20
30.204933166503906
 30
7.0499677658081055
 11
26.387985229492188
 21
30.205013275146484
 31
2.388491630554199
 12
25.65281105041504
 22
30.204933166503906
 32
6.072890281677246
 13
25.65281105041504
 23
30.204933166503906
 33
6.072890281677246
  0
3DFACE
  8
0
 10
39.747406005859375
 20
30.186399459838867
 30
11.28677749633789
 11
37.13667297363281
 21
30.204936981201172
 31
8.115622520446777
 12
36.614051818847656
 22
30.186399459838867
 32
13.373862266540527
 13
36.614051818847656
 23
30.186399459838867
 33
13.373862266540527
  0
3DFACE
  8
0
 10
37.13667297363281
 20
30.204936981201172
 30
8.115622520446777
 11
33.955291748046875
 21
30.20496940612793
 31
5.513033866882324
 12
34.471981048583984
 22
30.186399459838867
 32
10.771971702575684
 13
34.471981048583984
 23
30.186399459838867
 33
10.771971702575684
  0
3DFACE
  8
0
 10
36.614051818847656
 20
30.186399459838867
 30
13.373862266540527
 11
37.13667297363281
 21
30.204936981201172
 31
8.115622520446777
 12
34.471981048583984
 22
30.186399459838867
 32
10.771971702575684
 13
34.471981048583984
 23
30.186399459838867
 33
10.771971702575684
  0
3DFACE
  8
0
 10
43.121429443359375
 20
30.058368682861328
 30
19.19513511657715
 11
41.687339782714844
 21
30.18641471862793
 31
14.904717445373535
 12
39.18601989746094
 22
30.17032241821289
 32
19.563297271728516
 13
39.18601989746094
 23
30.17032241821289
 33
19.563297271728516
  0
3DFACE
  8
0
 10
41.687339782714844
 20
30.18641471862793
 30
14.904717445373535
 11
39.747406005859375
 21
30.186399459838867
 31
11.28677749633789
 12
38.205753326416016
 22
30.17014503479004
 32
16.342336654663086
 13
38.205753326416016
 23
30.17014503479004
 33
16.342336654663086
  0
3DFACE
  8
0
 10
38.205753326416016
 20
30.17014503479004
 30
16.342336654663086
 11
39.747406005859375
 21
30.186399459838867
 31
11.28677749633789
 12
36.614051818847656
 22
30.186399459838867
 32
13.373862266540527
 13
36.614051818847656
 23
30.186399459838867
 33
13.373862266540527
  0
3DFACE
  8
0
 10
38.205753326416016
 20
30.17014503479004
 30
16.342336654663086
 11
39.18601989746094
 21
30.17032241821289
 31
19.563297271728516
 12
41.687339782714844
 22
30.18641471862793
 32
14.904717445373535
 13
41.687339782714844
 23
30.18641471862793
 33
14.904717445373535
  0
3DFACE
  8
0
 10
14.258889198303223
 20
30.204936981201172
 30
3.5792951583862305
 11
12.723133087158203
 21
30.204933166503906
 31
8.636652946472168
 12
15.70100212097168
 22
30.204931259155273
 32
7.0499677658081055
 13
15.70100212097168
 23
30.204931259155273
 33
7.0499677658081055
  0
3DFACE
  8
0
 10
15.70100212097168
 20
30.204931259155273
 30
7.0499677658081055
 11
18.93218231201172
 21
30.204931259155273
 31
6.072890281677246
 12
18.197216033935547
 22
30.20496940612793
 32
2.388442039489746
 13
18.197216033935547
 23
30.20496940612793
 33
2.388442039489746
  0
3DFACE
  8
0
 10
31.861862182617188
 20
30.20493507385254
 30
8.6366548538208
 11
34.471981048583984
 21
30.186399459838867
 31
10.771971702575684
 12
33.955291748046875
 22
30.20496940612793
 32
5.513033866882324
 13
33.955291748046875
 23
30.20496940612793
 33
5.513033866882324
  0
3DFACE
  8
0
 10
41.48965835571289
 20
30.168880462646484
 30
29.352237701416016
 11
41.819915771484375
 21
30.08904266357422
 31
27.072187423706055
 12
42.881961822509766
 22
30.165203094482422
 32
26.707487106323242
 13
42.881961822509766
 23
30.165203094482422
 33
26.707487106323242
  0
3DFACE
  8
0
 10
42.881961822509766
 20
30.165203094482422
 30
26.707487106323242
 11
39.185997009277344
 21
30.16508674621582
 31
26.262710571289062
 12
39.516326904296875
 22
30.167917251586914
 32
22.913007736206055
 13
39.516326904296875
 23
30.167917251586914
 33
22.913007736206055
  0
3DFACE
  8
0
 10
5.39898681640625
 20
30.120189666748047
 30
19.563283920288086
 11
1.7030410766601562
 21
30.17017364501953
 31
18.83042335510254
 12
1.317647933959961
 22
30.075363159179688
 32
22.496826171875
 13
1.317647933959961
 23
30.075363159179688
 33
22.496826171875
  0
3DFACE
  8
0
 10
42.76095199584961
 20
34.87950134277344
 30
20.570995330810547
 11
42.76146697998047
 21
30.100107192993164
 31
20.57163429260254
 12
40.530311584472656
 22
30.100107192993164
 32
20.250511169433594
 13
40.530311584472656
 23
30.100107192993164
 33
20.250511169433594
  0
3DFACE
  8
0
 10
41.48965835571289
 20
30.168880462646484
 30
29.352237701416016
 11
41.48900604248047
 21
34.87950897216797
 31
29.352685928344727
 12
39.257850646972656
 22
34.87950134277344
 32
29.031557083129883
 13
39.257850646972656
 23
34.87950134277344
 33
29.031557083129883
  0
3DFACE
  8
0
 10
4.327547073364258
 20
30.111328125
 30
25.448123931884766
 11
4.327362060546875
 21
35.226112365722656
 31
25.447847366333008
 12
2.0871658325195312
 22
35.22611618041992
 32
25.196949005126953
 13
2.0871658325195312
 23
35.22611618041992
 33
25.196949005126953
  0
3DFACE
  8
0
 10
5.320365905761719
 20
30.097686767578125
 30
16.63233757019043
 11
5.3208770751953125
 21
35.22611999511719
 31
16.632957458496094
 12
3.080677032470703
 22
35.22611618041992
 32
16.382057189941406
 13
3.080677032470703
 23
35.22611618041992
 33
16.382057189941406
  0
3DFACE
  8
0
 10
2.832305908203125
 20
34.11305618286133
 30
18.585786819458008
 11
2.8222007751464844
 21
30.097694396972656
 31
18.670551300048828
 12
5.071802139282227
 22
30.114316940307617
 32
18.83789825439453
 13
5.071802139282227
 23
30.114316940307617
 33
18.83789825439453
  0
3DFACE
  8
0
 10
40.211891174316406
 20
33.766414642333984
 30
22.44468879699707
 11
42.443031311035156
 21
33.76639938354492
 31
22.76582145690918
 12
42.443267822265625
 22
30.116701126098633
 32
22.76828956604004
 13
42.443267822265625
 23
30.116701126098633
 33
22.76828956604004
  0
3DFACE
  8
0
 10
5.06829833984375
 20
30.119632720947266
 30
22.91302490234375
 11
4.585897445678711
 21
30.094833374023438
 31
23.156051635742188
 12
4.327547073364258
 22
30.111328125
 32
25.448123931884766
 13
4.327547073364258
 23
30.111328125
 33
25.448123931884766
  0
3DFACE
  8
0
 10
41.80691146850586
 20
33.76641082763672
 30
27.15787696838379
 11
41.819915771484375
 21
30.08904266357422
 31
27.072187423706055
 12
41.48965835571289
 22
30.168880462646484
 32
29.352237701416016
 13
41.48965835571289
 23
30.168880462646484
 33
29.352237701416016
  0
3DFACE
  8
0
 10
42.76095199584961
 20
34.87950134277344
 30
20.570995330810547
 11
42.76146697998047
 21
30.100107192993164
 31
20.57163429260254
 12
42.443031311035156
 22
33.76639938354492
 32
22.76582145690918
 13
42.443031311035156
 23
33.76639938354492
 33
22.76582145690918
  0
3DFACE
  8
0
 10
42.76146697998047
 20
30.100107192993164
 30
20.57163429260254
 11
42.443267822265625
 21
30.116701126098633
 31
22.76828956604004
 12
42.443031311035156
 22
33.76639938354492
 32
22.76582145690918
 13
42.443031311035156
 23
33.76639938354492
 33
22.76582145690918
  0
3DFACE
  8
0
 10
41.80691146850586
 20
33.76641082763672
 30
27.15787696838379
 11
41.48965835571289
 21
30.168880462646484
 31
29.352237701416016
 12
41.48900604248047
 22
34.87950897216797
 32
29.352685928344727
 13
41.48900604248047
 23
34.87950897216797
 33
29.352685928344727
  0
3DFACE
  8
0
 10
42.76095199584961
 20
34.87950134277344
 30
20.570995330810547
 11
42.443031311035156
 21
33.76639938354492
 31
22.76582145690918
 12
41.80691146850586
 22
33.76641082763672
 32
27.15787696838379
 13
41.80691146850586
 23
33.76641082763672
 33
27.15787696838379
  0
3DFACE
  8
0
 10
40.530311584472656
 20
30.100107192993164
 30
20.250511169433594
 11
40.20008850097656
 21
30.1000919342041
 31
22.53041648864746
 12
40.211891174316406
 22
33.766414642333984
 32
22.44468879699707
 13
40.211891174316406
 23
33.766414642333984
 33
22.44468879699707
  0
3DFACE
  8
0
 10
39.57575225830078
 20
33.76641082763672
 30
26.836750030517578
 11
39.58869171142578
 21
30.089067459106445
 31
26.751039505004883
 12
39.258453369140625
 22
30.089101791381836
 32
29.031064987182617
 13
39.258453369140625
 23
30.089101791381836
 33
29.031064987182617
  0
3DFACE
  8
0
 10
40.52980041503906
 20
34.8795051574707
 30
20.249866485595703
 11
40.530311584472656
 21
30.100107192993164
 31
20.250511169433594
 12
40.211891174316406
 22
33.766414642333984
 32
22.44468879699707
 13
40.211891174316406
 23
33.766414642333984
 33
22.44468879699707
  0
3DFACE
  8
0
 10
39.57575225830078
 20
33.76641082763672
 30
26.836750030517578
 11
39.258453369140625
 21
30.089101791381836
 31
29.031064987182617
 12
39.257850646972656
 22
34.87950134277344
 32
29.031557083129883
 13
39.257850646972656
 23
34.87950134277344
 33
29.031557083129883
  0
3DFACE
  8
0
 10
40.52980041503906
 20
34.8795051574707
 30
20.249866485595703
 11
40.211891174316406
 21
33.766414642333984
 31
22.44468879699707
 12
39.257850646972656
 22
34.87950134277344
 32
29.031557083129883
 13
39.257850646972656
 23
34.87950134277344
 33
29.031557083129883
  0
3DFACE
  8
0
 10
4.327547073364258
 20
30.111328125
 30
25.448123931884766
 11
4.585897445678711
 21
30.094833374023438
 31
23.156051635742188
 12
4.5760040283203125
 22
34.113059997558594
 32
23.241722106933594
 13
4.5760040283203125
 23
34.113059997558594
 33
23.241722106933594
  0
3DFACE
  8
0
 10
5.072517395019531
 20
34.11307144165039
 30
18.836681365966797
 11
5.071802139282227
 21
30.114316940307617
 31
18.83789825439453
 12
5.320365905761719
 22
30.097686767578125
 32
16.63233757019043
 13
5.320365905761719
 23
30.097686767578125
 33
16.63233757019043
  0
3DFACE
  8
0
 10
4.327362060546875
 20
35.226112365722656
 30
25.447847366333008
 11
4.327547073364258
 21
30.111328125
 31
25.448123931884766
 12
4.5760040283203125
 22
34.113059997558594
 32
23.241722106933594
 13
4.5760040283203125
 23
34.113059997558594
 33
23.241722106933594
  0
3DFACE
  8
0
 10
5.072517395019531
 20
34.11307144165039
 30
18.836681365966797
 11
5.320365905761719
 21
30.097686767578125
 31
16.63233757019043
 12
5.3208770751953125
 22
35.22611999511719
 32
16.632957458496094
 13
5.3208770751953125
 23
35.22611999511719
 33
16.632957458496094
  0
3DFACE
  8
0
 10
4.327362060546875
 20
35.226112365722656
 30
25.447847366333008
 11
4.5760040283203125
 21
34.113059997558594
 31
23.241722106933594
 12
5.3208770751953125
 22
35.22611999511719
 32
16.632957458496094
 13
5.3208770751953125
 23
35.22611999511719
 33
16.632957458496094
  0
3DFACE
  8
0
 10
38.205753326416016
 20
7.016866207122803
 30
16.342330932617188
 11
36.614051818847656
 21
7.016866683959961
 31
13.373858451843262
 12
34.471981048583984
 22
7.0168657302856445
 32
35.0540657043457
 13
34.471981048583984
 23
7.0168657302856445
 33
35.0540657043457
  0
3DFACE
  8
0
 10
36.614051818847656
 20
7.016866683959961
 30
13.373858451843262
 11
34.471981048583984
 21
7.016867637634277
 31
10.771966934204102
 12
34.471981048583984
 22
7.0168657302856445
 32
35.0540657043457
 13
34.471981048583984
 23
7.0168657302856445
 33
35.0540657043457
  0
3DFACE
  8
0
 10
34.471981048583984
 20
7.016867637634277
 30
10.771966934204102
 11
31.861858367919922
 21
7.016868591308594
 31
8.636651039123535
 12
28.883989334106445
 22
7.016866683959961
 32
38.77606964111328
 13
28.883989334106445
 23
7.016866683959961
 33
38.77606964111328
  0
3DFACE
  8
0
 10
31.861858367919922
 20
7.016868591308594
 30
8.636651039123535
 11
28.883989334106445
 21
7.016869068145752
 31
7.04996395111084
 12
28.883989334106445
 22
7.016866683959961
 32
38.77606964111328
 13
28.883989334106445
 23
7.016866683959961
 33
38.77606964111328
  0
3DFACE
  8
0
 10
28.883989334106445
 20
7.016869068145752
 30
7.04996395111084
 11
25.65281105041504
 21
7.016869068145752
 31
6.072888374328613
 12
28.883989334106445
 22
7.016866683959961
 32
38.77606964111328
 13
28.883989334106445
 23
7.016866683959961
 33
38.77606964111328
  0
3DFACE
  8
0
 10
25.65281105041504
 20
7.016869068145752
 30
6.072888374328613
 11
22.292495727539062
 21
7.016869068145752
 31
5.742968559265137
 12
28.883989334106445
 22
7.016866683959961
 32
38.77606964111328
 13
28.883989334106445
 23
7.016866683959961
 33
38.77606964111328
  0
3DFACE
  8
0
 10
22.292495727539062
 20
7.016869068145752
 30
5.742968559265137
 11
18.93218231201172
 21
7.016869068145752
 31
6.072888374328613
 12
22.292495727539062
 22
7.016866207122803
 32
40.08306121826172
 13
22.292495727539062
 23
7.016866207122803
 33
40.08306121826172
  0
3DFACE
  8
0
 10
18.93218231201172
 20
7.016869068145752
 30
6.072888374328613
 11
15.70100212097168
 21
7.016869068145752
 31
7.04996395111084
 12
22.292495727539062
 22
7.016866207122803
 32
40.08306121826172
 13
22.292495727539062
 23
7.016866207122803
 33
40.08306121826172
  0
3DFACE
  8
0
 10
15.70100212097168
 20
7.016869068145752
 30
7.04996395111084
 11
12.723133087158203
 21
7.016868591308594
 31
8.636651039123535
 12
10.11301040649414
 22
7.0168657302856445
 32
35.0540657043457
 13
10.11301040649414
 23
7.0168657302856445
 33
35.0540657043457
  0
3DFACE
  8
0
 10
12.723133087158203
 20
7.016868591308594
 30
8.636651039123535
 11
10.11301040649414
 21
7.016867637634277
 31
10.771966934204102
 12
10.11301040649414
 22
7.0168657302856445
 32
35.0540657043457
 13
10.11301040649414
 23
7.0168657302856445
 33
35.0540657043457
  0
3DFACE
  8
0
 10
10.11301040649414
 20
7.016867637634277
 30
10.771966934204102
 11
7.970940589904785
 21
7.016866683959961
 31
13.373858451843262
 12
6.379240989685059
 22
7.016865253448486
 32
29.483701705932617
 13
6.379240989685059
 23
7.016865253448486
 33
29.483701705932617
  0
3DFACE
  8
0
 10
7.970940589904785
 20
7.016866683959961
 30
13.373858451843262
 11
6.379240989685059
 21
7.016866207122803
 31
16.342330932617188
 12
6.379240989685059
 22
7.016865253448486
 32
29.483701705932617
 13
6.379240989685059
 23
7.016865253448486
 33
29.483701705932617
  0
3DFACE
  8
0
 10
6.379240989685059
 20
7.016866207122803
 30
16.342330932617188
 11
5.399076461791992
 21
7.016866207122803
 31
19.563310623168945
 12
6.379240989685059
 22
7.016865253448486
 32
29.483701705932617
 13
6.379240989685059
 23
7.016865253448486
 33
29.483701705932617
  0
3DFACE
  8
0
 10
5.399076461791992
 20
7.016866207122803
 30
19.563310623168945
 11
5.068113327026367
 21
7.016864776611328
 31
22.91301727294922
 12
5.399076461791992
 22
7.016865253448486
 32
26.26272201538086
 13
5.399076461791992
 23
7.016865253448486
 33
26.26272201538086
  0
3DFACE
  8
0
 10
6.379240989685059
 20
7.016865253448486
 30
29.483701705932617
 11
5.399076461791992
 21
7.016866207122803
 31
19.563310623168945
 12
5.399076461791992
 22
7.016865253448486
 32
26.26272201538086
 13
5.399076461791992
 23
7.016865253448486
 33
26.26272201538086
  0
3DFACE
  8
0
 10
6.379240989685059
 20
7.016865253448486
 30
29.483701705932617
 11
7.970940589904785
 21
7.016865253448486
 31
32.45217514038086
 12
10.11301040649414
 22
7.016867637634277
 32
10.771966934204102
 13
10.11301040649414
 23
7.016867637634277
 33
10.771966934204102
  0
3DFACE
  8
0
 10
7.970940589904785
 20
7.016865253448486
 30
32.45217514038086
 11
10.11301040649414
 21
7.0168657302856445
 31
35.0540657043457
 12
10.11301040649414
 22
7.016867637634277
 32
10.771966934204102
 13
10.11301040649414
 23
7.016867637634277
 33
10.771966934204102
  0
3DFACE
  8
0
 10
10.11301040649414
 20
7.0168657302856445
 30
35.0540657043457
 11
12.723133087158203
 21
7.016866683959961
 31
37.18938064575195
 12
15.70100212097168
 22
7.016869068145752
 32
7.04996395111084
 13
15.70100212097168
 23
7.016869068145752
 33
7.04996395111084
  0
3DFACE
  8
0
 10
12.723133087158203
 20
7.016866683959961
 30
37.18938064575195
 11
15.70100212097168
 21
7.016866683959961
 31
38.77606964111328
 12
15.70100212097168
 22
7.016869068145752
 32
7.04996395111084
 13
15.70100212097168
 23
7.016869068145752
 33
7.04996395111084
  0
3DFACE
  8
0
 10
15.70100212097168
 20
7.016866683959961
 30
38.77606964111328
 11
18.93218231201172
 21
7.016866207122803
 31
39.753143310546875
 12
15.70100212097168
 22
7.016869068145752
 32
7.04996395111084
 13
15.70100212097168
 23
7.016869068145752
 33
7.04996395111084
  0
3DFACE
  8
0
 10
18.93218231201172
 20
7.016866207122803
 30
39.753143310546875
 11
22.292495727539062
 21
7.016866207122803
 31
40.08306121826172
 12
15.70100212097168
 22
7.016869068145752
 32
7.04996395111084
 13
15.70100212097168
 23
7.016869068145752
 33
7.04996395111084
  0
3DFACE
  8
0
 10
22.292495727539062
 20
7.016866207122803
 30
40.08306121826172
 11
25.65281105041504
 21
7.016866207122803
 31
39.753143310546875
 12
22.292495727539062
 22
7.016869068145752
 32
5.742968559265137
 13
22.292495727539062
 23
7.016869068145752
 33
5.742968559265137
  0
3DFACE
  8
0
 10
25.65281105041504
 20
7.016866207122803
 30
39.753143310546875
 11
28.883989334106445
 21
7.016866683959961
 31
38.77606964111328
 12
22.292495727539062
 22
7.016869068145752
 32
5.742968559265137
 13
22.292495727539062
 23
7.016869068145752
 33
5.742968559265137
  0
3DFACE
  8
0
 10
28.883989334106445
 20
7.016866683959961
 30
38.77606964111328
 11
31.861858367919922
 21
7.016866683959961
 31
37.18938064575195
 12
34.471981048583984
 22
7.016867637634277
 32
10.771966934204102
 13
34.471981048583984
 23
7.016867637634277
 33
10.771966934204102
  0
3DFACE
  8
0
 10
31.861858367919922
 20
7.016866683959961
 30
37.18938064575195
 11
34.471981048583984
 21
7.0168657302856445
 31
35.0540657043457
 12
34.471981048583984
 22
7.016867637634277
 32
10.771966934204102
 13
34.471981048583984
 23
7.016867637634277
 33
10.771966934204102
  0
3DFACE
  8
0
 10
34.471981048583984
 20
7.0168657302856445
 30
35.0540657043457
 11
36.614051818847656
 21
7.016865253448486
 31
32.45217514038086
 12
38.205753326416016
 22
7.016866207122803
 32
16.342330932617188
 13
38.205753326416016
 23
7.016866207122803
 33
16.342330932617188
  0
3DFACE
  8
0
 10
36.614051818847656
 20
7.016865253448486
 30
32.45217514038086
 11
38.205753326416016
 21
7.016865253448486
 31
29.483701705932617
 12
38.205753326416016
 22
7.016866207122803
 32
16.342330932617188
 13
38.205753326416016
 23
7.016866207122803
 33
16.342330932617188
  0
3DFACE
  8
0
 10
38.205753326416016
 20
7.016865253448486
 30
29.483701705932617
 11
39.185916900634766
 21
7.016865253448486
 31
26.26272201538086
 12
39.185916900634766
 22
7.016866207122803
 32
19.563310623168945
 13
39.185916900634766
 23
7.016866207122803
 33
19.563310623168945
  0
3DFACE
  8
0
 10
39.185916900634766
 20
7.016865253448486
 30
26.26272201538086
 11
39.51688003540039
 21
7.016864776611328
 31
22.91301727294922
 12
39.185916900634766
 22
7.016866207122803
 32
19.563310623168945
 13
39.185916900634766
 23
7.016866207122803
 33
19.563310623168945
  0
3DFACE
  8
0
 10
18.197216033935547
 20
5.227695941925049
 30
2.3884401321411133
 11
22.292776107788086
 21
5.227652072906494
 31
1.9864168167114258
 12
26.38800621032715
 22
5.227723598480225
 32
43.43758010864258
 13
26.38800621032715
 23
5.227723598480225
 33
43.43758010864258
  0
3DFACE
  8
0
 10
22.292776107788086
 20
5.227652072906494
 30
1.9864168167114258
 11
26.387985229492188
 21
5.227652072906494
 31
2.3884878158569336
 12
26.38800621032715
 22
5.227723598480225
 32
43.43758010864258
 13
26.38800621032715
 23
5.227723598480225
 33
43.43758010864258
  0
3DFACE
  8
0
 10
26.387985229492188
 20
5.227652072906494
 30
2.3884878158569336
 11
30.325817108154297
 21
5.227652072906494
 31
3.579249382019043
 12
26.38800621032715
 22
5.227723598480225
 32
43.43758010864258
 13
26.38800621032715
 23
5.227723598480225
 33
43.43758010864258
  0
3DFACE
  8
0
 10
30.325817108154297
 20
5.227652072906494
 30
3.579249382019043
 11
33.955291748046875
 21
5.227695941925049
 31
5.513030052185059
 12
26.38800621032715
 22
5.227723598480225
 32
43.43758010864258
 13
26.38800621032715
 23
5.227723598480225
 33
43.43758010864258
  0
3DFACE
  8
0
 10
33.955291748046875
 20
5.227695941925049
 30
5.513030052185059
 11
37.13667297363281
 21
5.227727890014648
 31
8.115618705749512
 12
39.747406005859375
 22
5.227727890014648
 32
34.53926086425781
 13
39.747406005859375
 23
5.227727890014648
 33
34.53926086425781
  0
3DFACE
  8
0
 10
37.13667297363281
 20
5.227727890014648
 30
8.115618705749512
 11
39.747406005859375
 21
5.227729797363281
 31
11.286772727966309
 12
39.747406005859375
 22
5.227727890014648
 32
34.53926086425781
 13
39.747406005859375
 23
5.227727890014648
 33
34.53926086425781
  0
3DFACE
  8
0
 10
39.747406005859375
 20
5.227729797363281
 30
11.286772727966309
 11
41.687347412109375
 21
5.22772741317749
 31
14.90471076965332
 12
39.747406005859375
 22
5.227727890014648
 32
34.53926086425781
 13
39.747406005859375
 23
5.227727890014648
 33
34.53926086425781
  0
3DFACE
  8
0
 10
41.687347412109375
 20
5.22772741317749
 30
14.90471076965332
 11
42.88196563720703
 21
5.227719783782959
 31
18.83043098449707
 12
39.747406005859375
 22
5.227727890014648
 32
34.53926086425781
 13
39.747406005859375
 23
5.227727890014648
 33
34.53926086425781
  0
3DFACE
  8
0
 10
42.88196563720703
 20
5.227719783782959
 30
18.83043098449707
 11
43.28533935546875
 21
5.227725028991699
 31
22.913043975830078
 12
42.8819694519043
 22
5.227731227874756
 32
26.995615005493164
 13
42.8819694519043
 23
5.227731227874756
 33
26.995615005493164
  0
3DFACE
  8
0
 10
42.8819694519043
 20
5.227731227874756
 30
26.995615005493164
 11
41.687355041503906
 21
5.227729320526123
 31
30.921308517456055
 12
42.88196563720703
 22
5.227719783782959
 32
18.83043098449707
 13
42.88196563720703
 23
5.227719783782959
 33
18.83043098449707
  0
3DFACE
  8
0
 10
41.687355041503906
 20
5.227729320526123
 30
30.921308517456055
 11
39.747406005859375
 21
5.227727890014648
 31
34.53926086425781
 12
42.88196563720703
 22
5.227719783782959
 32
18.83043098449707
 13
42.88196563720703
 23
5.227719783782959
 33
18.83043098449707
  0
3DFACE
  8
0
 10
39.747406005859375
 20
5.227727890014648
 30
34.53926086425781
 11
37.13667297363281
 21
5.227725982666016
 31
37.71041488647461
 12
33.955291748046875
 22
5.227695941925049
 32
5.513030052185059
 13
33.955291748046875
 23
5.227695941925049
 33
5.513030052185059
  0
3DFACE
  8
0
 10
37.13667297363281
 20
5.227725982666016
 30
37.71041488647461
 11
33.95548629760742
 21
5.227725505828857
 31
40.31291198730469
 12
33.955291748046875
 22
5.227695941925049
 32
5.513030052185059
 13
33.955291748046875
 23
5.227695941925049
 33
5.513030052185059
  0
3DFACE
  8
0
 10
33.95548629760742
 20
5.227725505828857
 30
40.31291198730469
 11
30.32610321044922
 21
5.227725505828857
 31
42.24673843383789
 12
33.955291748046875
 22
5.227695941925049
 32
5.513030052185059
 13
33.955291748046875
 23
5.227695941925049
 33
5.513030052185059
  0
3DFACE
  8
0
 10
30.32610321044922
 20
5.227725505828857
 30
42.24673843383789
 11
26.38800621032715
 21
5.227723598480225
 31
43.43758010864258
 12
33.955291748046875
 22
5.227695941925049
 32
5.513030052185059
 13
33.955291748046875
 23
5.227695941925049
 33
5.513030052185059
  0
3DFACE
  8
0
 10
26.38800621032715
 20
5.227723598480225
 30
43.43758010864258
 11
22.292509078979492
 21
5.227715015411377
 31
43.83967971801758
 12
18.197216033935547
 22
5.227695941925049
 32
2.3884401321411133
 13
18.197216033935547
 23
5.227695941925049
 33
2.3884401321411133
  0
3DFACE
  8
0
 10
22.292509078979492
 20
5.227715015411377
 30
43.83967971801758
 11
18.19700050354004
 21
5.227713108062744
 31
43.43758010864258
 12
18.197216033935547
 22
5.227695941925049
 32
2.3884401321411133
 13
18.197216033935547
 23
5.227695941925049
 33
2.3884401321411133
  0
3DFACE
  8
0
 10
18.19700050354004
 20
5.227713108062744
 30
43.43758010864258
 11
14.258880615234375
 21
5.227715969085693
 31
42.24673080444336
 12
18.197216033935547
 22
5.227695941925049
 32
2.3884401321411133
 13
18.197216033935547
 23
5.227695941925049
 33
2.3884401321411133
  0
3DFACE
  8
0
 10
14.258880615234375
 20
5.227715969085693
 30
42.24673080444336
 11
10.629496574401855
 21
5.227724552154541
 31
40.312904357910156
 12
18.197216033935547
 22
5.227695941925049
 32
2.3884401321411133
 13
18.197216033935547
 23
5.227695941925049
 33
2.3884401321411133
  0
3DFACE
  8
0
 10
10.629496574401855
 20
5.227724552154541
 30
40.312904357910156
 11
7.448321342468262
 21
5.227725982666016
 31
37.71041488647461
 12
4.837591171264648
 22
5.227729797363281
 32
11.286772727966309
 13
4.837591171264648
 23
5.227729797363281
 33
11.286772727966309
  0
3DFACE
  8
0
 10
7.448321342468262
 20
5.227725982666016
 30
37.71041488647461
 11
4.837591171264648
 21
5.227727890014648
 31
34.53926086425781
 12
4.837591171264648
 22
5.227729797363281
 32
11.286772727966309
 13
4.837591171264648
 23
5.227729797363281
 33
11.286772727966309
  0
3DFACE
  8
0
 10
4.837591171264648
 20
5.227727890014648
 30
34.53926086425781
 11
2.8976402282714844
 21
5.227728366851807
 31
30.921314239501953
 12
4.837591171264648
 22
5.227729797363281
 32
11.286772727966309
 13
4.837591171264648
 23
5.227729797363281
 33
11.286772727966309
  0
3DFACE
  8
0
 10
2.8976402282714844
 20
5.227728366851807
 30
30.921314239501953
 11
1.7030220031738281
 21
5.227729320526123
 31
26.995607376098633
 12
4.837591171264648
 22
5.227729797363281
 32
11.286772727966309
 13
4.837591171264648
 23
5.227729797363281
 33
11.286772727966309
  0
3DFACE
  8
0
 10
1.7030220031738281
 20
5.227729320526123
 30
26.995607376098633
 11
1.2996501922607422
 21
5.227729797363281
 31
22.91301155090332
 12
1.7030258178710938
 22
5.227729320526123
 32
18.830419540405273
 13
1.7030258178710938
 23
5.227729320526123
 33
18.830419540405273
  0
3DFACE
  8
0
 10
1.7030258178710938
 20
5.227729320526123
 30
18.830419540405273
 11
2.8976402282714844
 21
5.227729320526123
 31
14.904720306396484
 12
1.7030220031738281
 22
5.227729320526123
 32
26.995607376098633
 13
1.7030220031738281
 23
5.227729320526123
 33
26.995607376098633
  0
3DFACE
  8
0
 10
2.8976402282714844
 20
5.227729320526123
 30
14.904720306396484
 11
4.837591171264648
 21
5.227729797363281
 31
11.286772727966309
 12
1.7030220031738281
 22
5.227729320526123
 32
26.995607376098633
 13
1.7030220031738281
 23
5.227729320526123
 33
26.995607376098633
  0
3DFACE
  8
0
 10
4.837591171264648
 20
5.227729797363281
 30
11.286772727966309
 11
7.448321342468262
 21
5.227727890014648
 31
8.115618705749512
 12
10.629496574401855
 22
5.227724552154541
 32
40.312904357910156
 13
10.629496574401855
 23
5.227724552154541
 33
40.312904357910156
  0
3DFACE
  8
0
 10
7.448321342468262
 20
5.227727890014648
 30
8.115618705749512
 11
10.629504203796387
 21
5.227728366851807
 31
5.513121604919434
 12
10.629496574401855
 22
5.227724552154541
 32
40.312904357910156
 13
10.629496574401855
 23
5.227724552154541
 33
40.312904357910156
  0
3DFACE
  8
0
 10
10.629504203796387
 20
5.227728366851807
 30
5.513121604919434
 11
14.258889198303223
 21
5.227728366851807
 31
3.579291343688965
 12
10.629496574401855
 22
5.227724552154541
 32
40.312904357910156
 13
10.629496574401855
 23
5.227724552154541
 33
40.312904357910156
  0
3DFACE
  8
0
 10
22.292495727539062
 20
30.202470779418945
 30
1.9878625869750977
 11
18.19728660583496
 21
30.202470779418945
 31
2.3899335861206055
 12
18.19728660583496
 22
5.2301926612854
 32
2.3899316787719727
 13
18.19728660583496
 23
5.2301926612854
 33
2.3899316787719727
  0
3DFACE
  8
0
 10
22.292495727539062
 20
30.202470779418945
 30
1.9878625869750977
 11
18.19728660583496
 21
5.2301926612854
 31
2.3899316787719727
 12
22.292495727539062
 22
5.2301926612854
 32
1.9878606796264648
 13
22.292495727539062
 23
5.2301926612854
 33
1.9878606796264648
  0
3DFACE
  8
0
 10
26.387704849243164
 20
30.202470779418945
 30
2.3899335861206055
 11
22.292495727539062
 21
30.202470779418945
 31
1.9878625869750977
 12
22.292495727539062
 22
5.2301926612854
 32
1.9878606796264648
 13
22.292495727539062
 23
5.2301926612854
 33
1.9878606796264648
  0
3DFACE
  8
0
 10
26.387704849243164
 20
30.202470779418945
 30
2.3899335861206055
 11
22.292495727539062
 21
5.2301926612854
 31
1.9878606796264648
 12
26.387704849243164
 22
5.2301926612854
 32
2.3899316787719727
 13
26.387704849243164
 23
5.2301926612854
 33
2.3899316787719727
  0
3DFACE
  8
0
 10
33.95466613769531
 20
5.2301926612854
 30
5.514386177062988
 11
33.95466613769531
 21
30.202470779418945
 31
5.514388084411621
 12
30.325538635253906
 22
30.202470779418945
 32
3.580695152282715
 13
30.325538635253906
 23
30.202470779418945
 33
3.580695152282715
  0
3DFACE
  8
0
 10
30.325538635253906
 20
30.202470779418945
 30
3.580695152282715
 11
26.387704849243164
 21
30.202470779418945
 31
2.3899335861206055
 12
26.387704849243164
 22
5.2301926612854
 32
2.3899316787719727
 13
26.387704849243164
 23
5.2301926612854
 33
2.3899316787719727
  0
3DFACE
  8
0
 10
30.325538635253906
 20
5.2301926612854
 30
3.580693244934082
 11
33.95466613769531
 21
5.2301926612854
 31
5.514386177062988
 12
30.325538635253906
 22
30.202470779418945
 32
3.580695152282715
 13
30.325538635253906
 23
30.202470779418945
 33
3.580695152282715
  0
ENDSEC
  0
EOF
